%TF.GenerationSoftware,KiCad,Pcbnew,8.0.8-8.0.8-0~ubuntu22.04.1*%
%TF.CreationDate,2025-03-05T22:54:23+01:00*%
%TF.ProjectId,GLITCHING_FMAW,474c4954-4348-4494-9e47-5f464d41572e,rev?*%
%TF.SameCoordinates,Original*%
%TF.FileFunction,Other,User*%
%FSLAX46Y46*%
G04 Gerber Fmt 4.6, Leading zero omitted, Abs format (unit mm)*
G04 Created by KiCad (PCBNEW 8.0.8-8.0.8-0~ubuntu22.04.1) date 2025-03-05 22:54:23*
%MOMM*%
%LPD*%
G01*
G04 APERTURE LIST*
%ADD10C,0.050000*%
G04 APERTURE END LIST*
D10*
%TO.C,R5*%
X65520000Y-34120000D02*
X68480000Y-34120000D01*
X65520000Y-35580000D02*
X65520000Y-34120000D01*
X68480000Y-34120000D02*
X68480000Y-35580000D01*
X68480000Y-35580000D02*
X65520000Y-35580000D01*
%TO.C,C5*%
X65900000Y-24350000D02*
X68200000Y-24350000D01*
X65900000Y-28950000D02*
X65900000Y-24350000D01*
X68200000Y-24350000D02*
X68200000Y-28950000D01*
X68200000Y-28950000D02*
X65900000Y-28950000D01*
%TO.C,C14*%
X71720000Y-37520000D02*
X73180000Y-37520000D01*
X71720000Y-40480000D02*
X71720000Y-37520000D01*
X73180000Y-37520000D02*
X73180000Y-40480000D01*
X73180000Y-40480000D02*
X71720000Y-40480000D01*
%TO.C,C21*%
X64345000Y-42870000D02*
X67305000Y-42870000D01*
X64345000Y-44330000D02*
X64345000Y-42870000D01*
X67305000Y-42870000D02*
X67305000Y-44330000D01*
X67305000Y-44330000D02*
X64345000Y-44330000D01*
%TO.C,J3*%
X75200000Y-58120000D02*
X75200000Y-66770000D01*
X75200000Y-66770000D02*
X78800000Y-66770000D01*
X78800000Y-58120000D02*
X75200000Y-58120000D01*
X78800000Y-66770000D02*
X78800000Y-58120000D01*
%TO.C,R3*%
X67945000Y-35770000D02*
X70905000Y-35770000D01*
X67945000Y-37230000D02*
X67945000Y-35770000D01*
X70905000Y-35770000D02*
X70905000Y-37230000D01*
X70905000Y-37230000D02*
X67945000Y-37230000D01*
%TO.C,D4*%
X39200000Y-43880000D02*
X39200000Y-47080000D01*
X39200000Y-43880000D02*
X42600000Y-43880000D01*
X42600000Y-47080000D02*
X39200000Y-47080000D01*
X42600000Y-47080000D02*
X42600000Y-43880000D01*
%TO.C,C15*%
X68795000Y-50970000D02*
X71755000Y-50970000D01*
X68795000Y-52430000D02*
X68795000Y-50970000D01*
X71755000Y-50970000D02*
X71755000Y-52430000D01*
X71755000Y-52430000D02*
X68795000Y-52430000D01*
%TO.C,C17*%
X59390710Y-52190711D02*
X60850710Y-52190711D01*
X59390710Y-55150711D02*
X59390710Y-52190711D01*
X60850710Y-52190711D02*
X60850710Y-55150711D01*
X60850710Y-55150711D02*
X59390710Y-55150711D01*
%TO.C,J5*%
X48580000Y-68900000D02*
X48580000Y-72500000D01*
X48580000Y-72500000D02*
X59780000Y-72500000D01*
X59780000Y-68900000D02*
X48580000Y-68900000D01*
X59780000Y-72500000D02*
X59780000Y-68900000D01*
%TO.C,R14*%
X57970000Y-60745000D02*
X59430000Y-60745000D01*
X57970000Y-63705000D02*
X57970000Y-60745000D01*
X59430000Y-60745000D02*
X59430000Y-63705000D01*
X59430000Y-63705000D02*
X57970000Y-63705000D01*
%TO.C,R13*%
X59670000Y-60745000D02*
X61130000Y-60745000D01*
X59670000Y-63705000D02*
X59670000Y-60745000D01*
X61130000Y-60745000D02*
X61130000Y-63705000D01*
X61130000Y-63705000D02*
X59670000Y-63705000D01*
%TO.C,R4*%
X71095000Y-35770000D02*
X74055000Y-35770000D01*
X71095000Y-37230000D02*
X71095000Y-35770000D01*
X74055000Y-35770000D02*
X74055000Y-37230000D01*
X74055000Y-37230000D02*
X71095000Y-37230000D01*
%TO.C,C4*%
X43350000Y-24825001D02*
X45650000Y-24825001D01*
X43350000Y-29425001D02*
X43350000Y-24825001D01*
X45650000Y-24825001D02*
X45650000Y-29425001D01*
X45650000Y-29425001D02*
X43350000Y-29425001D01*
%TO.C,C26*%
X60920000Y-51295000D02*
X62380000Y-51295000D01*
X60920000Y-54255000D02*
X60920000Y-51295000D01*
X62380000Y-51295000D02*
X62380000Y-54255000D01*
X62380000Y-54255000D02*
X60920000Y-54255000D01*
%TO.C,C20*%
X62470000Y-51295000D02*
X63930000Y-51295000D01*
X62470000Y-54255000D02*
X62470000Y-51295000D01*
X63930000Y-51295000D02*
X63930000Y-54255000D01*
X63930000Y-54255000D02*
X62470000Y-54255000D01*
%TO.C,C27*%
X60470000Y-37745000D02*
X61930000Y-37745000D01*
X60470000Y-40705000D02*
X60470000Y-37745000D01*
X61930000Y-37745000D02*
X61930000Y-40705000D01*
X61930000Y-40705000D02*
X60470000Y-40705000D01*
%TO.C,C25*%
X49920000Y-46870000D02*
X52880000Y-46870000D01*
X49920000Y-48330000D02*
X49920000Y-46870000D01*
X52880000Y-46870000D02*
X52880000Y-48330000D01*
X52880000Y-48330000D02*
X49920000Y-48330000D01*
%TO.C,C12*%
X76320000Y-38295000D02*
X77780000Y-38295000D01*
X76320000Y-41255000D02*
X76320000Y-38295000D01*
X77780000Y-38295000D02*
X77780000Y-41255000D01*
X77780000Y-41255000D02*
X76320000Y-41255000D01*
%TO.C,J2*%
X75200000Y-29520001D02*
X75200000Y-38170001D01*
X75200000Y-38170001D02*
X78800000Y-38170001D01*
X78800000Y-29520001D02*
X75200000Y-29520001D01*
X78800000Y-38170001D02*
X78800000Y-29520001D01*
%TO.C,J6*%
X60580000Y-68900000D02*
X60580000Y-72500000D01*
X60580000Y-72500000D02*
X71780000Y-72500000D01*
X71780000Y-68900000D02*
X60580000Y-68900000D01*
X71780000Y-72500000D02*
X71780000Y-68900000D01*
%TO.C,C3*%
X53425000Y-28450001D02*
X55725000Y-28450001D01*
X53425000Y-33050001D02*
X53425000Y-28450001D01*
X55725000Y-28450001D02*
X55725000Y-33050001D01*
X55725000Y-33050001D02*
X53425000Y-33050001D01*
%TO.C,C2*%
X33250000Y-29400000D02*
X35550000Y-29400000D01*
X33250000Y-34000000D02*
X33250000Y-29400000D01*
X35550000Y-29400000D02*
X35550000Y-34000000D01*
X35550000Y-34000000D02*
X33250000Y-34000000D01*
%TO.C,L1*%
X56625000Y-25875000D02*
X57475000Y-25875000D01*
X56625000Y-29875000D02*
X56625000Y-25875000D01*
X57475000Y-25875000D02*
X57475001Y-24325000D01*
X57475000Y-29875000D02*
X56625000Y-29875000D01*
X57475001Y-24325000D02*
X64674999Y-24325000D01*
X57475001Y-31425000D02*
X57475000Y-29875000D01*
X64674999Y-24325000D02*
X64675000Y-25875000D01*
X64674999Y-31425000D02*
X57475001Y-31425000D01*
X64675000Y-25875000D02*
X65525000Y-25875000D01*
X64675000Y-29875000D02*
X64674999Y-31425000D01*
X65525000Y-25875000D02*
X65525000Y-29875000D01*
X65525000Y-29875000D02*
X64675000Y-29875000D01*
%TO.C,C16*%
X37820000Y-52670000D02*
X39280000Y-52670000D01*
X37820000Y-55630000D02*
X37820000Y-52670000D01*
X39280000Y-52670000D02*
X39280000Y-55630000D01*
X39280000Y-55630000D02*
X37820000Y-55630000D01*
%TO.C,RN2*%
X50350000Y-60800000D02*
X50350000Y-58800000D01*
X50350000Y-60800000D02*
X52850000Y-60800000D01*
X52850000Y-58800000D02*
X50350000Y-58800000D01*
X52850000Y-58800000D02*
X52850000Y-60800000D01*
%TO.C,C1*%
X43325000Y-30120001D02*
X45625000Y-30120001D01*
X43325000Y-34720001D02*
X43325000Y-30120001D01*
X45625000Y-30120001D02*
X45625000Y-34720001D01*
X45625000Y-34720001D02*
X43325000Y-34720001D01*
%TO.C,U2*%
X45870000Y-24310001D02*
X45870000Y-33110001D01*
X45870000Y-33110001D02*
X53070000Y-33110001D01*
X53070000Y-24310001D02*
X45870000Y-24310001D01*
X53070000Y-33110001D02*
X53070000Y-24310001D01*
%TO.C,U5*%
X39440000Y-49350000D02*
X39440000Y-58650000D01*
X39440000Y-58650000D02*
X45160000Y-58650000D01*
X45160000Y-49350000D02*
X39440000Y-49350000D01*
X45160000Y-58650000D02*
X45160000Y-49350000D01*
%TO.C,U3*%
X68650001Y-28200000D02*
X68650001Y-35600000D01*
X68650001Y-35600000D02*
X74050001Y-35600000D01*
X74050001Y-28200000D02*
X68650001Y-28200000D01*
X74050001Y-35600000D02*
X74050001Y-28200000D01*
%TO.C,R8*%
X58470000Y-34495000D02*
X59930000Y-34495000D01*
X58470000Y-37455000D02*
X58470000Y-34495000D01*
X59930000Y-34495000D02*
X59930000Y-37455000D01*
X59930000Y-37455000D02*
X58470000Y-37455000D01*
%TO.C,Q2*%
X65600000Y-58400000D02*
X65600000Y-65600000D01*
X65600000Y-65600000D02*
X74400000Y-65600000D01*
X74400000Y-58400000D02*
X65600000Y-58400000D01*
X74400000Y-65600000D02*
X74400000Y-58400000D01*
%TO.C,C24*%
X50270000Y-41720000D02*
X53230000Y-41720000D01*
X50270000Y-43180000D02*
X50270000Y-41720000D01*
X53230000Y-41720000D02*
X53230000Y-43180000D01*
X53230000Y-43180000D02*
X50270000Y-43180000D01*
%TO.C,R10*%
X66970000Y-54945000D02*
X68430000Y-54945000D01*
X66970000Y-57905000D02*
X66970000Y-54945000D01*
X68430000Y-54945000D02*
X68430000Y-57905000D01*
X68430000Y-57905000D02*
X66970000Y-57905000D01*
%TO.C,R6*%
X65520000Y-32470000D02*
X68480000Y-32470000D01*
X65520000Y-33930000D02*
X65520000Y-32470000D01*
X68480000Y-32470000D02*
X68480000Y-33930000D01*
X68480000Y-33930000D02*
X65520000Y-33930000D01*
%TO.C,C18*%
X54240711Y-52215710D02*
X55700711Y-52215710D01*
X54240711Y-55175710D02*
X54240711Y-52215710D01*
X55700711Y-52215710D02*
X55700711Y-55175710D01*
X55700711Y-55175710D02*
X54240711Y-55175710D01*
%TO.C,D5*%
X43732499Y-35770000D02*
X46692499Y-35770000D01*
X43732499Y-37230000D02*
X43732499Y-35770000D01*
X46692499Y-35770000D02*
X46692499Y-37230000D01*
X46692499Y-37230000D02*
X43732499Y-37230000D01*
%TO.C,C22*%
X58070000Y-37720000D02*
X59530000Y-37720000D01*
X58070000Y-40680000D02*
X58070000Y-37720000D01*
X59530000Y-37720000D02*
X59530000Y-40680000D01*
X59530000Y-40680000D02*
X58070000Y-40680000D01*
%TO.C,R27*%
X47020000Y-35770000D02*
X49980000Y-35770000D01*
X47020000Y-37230000D02*
X47020000Y-35770000D01*
X49980000Y-35770000D02*
X49980000Y-37230000D01*
X49980000Y-37230000D02*
X47020000Y-37230000D01*
%TO.C,D2*%
X59670000Y-57532499D02*
X61130000Y-57532499D01*
X59670000Y-60492499D02*
X59670000Y-57532499D01*
X61130000Y-57532499D02*
X61130000Y-60492499D01*
X61130000Y-60492499D02*
X59670000Y-60492499D01*
%TO.C,C8*%
X65520000Y-37545000D02*
X66980000Y-37545000D01*
X65520000Y-40505000D02*
X65520000Y-37545000D01*
X66980000Y-37545000D02*
X66980000Y-40505000D01*
X66980000Y-40505000D02*
X65520000Y-40505000D01*
%TO.C,R9*%
X59995000Y-34495000D02*
X61455000Y-34495000D01*
X59995000Y-37455000D02*
X59995000Y-34495000D01*
X61455000Y-34495000D02*
X61455000Y-37455000D01*
X61455000Y-37455000D02*
X59995000Y-37455000D01*
%TO.C,C6*%
X67045000Y-37520000D02*
X68505000Y-37520000D01*
X67045000Y-40480000D02*
X67045000Y-37520000D01*
X68505000Y-37520000D02*
X68505000Y-40480000D01*
X68505000Y-40480000D02*
X67045000Y-40480000D01*
%TO.C,R1*%
X39520000Y-40270000D02*
X42480000Y-40270000D01*
X39520000Y-41730000D02*
X39520000Y-40270000D01*
X42480000Y-40270000D02*
X42480000Y-41730000D01*
X42480000Y-41730000D02*
X39520000Y-41730000D01*
%TO.C,C9*%
X63970000Y-37545000D02*
X65430000Y-37545000D01*
X63970000Y-40505000D02*
X63970000Y-37545000D01*
X65430000Y-37545000D02*
X65430000Y-40505000D01*
X65430000Y-40505000D02*
X63970000Y-40505000D01*
%TO.C,Y1*%
X55765711Y-52090711D02*
X55765711Y-55150709D01*
X59325711Y-52090711D02*
X55765711Y-52090711D01*
X59325711Y-55150709D02*
X55765711Y-55150709D01*
X59325711Y-55150709D02*
X59325711Y-52090711D01*
%TO.C,C19*%
X64020000Y-51320000D02*
X65480000Y-51320000D01*
X64020000Y-54280000D02*
X64020000Y-51320000D01*
X65480000Y-51320000D02*
X65480000Y-54280000D01*
X65480000Y-54280000D02*
X64020000Y-54280000D01*
%TO.C,H1*%
X35150000Y-27000000D02*
G75*
G02*
X30850000Y-27000000I-2150000J0D01*
G01*
X30850000Y-27000000D02*
G75*
G02*
X35150000Y-27000000I2150000J0D01*
G01*
%TO.C,U6*%
X67490000Y-41380000D02*
X78490000Y-41380000D01*
X67490000Y-50880000D02*
X67490000Y-41380000D01*
X67490000Y-50880000D02*
X78490000Y-50880000D01*
X78490000Y-50880000D02*
X78490000Y-41380000D01*
%TO.C,C7*%
X65495000Y-30870000D02*
X68455000Y-30870000D01*
X65495000Y-32330000D02*
X65495000Y-30870000D01*
X68455000Y-30870000D02*
X68455000Y-32330000D01*
X68455000Y-32330000D02*
X65495000Y-32330000D01*
%TO.C,U4*%
X54460000Y-42330000D02*
X54460000Y-50590000D01*
X54460000Y-50590000D02*
X62720000Y-50590000D01*
X62720000Y-42330000D02*
X54460000Y-42330000D01*
X62720000Y-50590000D02*
X62720000Y-42330000D01*
%TO.C,H2*%
X35150000Y-70000000D02*
G75*
G02*
X30850000Y-70000000I-2150000J0D01*
G01*
X30850000Y-70000000D02*
G75*
G02*
X35150000Y-70000000I2150000J0D01*
G01*
%TO.C,C28*%
X61970000Y-37745000D02*
X63430000Y-37745000D01*
X61970000Y-40705000D02*
X61970000Y-37745000D01*
X63430000Y-37745000D02*
X63430000Y-40705000D01*
X63430000Y-40705000D02*
X61970000Y-40705000D01*
%TO.C,R2*%
X39570000Y-47195000D02*
X42530000Y-47195000D01*
X39570000Y-48655000D02*
X39570000Y-47195000D01*
X42530000Y-47195000D02*
X42530000Y-48655000D01*
X42530000Y-48655000D02*
X39570000Y-48655000D01*
%TO.C,J4*%
X36580000Y-68900000D02*
X36580000Y-72500000D01*
X36580000Y-72500000D02*
X47780000Y-72500000D01*
X47780000Y-68900000D02*
X36580000Y-68900000D01*
X47780000Y-72500000D02*
X47780000Y-68900000D01*
%TO.C,RN3*%
X53200000Y-60800001D02*
X53200000Y-58800001D01*
X53200000Y-60800001D02*
X55700000Y-60800001D01*
X55700000Y-58800001D02*
X53200000Y-58800001D01*
X55700000Y-58800001D02*
X55700000Y-60800001D01*
%TO.C,C11*%
X74770000Y-38295000D02*
X76230000Y-38295000D01*
X74770000Y-41255000D02*
X74770000Y-38295000D01*
X76230000Y-38295000D02*
X76230000Y-41255000D01*
X76230000Y-41255000D02*
X74770000Y-41255000D01*
%TO.C,J1*%
X38535000Y-51180000D02*
X29595000Y-51180000D01*
X29595000Y-40540000D01*
X38535000Y-40540000D01*
X38535000Y-51180000D01*
%TO.C,R12*%
X56270000Y-60695000D02*
X57730000Y-60695000D01*
X56270000Y-63655000D02*
X56270000Y-60695000D01*
X57730000Y-60695000D02*
X57730000Y-63655000D01*
X57730000Y-63655000D02*
X56270000Y-63655000D01*
%TO.C,C23*%
X63795000Y-41270000D02*
X66755000Y-41270000D01*
X63795000Y-42730000D02*
X63795000Y-41270000D01*
X66755000Y-41270000D02*
X66755000Y-42730000D01*
X66755000Y-42730000D02*
X63795000Y-42730000D01*
%TO.C,D3*%
X57970000Y-57532499D02*
X59430000Y-57532499D01*
X57970000Y-60492499D02*
X57970000Y-57532499D01*
X59430000Y-57532499D02*
X59430000Y-60492499D01*
X59430000Y-60492499D02*
X57970000Y-60492499D01*
%TO.C,F1*%
X36362500Y-36025000D02*
X42262500Y-36025000D01*
X36362500Y-39925000D02*
X36362500Y-36025000D01*
X42262500Y-36025000D02*
X42262500Y-39925000D01*
X42262500Y-39925000D02*
X36362500Y-39925000D01*
%TO.C,C13*%
X70195000Y-37520000D02*
X71655000Y-37520000D01*
X70195000Y-40480000D02*
X70195000Y-37520000D01*
X71655000Y-37520000D02*
X71655000Y-40480000D01*
X71655000Y-40480000D02*
X70195000Y-40480000D01*
%TO.C,RN1*%
X47500000Y-60800001D02*
X47500000Y-58800001D01*
X47500000Y-60800001D02*
X50000000Y-60800001D01*
X50000000Y-58800001D02*
X47500000Y-58800001D01*
X50000000Y-58800001D02*
X50000000Y-60800001D01*
%TO.C,C10*%
X73245000Y-37520000D02*
X74705000Y-37520000D01*
X73245000Y-40480000D02*
X73245000Y-37520000D01*
X74705000Y-37520000D02*
X74705000Y-40480000D01*
X74705000Y-40480000D02*
X73245000Y-40480000D01*
%TO.C,H4*%
X78150000Y-27000000D02*
G75*
G02*
X73850000Y-27000000I-2150000J0D01*
G01*
X73850000Y-27000000D02*
G75*
G02*
X78150000Y-27000000I2150000J0D01*
G01*
%TO.C,U1*%
X35742500Y-26965001D02*
X35742500Y-35765001D01*
X35742500Y-35765001D02*
X42942500Y-35765001D01*
X42942500Y-26965001D02*
X35742500Y-26965001D01*
X42942500Y-35765001D02*
X42942500Y-26965001D01*
%TO.C,J7*%
X30100000Y-56140000D02*
X30100000Y-67340000D01*
X30100000Y-67340000D02*
X33700000Y-67340000D01*
X33700000Y-56140000D02*
X30100000Y-56140000D01*
X33700000Y-67340000D02*
X33700000Y-56140000D01*
%TO.C,R7*%
X68570000Y-37520000D02*
X70030000Y-37520000D01*
X68570000Y-40480000D02*
X68570000Y-37520000D01*
X70030000Y-37520000D02*
X70030000Y-40480000D01*
X70030000Y-40480000D02*
X68570000Y-40480000D01*
%TO.C,R11*%
X68520000Y-54945000D02*
X69980000Y-54945000D01*
X68520000Y-57905000D02*
X68520000Y-54945000D01*
X69980000Y-54945000D02*
X69980000Y-57905000D01*
X69980000Y-57905000D02*
X68520000Y-57905000D01*
%TO.C,H3*%
X78150000Y-70000000D02*
G75*
G02*
X73850000Y-70000000I-2150000J0D01*
G01*
X73850000Y-70000000D02*
G75*
G02*
X78150000Y-70000000I2150000J0D01*
G01*
%TO.C,D1*%
X56270000Y-57520000D02*
X57730000Y-57520000D01*
X56270000Y-60480000D02*
X56270000Y-57520000D01*
X57730000Y-57520000D02*
X57730000Y-60480000D01*
X57730000Y-60480000D02*
X56270000Y-60480000D01*
%TD*%
M02*
