%TF.GenerationSoftware,KiCad,Pcbnew,8.0.8-8.0.8-0~ubuntu22.04.1*%
%TF.CreationDate,2025-03-05T22:20:15+01:00*%
%TF.ProjectId,GLITCHING_FMAW,474c4954-4348-4494-9e47-5f464d41572e,rev?*%
%TF.SameCoordinates,Original*%
%TF.FileFunction,Copper,L2,Bot*%
%TF.FilePolarity,Positive*%
%FSLAX46Y46*%
G04 Gerber Fmt 4.6, Leading zero omitted, Abs format (unit mm)*
G04 Created by KiCad (PCBNEW 8.0.8-8.0.8-0~ubuntu22.04.1) date 2025-03-05 22:20:15*
%MOMM*%
%LPD*%
G01*
G04 APERTURE LIST*
%TA.AperFunction,ComponentPad*%
%ADD10R,1.700000X1.700000*%
%TD*%
%TA.AperFunction,ComponentPad*%
%ADD11O,1.700000X1.700000*%
%TD*%
%TA.AperFunction,ComponentPad*%
%ADD12C,3.800000*%
%TD*%
%TA.AperFunction,ComponentPad*%
%ADD13O,2.100000X1.000000*%
%TD*%
%TA.AperFunction,ComponentPad*%
%ADD14O,1.800000X1.000000*%
%TD*%
%TA.AperFunction,ViaPad*%
%ADD15C,0.600000*%
%TD*%
%TA.AperFunction,Conductor*%
%ADD16C,0.400000*%
%TD*%
%TA.AperFunction,Conductor*%
%ADD17C,0.120000*%
%TD*%
%TA.AperFunction,Conductor*%
%ADD18C,0.600000*%
%TD*%
%TA.AperFunction,Conductor*%
%ADD19C,0.200000*%
%TD*%
G04 APERTURE END LIST*
D10*
%TO.P,J3,1,Pin_1*%
%TO.N,GND*%
X77000000Y-59920000D03*
D11*
%TO.P,J3,2,Pin_2*%
%TO.N,Net-(J3-Pin_2)*%
X77000000Y-62460000D03*
%TO.P,J3,3,Pin_3*%
%TO.N,GND*%
X77000000Y-65000000D03*
%TD*%
D10*
%TO.P,J5,1,Pin_1*%
%TO.N,Net-(J5-Pin_1)*%
X50380000Y-70700000D03*
D11*
%TO.P,J5,2,Pin_2*%
%TO.N,Net-(J5-Pin_2)*%
X52920000Y-70700000D03*
%TO.P,J5,3,Pin_3*%
%TO.N,Net-(J5-Pin_3)*%
X55459999Y-70700000D03*
%TO.P,J5,4,Pin_4*%
%TO.N,Net-(J5-Pin_4)*%
X58000000Y-70700000D03*
%TD*%
D10*
%TO.P,J2,1,Pin_1*%
%TO.N,GND*%
X77000000Y-31320001D03*
D11*
%TO.P,J2,2,Pin_2*%
%TO.N,Net-(J2-Pin_2)*%
X77000000Y-33860001D03*
%TO.P,J2,3,Pin_3*%
%TO.N,GND*%
X77000000Y-36400000D03*
%TD*%
D10*
%TO.P,J6,1,Pin_1*%
%TO.N,Net-(J6-Pin_1)*%
X62380000Y-70700000D03*
D11*
%TO.P,J6,2,Pin_2*%
%TO.N,Net-(J6-Pin_2)*%
X64920000Y-70700000D03*
%TO.P,J6,3,Pin_3*%
%TO.N,Net-(J6-Pin_3)*%
X67459999Y-70700000D03*
%TO.P,J6,4,Pin_4*%
%TO.N,Net-(J6-Pin_4)*%
X70000000Y-70700000D03*
%TD*%
D12*
%TO.P,H1,1*%
%TO.N,N/C*%
X33000000Y-27000000D03*
%TD*%
%TO.P,H2,1*%
%TO.N,N/C*%
X33000000Y-70000000D03*
%TD*%
D10*
%TO.P,J4,1,Pin_1*%
%TO.N,Net-(J4-Pin_1)*%
X38380000Y-70700000D03*
D11*
%TO.P,J4,2,Pin_2*%
%TO.N,Net-(J4-Pin_2)*%
X40920000Y-70700000D03*
%TO.P,J4,3,Pin_3*%
%TO.N,Net-(J4-Pin_3)*%
X43459999Y-70700000D03*
%TO.P,J4,4,Pin_4*%
%TO.N,Net-(J4-Pin_4)*%
X46000000Y-70700000D03*
%TD*%
D13*
%TO.P,J1,S1,SHIELD*%
%TO.N,GND*%
X36880000Y-41540000D03*
D14*
X32700000Y-41540000D03*
D13*
X36880000Y-50180000D03*
D14*
X32700000Y-50180000D03*
%TD*%
D12*
%TO.P,H4,1*%
%TO.N,N/C*%
X76000000Y-27000000D03*
%TD*%
D10*
%TO.P,J7,1,Pin_1*%
%TO.N,GND*%
X31900000Y-65540000D03*
D11*
%TO.P,J7,2,Pin_2*%
X31900000Y-63000000D03*
%TO.P,J7,3,Pin_3*%
X31900000Y-60460001D03*
%TO.P,J7,4,Pin_4*%
X31900000Y-57920000D03*
%TD*%
D12*
%TO.P,H3,1*%
%TO.N,N/C*%
X76000000Y-70000000D03*
%TD*%
D15*
%TO.N,GND*%
X47000000Y-29500000D03*
X33000000Y-35000000D03*
X67250000Y-42500000D03*
X34000000Y-35000000D03*
X72250000Y-51250000D03*
X49750000Y-41750000D03*
X57100000Y-37100000D03*
X46500000Y-44500000D03*
X46000000Y-29500000D03*
X43000000Y-47000000D03*
X56500000Y-44500000D03*
X70750000Y-41200000D03*
X62100000Y-37500000D03*
X70925000Y-38225000D03*
X65500000Y-40750000D03*
X55000000Y-57500000D03*
X56500000Y-35400000D03*
X57000000Y-65000000D03*
X66000000Y-54000000D03*
X48367721Y-65103881D03*
X54500000Y-41500000D03*
X54600000Y-30400000D03*
X62000000Y-56000000D03*
X67070000Y-49580000D03*
X67775000Y-38225000D03*
X42750000Y-41250000D03*
X77000000Y-48000000D03*
X50250000Y-49250000D03*
X47250000Y-34750000D03*
X73000000Y-57500000D03*
X77000000Y-53000000D03*
X35000000Y-35000000D03*
X57500000Y-38700000D03*
X64500000Y-57500000D03*
X63500000Y-50800000D03*
X73250000Y-53500000D03*
X46716003Y-38122809D03*
X53250000Y-53000000D03*
%TO.N,VBUS*%
X44475000Y-33895002D03*
X41500000Y-38000000D03*
X41900000Y-46500000D03*
X51750000Y-32000000D03*
%TO.N,+3.3V*%
X41750000Y-28250000D03*
X39255469Y-30742294D03*
X39250000Y-29750000D03*
X36750000Y-28250000D03*
X62206250Y-42006250D03*
X61000000Y-47500000D03*
X53875000Y-42525000D03*
X60424403Y-49059399D03*
X63300000Y-43600000D03*
X35500000Y-28250000D03*
X58630602Y-48993034D03*
X52875000Y-47460000D03*
X68700000Y-51675000D03*
X40337500Y-51587500D03*
X58725000Y-41475000D03*
X64750000Y-52025000D03*
X39250000Y-32750000D03*
X39250000Y-31750000D03*
%TO.N,+3.3VA*%
X66000000Y-30000000D03*
X68000000Y-30000000D03*
X67000000Y-30000000D03*
X68550000Y-41050000D03*
X72450000Y-39775000D03*
%TO.N,+1V1*%
X59500000Y-48900000D03*
X59228225Y-43960000D03*
%TD*%
D16*
%TO.N,GND*%
X46716003Y-38122809D02*
X46716003Y-44283997D01*
X56896119Y-65103881D02*
X57000000Y-65000000D01*
X50250000Y-49250000D02*
X50250000Y-42250000D01*
X67500000Y-38500000D02*
X67500000Y-42250000D01*
X50250000Y-42250000D02*
X49750000Y-41750000D01*
X66000000Y-50650000D02*
X67070000Y-49580000D01*
X70925000Y-41025000D02*
X70750000Y-41200000D01*
D17*
X56500000Y-44500000D02*
X54500000Y-42500000D01*
D16*
X55000000Y-54750000D02*
X53250000Y-53000000D01*
X55000000Y-57500000D02*
X55000000Y-54750000D01*
X64500000Y-57500000D02*
X73000000Y-57500000D01*
X42750000Y-41250000D02*
X43000000Y-41500000D01*
X62000000Y-52300000D02*
X62000000Y-56000000D01*
X48367721Y-65103881D02*
X56896119Y-65103881D01*
X36880000Y-41540000D02*
X32700000Y-41540000D01*
X77000000Y-48000000D02*
X77000000Y-53000000D01*
D17*
X47000000Y-29500000D02*
X53700000Y-29500000D01*
D16*
X57500000Y-38700000D02*
X57500000Y-37500000D01*
X62100000Y-37500000D02*
X57500000Y-37500000D01*
X67500000Y-42250000D02*
X67250000Y-42500000D01*
X56500000Y-36500000D02*
X57100000Y-37100000D01*
X66000000Y-54000000D02*
X66000000Y-50650000D01*
X72250000Y-52500000D02*
X73250000Y-53500000D01*
D17*
X53700000Y-29500000D02*
X54600000Y-30400000D01*
D16*
X63500000Y-50800000D02*
X62000000Y-52300000D01*
X57100000Y-37100000D02*
X57500000Y-37500000D01*
X72250000Y-51250000D02*
X72250000Y-52500000D01*
D17*
X54500000Y-42500000D02*
X54500000Y-41500000D01*
D16*
X67775000Y-38225000D02*
X67500000Y-38500000D01*
X36880000Y-50180000D02*
X32700000Y-50180000D01*
X56500000Y-35400000D02*
X56500000Y-36500000D01*
X46716003Y-44283997D02*
X46500000Y-44500000D01*
X43000000Y-41500000D02*
X43000000Y-47000000D01*
X70925000Y-38225000D02*
X70925000Y-41025000D01*
D18*
%TO.N,VBUS*%
X41900000Y-46500000D02*
X41500000Y-46100000D01*
X41500000Y-46100000D02*
X41500000Y-38000000D01*
X46370002Y-32000000D02*
X44475000Y-33895002D01*
X51750000Y-32000000D02*
X46370002Y-32000000D01*
D19*
%TO.N,+3.3V*%
X59256250Y-42006250D02*
X58725000Y-41475000D01*
X68700000Y-52800000D02*
X67500000Y-54000000D01*
X68700000Y-51675000D02*
X68700000Y-52800000D01*
X63300000Y-43600000D02*
X63300000Y-43100000D01*
X62206250Y-42006250D02*
X59256250Y-42006250D01*
X59483802Y-50000000D02*
X57500000Y-50000000D01*
X60424403Y-49059399D02*
X59483802Y-50000000D01*
X61000000Y-48483802D02*
X60424403Y-49059399D01*
X63300000Y-43100000D02*
X62206250Y-42006250D01*
X64750000Y-52025000D02*
X64750000Y-53000000D01*
X61000000Y-47500000D02*
X61000000Y-48483802D01*
D18*
%TO.N,+1V1*%
X59700000Y-48700000D02*
X59700000Y-44431775D01*
X59700000Y-44431775D02*
X59228225Y-43960000D01*
D19*
X59500000Y-48900000D02*
X59700000Y-48700000D01*
%TD*%
%TA.AperFunction,Conductor*%
%TO.N,+3.3V*%
G36*
X58985648Y-24514852D02*
G01*
X59000000Y-24549500D01*
X59000000Y-37000500D01*
X58985648Y-37035148D01*
X58951000Y-37049500D01*
X57706899Y-37049500D01*
X57672251Y-37035148D01*
X57654601Y-37017498D01*
X57640668Y-36989245D01*
X57637301Y-36963670D01*
X57636330Y-36956291D01*
X57580861Y-36822375D01*
X57492621Y-36707379D01*
X57377625Y-36619139D01*
X57377620Y-36619136D01*
X57243708Y-36563669D01*
X57243709Y-36563669D01*
X57210751Y-36559330D01*
X57182500Y-36545397D01*
X56964852Y-36327749D01*
X56950500Y-36293101D01*
X56950500Y-35733824D01*
X56960625Y-35703996D01*
X56980861Y-35677625D01*
X57036330Y-35543709D01*
X57055250Y-35400000D01*
X57036330Y-35256291D01*
X56989698Y-35143709D01*
X56980863Y-35122379D01*
X56980860Y-35122374D01*
X56892621Y-35007379D01*
X56892620Y-35007378D01*
X56777625Y-34919139D01*
X56777620Y-34919136D01*
X56643708Y-34863669D01*
X56500000Y-34844750D01*
X56356291Y-34863669D01*
X56222379Y-34919136D01*
X56222374Y-34919139D01*
X56107379Y-35007378D01*
X56107378Y-35007379D01*
X56019139Y-35122374D01*
X56019136Y-35122379D01*
X55963669Y-35256291D01*
X55944750Y-35400000D01*
X55963669Y-35543708D01*
X56019136Y-35677620D01*
X56019137Y-35677621D01*
X56019139Y-35677625D01*
X56039374Y-35703996D01*
X56049500Y-35733824D01*
X56049500Y-36559310D01*
X56061229Y-36603083D01*
X56073667Y-36649501D01*
X56080201Y-36673887D01*
X56080202Y-36673890D01*
X56139511Y-36776614D01*
X56545397Y-37182500D01*
X56559330Y-37210751D01*
X56563669Y-37243708D01*
X56619136Y-37377620D01*
X56619139Y-37377625D01*
X56703076Y-37487014D01*
X56707379Y-37492621D01*
X56822375Y-37580861D01*
X56822377Y-37580861D01*
X56822379Y-37580863D01*
X56886394Y-37607378D01*
X56956291Y-37636330D01*
X56989245Y-37640668D01*
X57017498Y-37654601D01*
X57035148Y-37672251D01*
X57049500Y-37706899D01*
X57049500Y-38366173D01*
X57039375Y-38396002D01*
X57019139Y-38422375D01*
X56963669Y-38556291D01*
X56944750Y-38700000D01*
X56963669Y-38843708D01*
X57019136Y-38977620D01*
X57019139Y-38977625D01*
X57107379Y-39092621D01*
X57222375Y-39180861D01*
X57222377Y-39180861D01*
X57222379Y-39180863D01*
X57356291Y-39236330D01*
X57500000Y-39255250D01*
X57643709Y-39236330D01*
X57777625Y-39180861D01*
X57892621Y-39092621D01*
X57980861Y-38977625D01*
X58036330Y-38843709D01*
X58055250Y-38700000D01*
X58036330Y-38556291D01*
X57980861Y-38422375D01*
X57965513Y-38402373D01*
X57960625Y-38396002D01*
X57950500Y-38366173D01*
X57950500Y-37999500D01*
X57964852Y-37964852D01*
X57999500Y-37950500D01*
X58951000Y-37950500D01*
X58985648Y-37964852D01*
X59000000Y-37999500D01*
X59000000Y-43425935D01*
X58985648Y-43460583D01*
X58969753Y-43471204D01*
X58950603Y-43479136D01*
X58950596Y-43479141D01*
X58924277Y-43499335D01*
X58918951Y-43502894D01*
X58890216Y-43519486D01*
X58890204Y-43519494D01*
X58866740Y-43542957D01*
X58861925Y-43547180D01*
X58835603Y-43567378D01*
X58815405Y-43593700D01*
X58811182Y-43598515D01*
X58787719Y-43621979D01*
X58787711Y-43621991D01*
X58771119Y-43650726D01*
X58767560Y-43656052D01*
X58747366Y-43682371D01*
X58747363Y-43682376D01*
X58734662Y-43713035D01*
X58731830Y-43718778D01*
X58715241Y-43747513D01*
X58715240Y-43747516D01*
X58706651Y-43779569D01*
X58704592Y-43785635D01*
X58691896Y-43816287D01*
X58691893Y-43816298D01*
X58687562Y-43849188D01*
X58686313Y-43855469D01*
X58677725Y-43887525D01*
X58677725Y-43920706D01*
X58677306Y-43927101D01*
X58672975Y-43959999D01*
X58677306Y-43992896D01*
X58677725Y-43999292D01*
X58677725Y-44032473D01*
X58686313Y-44064528D01*
X58687562Y-44070811D01*
X58691893Y-44103701D01*
X58691897Y-44103715D01*
X58704592Y-44134363D01*
X58706652Y-44140432D01*
X58715239Y-44172480D01*
X58715242Y-44172488D01*
X58731830Y-44201221D01*
X58734664Y-44206966D01*
X58747365Y-44237627D01*
X58747365Y-44237628D01*
X58767562Y-44263950D01*
X58771121Y-44269276D01*
X58787711Y-44298009D01*
X58787713Y-44298011D01*
X58787715Y-44298015D01*
X58787718Y-44298018D01*
X58811177Y-44321477D01*
X58815403Y-44326295D01*
X58835605Y-44352622D01*
X58861924Y-44372817D01*
X58866743Y-44377043D01*
X58985648Y-44495947D01*
X59000000Y-44530595D01*
X59000000Y-48658835D01*
X58996270Y-48677586D01*
X58963669Y-48756291D01*
X58944750Y-48900000D01*
X58963669Y-49043706D01*
X58963669Y-49043708D01*
X58963670Y-49043709D01*
X58996270Y-49122415D01*
X59000000Y-49141163D01*
X59000000Y-53000000D01*
X61500500Y-53000000D01*
X61535148Y-53014352D01*
X61549500Y-53049000D01*
X61549500Y-55666173D01*
X61539375Y-55696002D01*
X61519139Y-55722375D01*
X61463669Y-55856291D01*
X61444750Y-56000000D01*
X61463669Y-56143708D01*
X61519136Y-56277620D01*
X61519139Y-56277625D01*
X61607379Y-56392621D01*
X61722375Y-56480861D01*
X61722377Y-56480861D01*
X61722379Y-56480863D01*
X61856291Y-56536330D01*
X62000000Y-56555250D01*
X62143709Y-56536330D01*
X62277625Y-56480861D01*
X62392621Y-56392621D01*
X62480861Y-56277625D01*
X62536330Y-56143709D01*
X62555250Y-56000000D01*
X62536330Y-55856291D01*
X62480861Y-55722375D01*
X62460625Y-55696002D01*
X62450500Y-55666173D01*
X62450500Y-53049000D01*
X62464852Y-53014352D01*
X62499500Y-53000000D01*
X65500500Y-53000000D01*
X65535148Y-53014352D01*
X65549500Y-53049000D01*
X65549500Y-53666173D01*
X65539375Y-53696002D01*
X65519139Y-53722375D01*
X65463669Y-53856291D01*
X65444750Y-54000000D01*
X65463669Y-54143708D01*
X65519136Y-54277620D01*
X65519139Y-54277625D01*
X65607379Y-54392621D01*
X65722375Y-54480861D01*
X65722377Y-54480861D01*
X65722379Y-54480863D01*
X65856291Y-54536330D01*
X66000000Y-54555250D01*
X66143709Y-54536330D01*
X66277625Y-54480861D01*
X66392621Y-54392621D01*
X66480861Y-54277625D01*
X66536330Y-54143709D01*
X66555250Y-54000000D01*
X66536330Y-53856291D01*
X66480861Y-53722375D01*
X66460625Y-53696002D01*
X66450500Y-53666173D01*
X66450500Y-53049000D01*
X66464852Y-53014352D01*
X66499500Y-53000000D01*
X72092601Y-53000000D01*
X72127249Y-53014352D01*
X72695397Y-53582500D01*
X72709330Y-53610751D01*
X72713669Y-53643708D01*
X72769136Y-53777620D01*
X72769139Y-53777625D01*
X72857379Y-53892621D01*
X72972375Y-53980861D01*
X72972377Y-53980861D01*
X72972379Y-53980863D01*
X73018581Y-54000000D01*
X73106291Y-54036330D01*
X73250000Y-54055250D01*
X73393709Y-54036330D01*
X73527625Y-53980861D01*
X73642621Y-53892621D01*
X73730861Y-53777625D01*
X73786330Y-53643709D01*
X73805250Y-53500000D01*
X73786330Y-53356291D01*
X73730861Y-53222375D01*
X73642621Y-53107379D01*
X73617202Y-53087874D01*
X73598450Y-53055396D01*
X73608157Y-53019171D01*
X73640635Y-53000419D01*
X73647031Y-53000000D01*
X76401778Y-53000000D01*
X76436426Y-53014352D01*
X76450359Y-53042604D01*
X76463669Y-53143708D01*
X76519136Y-53277620D01*
X76519139Y-53277625D01*
X76607379Y-53392621D01*
X76722375Y-53480861D01*
X76722377Y-53480861D01*
X76722379Y-53480863D01*
X76768581Y-53500000D01*
X76856291Y-53536330D01*
X77000000Y-53555250D01*
X77143709Y-53536330D01*
X77277625Y-53480861D01*
X77392621Y-53392621D01*
X77480861Y-53277625D01*
X77536330Y-53143709D01*
X77549641Y-53042604D01*
X77568393Y-53010126D01*
X77598222Y-53000000D01*
X78450500Y-53000000D01*
X78485148Y-53014352D01*
X78499500Y-53049000D01*
X78499500Y-69998512D01*
X78499411Y-70001471D01*
X78481454Y-70298328D01*
X78480740Y-70304201D01*
X78427403Y-70595253D01*
X78425987Y-70600999D01*
X78337954Y-70883505D01*
X78335856Y-70889037D01*
X78214414Y-71158871D01*
X78211664Y-71164111D01*
X78058580Y-71417342D01*
X78055219Y-71422211D01*
X77872730Y-71655142D01*
X77868806Y-71659571D01*
X77659571Y-71868806D01*
X77655142Y-71872730D01*
X77422211Y-72055219D01*
X77417342Y-72058580D01*
X77164111Y-72211664D01*
X77158871Y-72214414D01*
X76889037Y-72335856D01*
X76883505Y-72337954D01*
X76600999Y-72425987D01*
X76595253Y-72427403D01*
X76304201Y-72480740D01*
X76298328Y-72481454D01*
X76001471Y-72499411D01*
X75998512Y-72499500D01*
X33001488Y-72499500D01*
X32998529Y-72499411D01*
X32701671Y-72481454D01*
X32695798Y-72480740D01*
X32404746Y-72427403D01*
X32399000Y-72425987D01*
X32116494Y-72337954D01*
X32110962Y-72335856D01*
X31841128Y-72214414D01*
X31835888Y-72211664D01*
X31582657Y-72058580D01*
X31577788Y-72055219D01*
X31344857Y-71872730D01*
X31340428Y-71868806D01*
X31131193Y-71659571D01*
X31127269Y-71655142D01*
X31064744Y-71575335D01*
X30944780Y-71422211D01*
X30941419Y-71417342D01*
X30859494Y-71281822D01*
X30788331Y-71164105D01*
X30785589Y-71158878D01*
X30664142Y-70889035D01*
X30662045Y-70883505D01*
X30654338Y-70858771D01*
X30574009Y-70600990D01*
X30572596Y-70595253D01*
X30570084Y-70581546D01*
X30519258Y-70304199D01*
X30518545Y-70298327D01*
X30500589Y-70001470D01*
X30500545Y-70000000D01*
X30844475Y-70000000D01*
X30864551Y-70293512D01*
X30924405Y-70581546D01*
X30930313Y-70598170D01*
X31022928Y-70858764D01*
X31147538Y-71099248D01*
X31158276Y-71119972D01*
X31158280Y-71119980D01*
X31201145Y-71180705D01*
X31327935Y-71360326D01*
X31528740Y-71575335D01*
X31756951Y-71760999D01*
X32008318Y-71913859D01*
X32278159Y-72031067D01*
X32561445Y-72110440D01*
X32812841Y-72144993D01*
X32852901Y-72150500D01*
X32852902Y-72150500D01*
X33147099Y-72150500D01*
X33182318Y-72145659D01*
X33438555Y-72110440D01*
X33721841Y-72031067D01*
X33991682Y-71913859D01*
X34243049Y-71760999D01*
X34471260Y-71575335D01*
X34672065Y-71360326D01*
X34841722Y-71119976D01*
X34977072Y-70858764D01*
X35075592Y-70581554D01*
X35093181Y-70496914D01*
X35135448Y-70293512D01*
X35136733Y-70274720D01*
X35155525Y-70000000D01*
X35143577Y-69825322D01*
X37279500Y-69825322D01*
X37279500Y-71574677D01*
X37294033Y-71647739D01*
X37349398Y-71730601D01*
X37397924Y-71763024D01*
X37432260Y-71785966D01*
X37505326Y-71800500D01*
X39254674Y-71800500D01*
X39327740Y-71785966D01*
X39410601Y-71730601D01*
X39465966Y-71647740D01*
X39480500Y-71574674D01*
X39480500Y-70700000D01*
X39814785Y-70700000D01*
X39833602Y-70903079D01*
X39833603Y-70903085D01*
X39889417Y-71099248D01*
X39889420Y-71099255D01*
X39980325Y-71281818D01*
X39980328Y-71281822D01*
X40103233Y-71444576D01*
X40103236Y-71444579D01*
X40253954Y-71581977D01*
X40253955Y-71581978D01*
X40253959Y-71581981D01*
X40427363Y-71689348D01*
X40617544Y-71763024D01*
X40818024Y-71800500D01*
X40818026Y-71800500D01*
X41021974Y-71800500D01*
X41021976Y-71800500D01*
X41222456Y-71763024D01*
X41412637Y-71689348D01*
X41586041Y-71581981D01*
X41736764Y-71444579D01*
X41859673Y-71281821D01*
X41950582Y-71099250D01*
X42006397Y-70903083D01*
X42025215Y-70700000D01*
X42354784Y-70700000D01*
X42373601Y-70903079D01*
X42373602Y-70903085D01*
X42429416Y-71099248D01*
X42429419Y-71099255D01*
X42520324Y-71281818D01*
X42520327Y-71281822D01*
X42643232Y-71444576D01*
X42643235Y-71444579D01*
X42793953Y-71581977D01*
X42793954Y-71581978D01*
X42793958Y-71581981D01*
X42967362Y-71689348D01*
X43157543Y-71763024D01*
X43358023Y-71800500D01*
X43358025Y-71800500D01*
X43561973Y-71800500D01*
X43561975Y-71800500D01*
X43762455Y-71763024D01*
X43952636Y-71689348D01*
X44126040Y-71581981D01*
X44276763Y-71444579D01*
X44399672Y-71281821D01*
X44490581Y-71099250D01*
X44546396Y-70903083D01*
X44565214Y-70700000D01*
X44894785Y-70700000D01*
X44913602Y-70903079D01*
X44913603Y-70903085D01*
X44969417Y-71099248D01*
X44969420Y-71099255D01*
X45060325Y-71281818D01*
X45060328Y-71281822D01*
X45183233Y-71444576D01*
X45183236Y-71444579D01*
X45333954Y-71581977D01*
X45333955Y-71581978D01*
X45333959Y-71581981D01*
X45507363Y-71689348D01*
X45697544Y-71763024D01*
X45898024Y-71800500D01*
X45898026Y-71800500D01*
X46101974Y-71800500D01*
X46101976Y-71800500D01*
X46302456Y-71763024D01*
X46492637Y-71689348D01*
X46666041Y-71581981D01*
X46816764Y-71444579D01*
X46939673Y-71281821D01*
X47030582Y-71099250D01*
X47086397Y-70903083D01*
X47105215Y-70700000D01*
X47086397Y-70496917D01*
X47030582Y-70300750D01*
X46939673Y-70118179D01*
X46878218Y-70036800D01*
X46816766Y-69955423D01*
X46816763Y-69955420D01*
X46674053Y-69825322D01*
X49279500Y-69825322D01*
X49279500Y-71574677D01*
X49294033Y-71647739D01*
X49349398Y-71730601D01*
X49397924Y-71763024D01*
X49432260Y-71785966D01*
X49505326Y-71800500D01*
X51254674Y-71800500D01*
X51327740Y-71785966D01*
X51410601Y-71730601D01*
X51465966Y-71647740D01*
X51480500Y-71574674D01*
X51480500Y-70700000D01*
X51814785Y-70700000D01*
X51833602Y-70903079D01*
X51833603Y-70903085D01*
X51889417Y-71099248D01*
X51889420Y-71099255D01*
X51980325Y-71281818D01*
X51980328Y-71281822D01*
X52103233Y-71444576D01*
X52103236Y-71444579D01*
X52253954Y-71581977D01*
X52253955Y-71581978D01*
X52253959Y-71581981D01*
X52427363Y-71689348D01*
X52617544Y-71763024D01*
X52818024Y-71800500D01*
X52818026Y-71800500D01*
X53021974Y-71800500D01*
X53021976Y-71800500D01*
X53222456Y-71763024D01*
X53412637Y-71689348D01*
X53586041Y-71581981D01*
X53736764Y-71444579D01*
X53859673Y-71281821D01*
X53950582Y-71099250D01*
X54006397Y-70903083D01*
X54025215Y-70700000D01*
X54354784Y-70700000D01*
X54373601Y-70903079D01*
X54373602Y-70903085D01*
X54429416Y-71099248D01*
X54429419Y-71099255D01*
X54520324Y-71281818D01*
X54520327Y-71281822D01*
X54643232Y-71444576D01*
X54643235Y-71444579D01*
X54793953Y-71581977D01*
X54793954Y-71581978D01*
X54793958Y-71581981D01*
X54967362Y-71689348D01*
X55157543Y-71763024D01*
X55358023Y-71800500D01*
X55358025Y-71800500D01*
X55561973Y-71800500D01*
X55561975Y-71800500D01*
X55762455Y-71763024D01*
X55952636Y-71689348D01*
X56126040Y-71581981D01*
X56276763Y-71444579D01*
X56399672Y-71281821D01*
X56490581Y-71099250D01*
X56546396Y-70903083D01*
X56565214Y-70700000D01*
X56894785Y-70700000D01*
X56913602Y-70903079D01*
X56913603Y-70903085D01*
X56969417Y-71099248D01*
X56969420Y-71099255D01*
X57060325Y-71281818D01*
X57060328Y-71281822D01*
X57183233Y-71444576D01*
X57183236Y-71444579D01*
X57333954Y-71581977D01*
X57333955Y-71581978D01*
X57333959Y-71581981D01*
X57507363Y-71689348D01*
X57697544Y-71763024D01*
X57898024Y-71800500D01*
X57898026Y-71800500D01*
X58101974Y-71800500D01*
X58101976Y-71800500D01*
X58302456Y-71763024D01*
X58492637Y-71689348D01*
X58666041Y-71581981D01*
X58816764Y-71444579D01*
X58939673Y-71281821D01*
X59030582Y-71099250D01*
X59086397Y-70903083D01*
X59105215Y-70700000D01*
X59086397Y-70496917D01*
X59030582Y-70300750D01*
X58939673Y-70118179D01*
X58878218Y-70036800D01*
X58816766Y-69955423D01*
X58816763Y-69955420D01*
X58674053Y-69825322D01*
X61279500Y-69825322D01*
X61279500Y-71574677D01*
X61294033Y-71647739D01*
X61349398Y-71730601D01*
X61397924Y-71763024D01*
X61432260Y-71785966D01*
X61505326Y-71800500D01*
X63254674Y-71800500D01*
X63327740Y-71785966D01*
X63410601Y-71730601D01*
X63465966Y-71647740D01*
X63480500Y-71574674D01*
X63480500Y-70700000D01*
X63814785Y-70700000D01*
X63833602Y-70903079D01*
X63833603Y-70903085D01*
X63889417Y-71099248D01*
X63889420Y-71099255D01*
X63980325Y-71281818D01*
X63980328Y-71281822D01*
X64103233Y-71444576D01*
X64103236Y-71444579D01*
X64253954Y-71581977D01*
X64253955Y-71581978D01*
X64253959Y-71581981D01*
X64427363Y-71689348D01*
X64617544Y-71763024D01*
X64818024Y-71800500D01*
X64818026Y-71800500D01*
X65021974Y-71800500D01*
X65021976Y-71800500D01*
X65222456Y-71763024D01*
X65412637Y-71689348D01*
X65586041Y-71581981D01*
X65736764Y-71444579D01*
X65859673Y-71281821D01*
X65950582Y-71099250D01*
X66006397Y-70903083D01*
X66025215Y-70700000D01*
X66354784Y-70700000D01*
X66373601Y-70903079D01*
X66373602Y-70903085D01*
X66429416Y-71099248D01*
X66429419Y-71099255D01*
X66520324Y-71281818D01*
X66520327Y-71281822D01*
X66643232Y-71444576D01*
X66643235Y-71444579D01*
X66793953Y-71581977D01*
X66793954Y-71581978D01*
X66793958Y-71581981D01*
X66967362Y-71689348D01*
X67157543Y-71763024D01*
X67358023Y-71800500D01*
X67358025Y-71800500D01*
X67561973Y-71800500D01*
X67561975Y-71800500D01*
X67762455Y-71763024D01*
X67952636Y-71689348D01*
X68126040Y-71581981D01*
X68276763Y-71444579D01*
X68399672Y-71281821D01*
X68490581Y-71099250D01*
X68546396Y-70903083D01*
X68565214Y-70700000D01*
X68894785Y-70700000D01*
X68913602Y-70903079D01*
X68913603Y-70903085D01*
X68969417Y-71099248D01*
X68969420Y-71099255D01*
X69060325Y-71281818D01*
X69060328Y-71281822D01*
X69183233Y-71444576D01*
X69183236Y-71444579D01*
X69333954Y-71581977D01*
X69333955Y-71581978D01*
X69333959Y-71581981D01*
X69507363Y-71689348D01*
X69697544Y-71763024D01*
X69898024Y-71800500D01*
X69898026Y-71800500D01*
X70101974Y-71800500D01*
X70101976Y-71800500D01*
X70302456Y-71763024D01*
X70492637Y-71689348D01*
X70666041Y-71581981D01*
X70816764Y-71444579D01*
X70939673Y-71281821D01*
X71030582Y-71099250D01*
X71086397Y-70903083D01*
X71105215Y-70700000D01*
X71086397Y-70496917D01*
X71030582Y-70300750D01*
X70939673Y-70118179D01*
X70878218Y-70036800D01*
X70850428Y-70000000D01*
X73844475Y-70000000D01*
X73864551Y-70293512D01*
X73924405Y-70581546D01*
X73930313Y-70598170D01*
X74022928Y-70858764D01*
X74147538Y-71099248D01*
X74158276Y-71119972D01*
X74158280Y-71119980D01*
X74201145Y-71180705D01*
X74327935Y-71360326D01*
X74528740Y-71575335D01*
X74756951Y-71760999D01*
X75008318Y-71913859D01*
X75278159Y-72031067D01*
X75561445Y-72110440D01*
X75812841Y-72144993D01*
X75852901Y-72150500D01*
X75852902Y-72150500D01*
X76147099Y-72150500D01*
X76182318Y-72145659D01*
X76438555Y-72110440D01*
X76721841Y-72031067D01*
X76991682Y-71913859D01*
X77243049Y-71760999D01*
X77471260Y-71575335D01*
X77672065Y-71360326D01*
X77841722Y-71119976D01*
X77977072Y-70858764D01*
X78075592Y-70581554D01*
X78093181Y-70496914D01*
X78135448Y-70293512D01*
X78136733Y-70274720D01*
X78155525Y-70000000D01*
X78135448Y-69706489D01*
X78127741Y-69669399D01*
X78075594Y-69418453D01*
X78075592Y-69418446D01*
X77977072Y-69141236D01*
X77841722Y-68880024D01*
X77841720Y-68880021D01*
X77841719Y-68880019D01*
X77787189Y-68802768D01*
X77672065Y-68639674D01*
X77471260Y-68424665D01*
X77243049Y-68239001D01*
X76991682Y-68086141D01*
X76991678Y-68086139D01*
X76991676Y-68086138D01*
X76721842Y-67968933D01*
X76438560Y-67889561D01*
X76438555Y-67889560D01*
X76147099Y-67849500D01*
X76147098Y-67849500D01*
X75852902Y-67849500D01*
X75852901Y-67849500D01*
X75561444Y-67889560D01*
X75561439Y-67889561D01*
X75278157Y-67968933D01*
X75008323Y-68086138D01*
X74756949Y-68239002D01*
X74528748Y-68424658D01*
X74528737Y-68424668D01*
X74327939Y-68639669D01*
X74327933Y-68639677D01*
X74158280Y-68880019D01*
X74158276Y-68880027D01*
X74022932Y-69141228D01*
X74022928Y-69141237D01*
X73924405Y-69418453D01*
X73864551Y-69706487D01*
X73844475Y-70000000D01*
X70850428Y-70000000D01*
X70816766Y-69955423D01*
X70816763Y-69955420D01*
X70666045Y-69818022D01*
X70666042Y-69818020D01*
X70666041Y-69818019D01*
X70492637Y-69710652D01*
X70492634Y-69710651D01*
X70492633Y-69710650D01*
X70302462Y-69636978D01*
X70302460Y-69636977D01*
X70302456Y-69636976D01*
X70101976Y-69599500D01*
X69898024Y-69599500D01*
X69697544Y-69636976D01*
X69697540Y-69636977D01*
X69697537Y-69636978D01*
X69507366Y-69710650D01*
X69333954Y-69818022D01*
X69183236Y-69955420D01*
X69183233Y-69955423D01*
X69060328Y-70118177D01*
X69060325Y-70118181D01*
X68969420Y-70300744D01*
X68969417Y-70300751D01*
X68913603Y-70496914D01*
X68913602Y-70496920D01*
X68894785Y-70700000D01*
X68565214Y-70700000D01*
X68546396Y-70496917D01*
X68490581Y-70300750D01*
X68399672Y-70118179D01*
X68338217Y-70036800D01*
X68276765Y-69955423D01*
X68276762Y-69955420D01*
X68126044Y-69818022D01*
X68126041Y-69818020D01*
X68126040Y-69818019D01*
X67952636Y-69710652D01*
X67952633Y-69710651D01*
X67952632Y-69710650D01*
X67762461Y-69636978D01*
X67762459Y-69636977D01*
X67762455Y-69636976D01*
X67561975Y-69599500D01*
X67358023Y-69599500D01*
X67157543Y-69636976D01*
X67157539Y-69636977D01*
X67157536Y-69636978D01*
X66967365Y-69710650D01*
X66793953Y-69818022D01*
X66643235Y-69955420D01*
X66643232Y-69955423D01*
X66520327Y-70118177D01*
X66520324Y-70118181D01*
X66429419Y-70300744D01*
X66429416Y-70300751D01*
X66373602Y-70496914D01*
X66373601Y-70496920D01*
X66354784Y-70700000D01*
X66025215Y-70700000D01*
X66006397Y-70496917D01*
X65950582Y-70300750D01*
X65859673Y-70118179D01*
X65798218Y-70036800D01*
X65736766Y-69955423D01*
X65736763Y-69955420D01*
X65586045Y-69818022D01*
X65586042Y-69818020D01*
X65586041Y-69818019D01*
X65412637Y-69710652D01*
X65412634Y-69710651D01*
X65412633Y-69710650D01*
X65222462Y-69636978D01*
X65222460Y-69636977D01*
X65222456Y-69636976D01*
X65021976Y-69599500D01*
X64818024Y-69599500D01*
X64617544Y-69636976D01*
X64617540Y-69636977D01*
X64617537Y-69636978D01*
X64427366Y-69710650D01*
X64253954Y-69818022D01*
X64103236Y-69955420D01*
X64103233Y-69955423D01*
X63980328Y-70118177D01*
X63980325Y-70118181D01*
X63889420Y-70300744D01*
X63889417Y-70300751D01*
X63833603Y-70496914D01*
X63833602Y-70496920D01*
X63814785Y-70700000D01*
X63480500Y-70700000D01*
X63480500Y-69825326D01*
X63465966Y-69752260D01*
X63438164Y-69710650D01*
X63410601Y-69669398D01*
X63327739Y-69614033D01*
X63254677Y-69599500D01*
X63254674Y-69599500D01*
X61505326Y-69599500D01*
X61505322Y-69599500D01*
X61432260Y-69614033D01*
X61349398Y-69669398D01*
X61294033Y-69752260D01*
X61279500Y-69825322D01*
X58674053Y-69825322D01*
X58666045Y-69818022D01*
X58666042Y-69818020D01*
X58666041Y-69818019D01*
X58492637Y-69710652D01*
X58492634Y-69710651D01*
X58492633Y-69710650D01*
X58302462Y-69636978D01*
X58302460Y-69636977D01*
X58302456Y-69636976D01*
X58101976Y-69599500D01*
X57898024Y-69599500D01*
X57697544Y-69636976D01*
X57697540Y-69636977D01*
X57697537Y-69636978D01*
X57507366Y-69710650D01*
X57333954Y-69818022D01*
X57183236Y-69955420D01*
X57183233Y-69955423D01*
X57060328Y-70118177D01*
X57060325Y-70118181D01*
X56969420Y-70300744D01*
X56969417Y-70300751D01*
X56913603Y-70496914D01*
X56913602Y-70496920D01*
X56894785Y-70700000D01*
X56565214Y-70700000D01*
X56546396Y-70496917D01*
X56490581Y-70300750D01*
X56399672Y-70118179D01*
X56338217Y-70036800D01*
X56276765Y-69955423D01*
X56276762Y-69955420D01*
X56126044Y-69818022D01*
X56126041Y-69818020D01*
X56126040Y-69818019D01*
X55952636Y-69710652D01*
X55952633Y-69710651D01*
X55952632Y-69710650D01*
X55762461Y-69636978D01*
X55762459Y-69636977D01*
X55762455Y-69636976D01*
X55561975Y-69599500D01*
X55358023Y-69599500D01*
X55157543Y-69636976D01*
X55157539Y-69636977D01*
X55157536Y-69636978D01*
X54967365Y-69710650D01*
X54793953Y-69818022D01*
X54643235Y-69955420D01*
X54643232Y-69955423D01*
X54520327Y-70118177D01*
X54520324Y-70118181D01*
X54429419Y-70300744D01*
X54429416Y-70300751D01*
X54373602Y-70496914D01*
X54373601Y-70496920D01*
X54354784Y-70700000D01*
X54025215Y-70700000D01*
X54006397Y-70496917D01*
X53950582Y-70300750D01*
X53859673Y-70118179D01*
X53798218Y-70036800D01*
X53736766Y-69955423D01*
X53736763Y-69955420D01*
X53586045Y-69818022D01*
X53586042Y-69818020D01*
X53586041Y-69818019D01*
X53412637Y-69710652D01*
X53412634Y-69710651D01*
X53412633Y-69710650D01*
X53222462Y-69636978D01*
X53222460Y-69636977D01*
X53222456Y-69636976D01*
X53021976Y-69599500D01*
X52818024Y-69599500D01*
X52617544Y-69636976D01*
X52617540Y-69636977D01*
X52617537Y-69636978D01*
X52427366Y-69710650D01*
X52253954Y-69818022D01*
X52103236Y-69955420D01*
X52103233Y-69955423D01*
X51980328Y-70118177D01*
X51980325Y-70118181D01*
X51889420Y-70300744D01*
X51889417Y-70300751D01*
X51833603Y-70496914D01*
X51833602Y-70496920D01*
X51814785Y-70700000D01*
X51480500Y-70700000D01*
X51480500Y-69825326D01*
X51465966Y-69752260D01*
X51438164Y-69710650D01*
X51410601Y-69669398D01*
X51327739Y-69614033D01*
X51254677Y-69599500D01*
X51254674Y-69599500D01*
X49505326Y-69599500D01*
X49505322Y-69599500D01*
X49432260Y-69614033D01*
X49349398Y-69669398D01*
X49294033Y-69752260D01*
X49279500Y-69825322D01*
X46674053Y-69825322D01*
X46666045Y-69818022D01*
X46666042Y-69818020D01*
X46666041Y-69818019D01*
X46492637Y-69710652D01*
X46492634Y-69710651D01*
X46492633Y-69710650D01*
X46302462Y-69636978D01*
X46302460Y-69636977D01*
X46302456Y-69636976D01*
X46101976Y-69599500D01*
X45898024Y-69599500D01*
X45697544Y-69636976D01*
X45697540Y-69636977D01*
X45697537Y-69636978D01*
X45507366Y-69710650D01*
X45333954Y-69818022D01*
X45183236Y-69955420D01*
X45183233Y-69955423D01*
X45060328Y-70118177D01*
X45060325Y-70118181D01*
X44969420Y-70300744D01*
X44969417Y-70300751D01*
X44913603Y-70496914D01*
X44913602Y-70496920D01*
X44894785Y-70700000D01*
X44565214Y-70700000D01*
X44546396Y-70496917D01*
X44490581Y-70300750D01*
X44399672Y-70118179D01*
X44338217Y-70036800D01*
X44276765Y-69955423D01*
X44276762Y-69955420D01*
X44126044Y-69818022D01*
X44126041Y-69818020D01*
X44126040Y-69818019D01*
X43952636Y-69710652D01*
X43952633Y-69710651D01*
X43952632Y-69710650D01*
X43762461Y-69636978D01*
X43762459Y-69636977D01*
X43762455Y-69636976D01*
X43561975Y-69599500D01*
X43358023Y-69599500D01*
X43157543Y-69636976D01*
X43157539Y-69636977D01*
X43157536Y-69636978D01*
X42967365Y-69710650D01*
X42793953Y-69818022D01*
X42643235Y-69955420D01*
X42643232Y-69955423D01*
X42520327Y-70118177D01*
X42520324Y-70118181D01*
X42429419Y-70300744D01*
X42429416Y-70300751D01*
X42373602Y-70496914D01*
X42373601Y-70496920D01*
X42354784Y-70700000D01*
X42025215Y-70700000D01*
X42006397Y-70496917D01*
X41950582Y-70300750D01*
X41859673Y-70118179D01*
X41798218Y-70036800D01*
X41736766Y-69955423D01*
X41736763Y-69955420D01*
X41586045Y-69818022D01*
X41586042Y-69818020D01*
X41586041Y-69818019D01*
X41412637Y-69710652D01*
X41412634Y-69710651D01*
X41412633Y-69710650D01*
X41222462Y-69636978D01*
X41222460Y-69636977D01*
X41222456Y-69636976D01*
X41021976Y-69599500D01*
X40818024Y-69599500D01*
X40617544Y-69636976D01*
X40617540Y-69636977D01*
X40617537Y-69636978D01*
X40427366Y-69710650D01*
X40253954Y-69818022D01*
X40103236Y-69955420D01*
X40103233Y-69955423D01*
X39980328Y-70118177D01*
X39980325Y-70118181D01*
X39889420Y-70300744D01*
X39889417Y-70300751D01*
X39833603Y-70496914D01*
X39833602Y-70496920D01*
X39814785Y-70700000D01*
X39480500Y-70700000D01*
X39480500Y-69825326D01*
X39465966Y-69752260D01*
X39438164Y-69710650D01*
X39410601Y-69669398D01*
X39327739Y-69614033D01*
X39254677Y-69599500D01*
X39254674Y-69599500D01*
X37505326Y-69599500D01*
X37505322Y-69599500D01*
X37432260Y-69614033D01*
X37349398Y-69669398D01*
X37294033Y-69752260D01*
X37279500Y-69825322D01*
X35143577Y-69825322D01*
X35135448Y-69706489D01*
X35127741Y-69669399D01*
X35075594Y-69418453D01*
X35075592Y-69418446D01*
X34977072Y-69141236D01*
X34841722Y-68880024D01*
X34841720Y-68880021D01*
X34841719Y-68880019D01*
X34787189Y-68802768D01*
X34672065Y-68639674D01*
X34471260Y-68424665D01*
X34243049Y-68239001D01*
X33991682Y-68086141D01*
X33991678Y-68086139D01*
X33991676Y-68086138D01*
X33721842Y-67968933D01*
X33438560Y-67889561D01*
X33438555Y-67889560D01*
X33147099Y-67849500D01*
X33147098Y-67849500D01*
X32852902Y-67849500D01*
X32852901Y-67849500D01*
X32561444Y-67889560D01*
X32561439Y-67889561D01*
X32278157Y-67968933D01*
X32008323Y-68086138D01*
X31756949Y-68239002D01*
X31528748Y-68424658D01*
X31528737Y-68424668D01*
X31327939Y-68639669D01*
X31327933Y-68639677D01*
X31158280Y-68880019D01*
X31158276Y-68880027D01*
X31022932Y-69141228D01*
X31022928Y-69141237D01*
X30924405Y-69418453D01*
X30864551Y-69706487D01*
X30844475Y-70000000D01*
X30500545Y-70000000D01*
X30500500Y-69998512D01*
X30500500Y-64665322D01*
X30799500Y-64665322D01*
X30799500Y-66414677D01*
X30814033Y-66487739D01*
X30869398Y-66570601D01*
X30952260Y-66625966D01*
X31025326Y-66640500D01*
X32774674Y-66640500D01*
X32847740Y-66625966D01*
X32930601Y-66570601D01*
X32985966Y-66487740D01*
X33000500Y-66414674D01*
X33000500Y-65103881D01*
X47812471Y-65103881D01*
X47831390Y-65247589D01*
X47886857Y-65381501D01*
X47886860Y-65381506D01*
X47900475Y-65399250D01*
X47975100Y-65496502D01*
X48090096Y-65584742D01*
X48090098Y-65584742D01*
X48090100Y-65584744D01*
X48224012Y-65640211D01*
X48367721Y-65659131D01*
X48511430Y-65640211D01*
X48645346Y-65584742D01*
X48671718Y-65564505D01*
X48701546Y-65554381D01*
X56955425Y-65554381D01*
X56955428Y-65554381D01*
X56958518Y-65553552D01*
X56977599Y-65552300D01*
X57000000Y-65555250D01*
X57143709Y-65536330D01*
X57277625Y-65480861D01*
X57392621Y-65392621D01*
X57480861Y-65277625D01*
X57536330Y-65143709D01*
X57555250Y-65000000D01*
X75894785Y-65000000D01*
X75913602Y-65203079D01*
X75913603Y-65203085D01*
X75969417Y-65399248D01*
X75969420Y-65399255D01*
X76060325Y-65581818D01*
X76060326Y-65581820D01*
X76060327Y-65581821D01*
X76091054Y-65622510D01*
X76183233Y-65744576D01*
X76183236Y-65744579D01*
X76333954Y-65881977D01*
X76333955Y-65881978D01*
X76333959Y-65881981D01*
X76507363Y-65989348D01*
X76697544Y-66063024D01*
X76898024Y-66100500D01*
X76898026Y-66100500D01*
X77101974Y-66100500D01*
X77101976Y-66100500D01*
X77302456Y-66063024D01*
X77492637Y-65989348D01*
X77666041Y-65881981D01*
X77816764Y-65744579D01*
X77939673Y-65581821D01*
X78030582Y-65399250D01*
X78086397Y-65203083D01*
X78105215Y-65000000D01*
X78086397Y-64796917D01*
X78030582Y-64600750D01*
X77939673Y-64418179D01*
X77816764Y-64255421D01*
X77816763Y-64255420D01*
X77666045Y-64118022D01*
X77666042Y-64118020D01*
X77666041Y-64118019D01*
X77492637Y-64010652D01*
X77492634Y-64010651D01*
X77492633Y-64010650D01*
X77302462Y-63936978D01*
X77302460Y-63936977D01*
X77302456Y-63936976D01*
X77101976Y-63899500D01*
X76898024Y-63899500D01*
X76697544Y-63936976D01*
X76697540Y-63936977D01*
X76697537Y-63936978D01*
X76507366Y-64010650D01*
X76333954Y-64118022D01*
X76183236Y-64255420D01*
X76183233Y-64255423D01*
X76060328Y-64418177D01*
X76060325Y-64418181D01*
X75969420Y-64600744D01*
X75969417Y-64600751D01*
X75913603Y-64796914D01*
X75913602Y-64796920D01*
X75894785Y-65000000D01*
X57555250Y-65000000D01*
X57536330Y-64856291D01*
X57480861Y-64722375D01*
X57392621Y-64607379D01*
X57392618Y-64607377D01*
X57277625Y-64519139D01*
X57277620Y-64519136D01*
X57143708Y-64463669D01*
X57000000Y-64444750D01*
X56856291Y-64463669D01*
X56722379Y-64519136D01*
X56722374Y-64519139D01*
X56607380Y-64607377D01*
X56586790Y-64634211D01*
X56554311Y-64652962D01*
X56547916Y-64653381D01*
X48701546Y-64653381D01*
X48671718Y-64643256D01*
X48645346Y-64623020D01*
X48645343Y-64623019D01*
X48645341Y-64623017D01*
X48511429Y-64567550D01*
X48367721Y-64548631D01*
X48224012Y-64567550D01*
X48090100Y-64623017D01*
X48090095Y-64623020D01*
X47975100Y-64711259D01*
X47975099Y-64711260D01*
X47886860Y-64826255D01*
X47886857Y-64826260D01*
X47831390Y-64960172D01*
X47812471Y-65103881D01*
X33000500Y-65103881D01*
X33000500Y-64665326D01*
X32985966Y-64592260D01*
X32956815Y-64548631D01*
X32930601Y-64509398D01*
X32847739Y-64454033D01*
X32774677Y-64439500D01*
X32774674Y-64439500D01*
X31025326Y-64439500D01*
X31025322Y-64439500D01*
X30952260Y-64454033D01*
X30869398Y-64509398D01*
X30814033Y-64592260D01*
X30799500Y-64665322D01*
X30500500Y-64665322D01*
X30500500Y-63000000D01*
X30794785Y-63000000D01*
X30813602Y-63203079D01*
X30813603Y-63203085D01*
X30869417Y-63399248D01*
X30869420Y-63399255D01*
X30960325Y-63581818D01*
X30960328Y-63581822D01*
X31083233Y-63744576D01*
X31083236Y-63744579D01*
X31233954Y-63881977D01*
X31233955Y-63881978D01*
X31233959Y-63881981D01*
X31407363Y-63989348D01*
X31597544Y-64063024D01*
X31798024Y-64100500D01*
X31798026Y-64100500D01*
X32001974Y-64100500D01*
X32001976Y-64100500D01*
X32202456Y-64063024D01*
X32392637Y-63989348D01*
X32566041Y-63881981D01*
X32716764Y-63744579D01*
X32839673Y-63581821D01*
X32930582Y-63399250D01*
X32986397Y-63203083D01*
X33005215Y-63000000D01*
X32986397Y-62796917D01*
X32930582Y-62600750D01*
X32860497Y-62460000D01*
X75894785Y-62460000D01*
X75913602Y-62663079D01*
X75913603Y-62663085D01*
X75969417Y-62859248D01*
X75969420Y-62859255D01*
X76060325Y-63041818D01*
X76060328Y-63041822D01*
X76183233Y-63204576D01*
X76183236Y-63204579D01*
X76333954Y-63341977D01*
X76333955Y-63341978D01*
X76333959Y-63341981D01*
X76507363Y-63449348D01*
X76697544Y-63523024D01*
X76898024Y-63560500D01*
X76898026Y-63560500D01*
X77101974Y-63560500D01*
X77101976Y-63560500D01*
X77302456Y-63523024D01*
X77492637Y-63449348D01*
X77666041Y-63341981D01*
X77816764Y-63204579D01*
X77939673Y-63041821D01*
X78030582Y-62859250D01*
X78086397Y-62663083D01*
X78105215Y-62460000D01*
X78086397Y-62256917D01*
X78030582Y-62060750D01*
X77939673Y-61878179D01*
X77816764Y-61715421D01*
X77816763Y-61715420D01*
X77666045Y-61578022D01*
X77666042Y-61578020D01*
X77666041Y-61578019D01*
X77492637Y-61470652D01*
X77492634Y-61470651D01*
X77492633Y-61470650D01*
X77302462Y-61396978D01*
X77302460Y-61396977D01*
X77302456Y-61396976D01*
X77101976Y-61359500D01*
X76898024Y-61359500D01*
X76697544Y-61396976D01*
X76697540Y-61396977D01*
X76697537Y-61396978D01*
X76507366Y-61470650D01*
X76333954Y-61578022D01*
X76183236Y-61715420D01*
X76183233Y-61715423D01*
X76060328Y-61878177D01*
X76060325Y-61878181D01*
X75969420Y-62060744D01*
X75969417Y-62060751D01*
X75913603Y-62256914D01*
X75913602Y-62256920D01*
X75894785Y-62460000D01*
X32860497Y-62460000D01*
X32839673Y-62418179D01*
X32717894Y-62256917D01*
X32716766Y-62255423D01*
X32716763Y-62255420D01*
X32566045Y-62118022D01*
X32566042Y-62118020D01*
X32566041Y-62118019D01*
X32392637Y-62010652D01*
X32392634Y-62010651D01*
X32392633Y-62010650D01*
X32202462Y-61936978D01*
X32202460Y-61936977D01*
X32202456Y-61936976D01*
X32001976Y-61899500D01*
X31798024Y-61899500D01*
X31597544Y-61936976D01*
X31597540Y-61936977D01*
X31597537Y-61936978D01*
X31407366Y-62010650D01*
X31233954Y-62118022D01*
X31083236Y-62255420D01*
X31083233Y-62255423D01*
X30960328Y-62418177D01*
X30960325Y-62418181D01*
X30869420Y-62600744D01*
X30869417Y-62600751D01*
X30813603Y-62796914D01*
X30813602Y-62796920D01*
X30794785Y-63000000D01*
X30500500Y-63000000D01*
X30500500Y-60460001D01*
X30794785Y-60460001D01*
X30813602Y-60663080D01*
X30813603Y-60663086D01*
X30869417Y-60859249D01*
X30869420Y-60859256D01*
X30960325Y-61041819D01*
X30960328Y-61041823D01*
X31083233Y-61204577D01*
X31083236Y-61204580D01*
X31233954Y-61341978D01*
X31233955Y-61341979D01*
X31233959Y-61341982D01*
X31407363Y-61449349D01*
X31597544Y-61523025D01*
X31798024Y-61560501D01*
X31798026Y-61560501D01*
X32001974Y-61560501D01*
X32001976Y-61560501D01*
X32202456Y-61523025D01*
X32392637Y-61449349D01*
X32566041Y-61341982D01*
X32716764Y-61204580D01*
X32839673Y-61041822D01*
X32930582Y-60859251D01*
X32986397Y-60663084D01*
X33005215Y-60460001D01*
X32986397Y-60256918D01*
X32930582Y-60060751D01*
X32839673Y-59878180D01*
X32716764Y-59715422D01*
X32716763Y-59715421D01*
X32566045Y-59578023D01*
X32566042Y-59578021D01*
X32566041Y-59578020D01*
X32392637Y-59470653D01*
X32392634Y-59470652D01*
X32392633Y-59470651D01*
X32202462Y-59396979D01*
X32202460Y-59396978D01*
X32202456Y-59396977D01*
X32001976Y-59359501D01*
X31798024Y-59359501D01*
X31597544Y-59396977D01*
X31597540Y-59396978D01*
X31597537Y-59396979D01*
X31407366Y-59470651D01*
X31233954Y-59578023D01*
X31083236Y-59715421D01*
X31083233Y-59715424D01*
X30960328Y-59878178D01*
X30960325Y-59878182D01*
X30869420Y-60060745D01*
X30869417Y-60060752D01*
X30813603Y-60256915D01*
X30813602Y-60256921D01*
X30794785Y-60460001D01*
X30500500Y-60460001D01*
X30500500Y-59045322D01*
X75899500Y-59045322D01*
X75899500Y-60794677D01*
X75914033Y-60867739D01*
X75969398Y-60950601D01*
X76052260Y-61005966D01*
X76125326Y-61020500D01*
X77874674Y-61020500D01*
X77947740Y-61005966D01*
X78030601Y-60950601D01*
X78085966Y-60867740D01*
X78100500Y-60794674D01*
X78100500Y-59045326D01*
X78085966Y-58972260D01*
X78043931Y-58909349D01*
X78030601Y-58889398D01*
X77947739Y-58834033D01*
X77874677Y-58819500D01*
X77874674Y-58819500D01*
X76125326Y-58819500D01*
X76125322Y-58819500D01*
X76052260Y-58834033D01*
X75969398Y-58889398D01*
X75914033Y-58972260D01*
X75899500Y-59045322D01*
X30500500Y-59045322D01*
X30500500Y-57920000D01*
X30794785Y-57920000D01*
X30813602Y-58123079D01*
X30813603Y-58123085D01*
X30869417Y-58319248D01*
X30869420Y-58319255D01*
X30960325Y-58501818D01*
X30960328Y-58501822D01*
X31083233Y-58664576D01*
X31083236Y-58664579D01*
X31233954Y-58801977D01*
X31233955Y-58801978D01*
X31233959Y-58801981D01*
X31407363Y-58909348D01*
X31597544Y-58983024D01*
X31798024Y-59020500D01*
X31798026Y-59020500D01*
X32001974Y-59020500D01*
X32001976Y-59020500D01*
X32202456Y-58983024D01*
X32392637Y-58909348D01*
X32566041Y-58801981D01*
X32716764Y-58664579D01*
X32839673Y-58501821D01*
X32930582Y-58319250D01*
X32986397Y-58123083D01*
X33005215Y-57920000D01*
X32986397Y-57716917D01*
X32930582Y-57520750D01*
X32839673Y-57338179D01*
X32716764Y-57175421D01*
X32716763Y-57175420D01*
X32566045Y-57038022D01*
X32566042Y-57038020D01*
X32566041Y-57038019D01*
X32392637Y-56930652D01*
X32392634Y-56930651D01*
X32392633Y-56930650D01*
X32202462Y-56856978D01*
X32202460Y-56856977D01*
X32202456Y-56856976D01*
X32001976Y-56819500D01*
X31798024Y-56819500D01*
X31597544Y-56856976D01*
X31597540Y-56856977D01*
X31597537Y-56856978D01*
X31407366Y-56930650D01*
X31233954Y-57038022D01*
X31083236Y-57175420D01*
X31083233Y-57175423D01*
X30960328Y-57338177D01*
X30960325Y-57338181D01*
X30869420Y-57520744D01*
X30869417Y-57520751D01*
X30813603Y-57716914D01*
X30813602Y-57716920D01*
X30794785Y-57920000D01*
X30500500Y-57920000D01*
X30500500Y-53000000D01*
X52694750Y-53000000D01*
X52713669Y-53143708D01*
X52769136Y-53277620D01*
X52769139Y-53277625D01*
X52857379Y-53392621D01*
X52972375Y-53480861D01*
X52972377Y-53480861D01*
X52972379Y-53480863D01*
X53018581Y-53500000D01*
X53106291Y-53536330D01*
X53139245Y-53540668D01*
X53167498Y-53554601D01*
X54535148Y-54922251D01*
X54549500Y-54956899D01*
X54549500Y-57166173D01*
X54539375Y-57196002D01*
X54519139Y-57222375D01*
X54463669Y-57356291D01*
X54444750Y-57500000D01*
X54463669Y-57643708D01*
X54519136Y-57777620D01*
X54519139Y-57777625D01*
X54607379Y-57892621D01*
X54722375Y-57980861D01*
X54722377Y-57980861D01*
X54722379Y-57980863D01*
X54856291Y-58036330D01*
X55000000Y-58055250D01*
X55143709Y-58036330D01*
X55277625Y-57980861D01*
X55392621Y-57892621D01*
X55480861Y-57777625D01*
X55536330Y-57643709D01*
X55555250Y-57500000D01*
X63944750Y-57500000D01*
X63963669Y-57643708D01*
X64019136Y-57777620D01*
X64019139Y-57777625D01*
X64107379Y-57892621D01*
X64222375Y-57980861D01*
X64222377Y-57980861D01*
X64222379Y-57980863D01*
X64356291Y-58036330D01*
X64500000Y-58055250D01*
X64643709Y-58036330D01*
X64777625Y-57980861D01*
X64803997Y-57960624D01*
X64833825Y-57950500D01*
X72666175Y-57950500D01*
X72696002Y-57960624D01*
X72722375Y-57980861D01*
X72722378Y-57980862D01*
X72722379Y-57980863D01*
X72856291Y-58036330D01*
X73000000Y-58055250D01*
X73143709Y-58036330D01*
X73277625Y-57980861D01*
X73392621Y-57892621D01*
X73480861Y-57777625D01*
X73536330Y-57643709D01*
X73555250Y-57500000D01*
X73536330Y-57356291D01*
X73480861Y-57222375D01*
X73392621Y-57107379D01*
X73277625Y-57019139D01*
X73277620Y-57019136D01*
X73143708Y-56963669D01*
X73000000Y-56944750D01*
X72856291Y-56963669D01*
X72722379Y-57019136D01*
X72722375Y-57019138D01*
X72722375Y-57019139D01*
X72696002Y-57039375D01*
X72666175Y-57049500D01*
X64833825Y-57049500D01*
X64803997Y-57039375D01*
X64777625Y-57019139D01*
X64777622Y-57019138D01*
X64777620Y-57019136D01*
X64643708Y-56963669D01*
X64500000Y-56944750D01*
X64356291Y-56963669D01*
X64222379Y-57019136D01*
X64222374Y-57019139D01*
X64107379Y-57107378D01*
X64107378Y-57107379D01*
X64019139Y-57222374D01*
X64019136Y-57222379D01*
X63963669Y-57356291D01*
X63944750Y-57500000D01*
X55555250Y-57500000D01*
X55536330Y-57356291D01*
X55480861Y-57222375D01*
X55460625Y-57196002D01*
X55450500Y-57166173D01*
X55450500Y-54690688D01*
X55421469Y-54582346D01*
X55421468Y-54582342D01*
X55421468Y-54582343D01*
X55419799Y-54576114D01*
X55419799Y-54576113D01*
X55360490Y-54473386D01*
X53804600Y-52917497D01*
X53790668Y-52889245D01*
X53786330Y-52856291D01*
X53730861Y-52722375D01*
X53642621Y-52607379D01*
X53527625Y-52519139D01*
X53527620Y-52519136D01*
X53393708Y-52463669D01*
X53250000Y-52444750D01*
X53106291Y-52463669D01*
X52972379Y-52519136D01*
X52972374Y-52519139D01*
X52857379Y-52607378D01*
X52857378Y-52607379D01*
X52769139Y-52722374D01*
X52769136Y-52722379D01*
X52713669Y-52856291D01*
X52694750Y-53000000D01*
X30500500Y-53000000D01*
X30500500Y-50106078D01*
X31549500Y-50106078D01*
X31549500Y-50253921D01*
X31578340Y-50398906D01*
X31578342Y-50398915D01*
X31634914Y-50535491D01*
X31634916Y-50535495D01*
X31671797Y-50590691D01*
X31699025Y-50631442D01*
X31717049Y-50658416D01*
X31821584Y-50762951D01*
X31944505Y-50845084D01*
X31974188Y-50857379D01*
X32081084Y-50901657D01*
X32081085Y-50901657D01*
X32081087Y-50901658D01*
X32226082Y-50930500D01*
X33173918Y-50930500D01*
X33318913Y-50901658D01*
X33455495Y-50845084D01*
X33578416Y-50762951D01*
X33682951Y-50658416D01*
X33687052Y-50652279D01*
X33718233Y-50631442D01*
X33727795Y-50630500D01*
X35702205Y-50630500D01*
X35736853Y-50644852D01*
X35742948Y-50652279D01*
X35747045Y-50658412D01*
X35747048Y-50658415D01*
X35747049Y-50658416D01*
X35851584Y-50762951D01*
X35974505Y-50845084D01*
X36004188Y-50857379D01*
X36111084Y-50901657D01*
X36111085Y-50901657D01*
X36111087Y-50901658D01*
X36256082Y-50930500D01*
X37503918Y-50930500D01*
X37648913Y-50901658D01*
X37785495Y-50845084D01*
X37908416Y-50762951D01*
X38012951Y-50658416D01*
X38095084Y-50535495D01*
X38151658Y-50398913D01*
X38180500Y-50253918D01*
X38180500Y-50106082D01*
X38151658Y-49961087D01*
X38095084Y-49824505D01*
X38012951Y-49701584D01*
X37908416Y-49597049D01*
X37785495Y-49514916D01*
X37785492Y-49514914D01*
X37785491Y-49514914D01*
X37648915Y-49458342D01*
X37648906Y-49458340D01*
X37503921Y-49429500D01*
X37503918Y-49429500D01*
X36256082Y-49429500D01*
X36256078Y-49429500D01*
X36111093Y-49458340D01*
X36111084Y-49458342D01*
X35974508Y-49514914D01*
X35851584Y-49597048D01*
X35747045Y-49701587D01*
X35742948Y-49707721D01*
X35711767Y-49728558D01*
X35702205Y-49729500D01*
X33727795Y-49729500D01*
X33693147Y-49715148D01*
X33687052Y-49707721D01*
X33682954Y-49701587D01*
X33578415Y-49597048D01*
X33474515Y-49527625D01*
X33455495Y-49514916D01*
X33455492Y-49514914D01*
X33455491Y-49514914D01*
X33318915Y-49458342D01*
X33318906Y-49458340D01*
X33173921Y-49429500D01*
X33173918Y-49429500D01*
X32226082Y-49429500D01*
X32226078Y-49429500D01*
X32081093Y-49458340D01*
X32081084Y-49458342D01*
X31944508Y-49514914D01*
X31821584Y-49597048D01*
X31717048Y-49701584D01*
X31634914Y-49824508D01*
X31578342Y-49961084D01*
X31578340Y-49961093D01*
X31549500Y-50106078D01*
X30500500Y-50106078D01*
X30500500Y-48674230D01*
X35804500Y-48674230D01*
X35804500Y-48825769D01*
X35843718Y-48972133D01*
X35843719Y-48972137D01*
X35885042Y-49043709D01*
X35919485Y-49103365D01*
X36026635Y-49210515D01*
X36074666Y-49238246D01*
X36157862Y-49286280D01*
X36157864Y-49286280D01*
X36157865Y-49286281D01*
X36273303Y-49317212D01*
X36304230Y-49325499D01*
X36304231Y-49325500D01*
X36304234Y-49325500D01*
X36455769Y-49325500D01*
X36455769Y-49325499D01*
X36602135Y-49286281D01*
X36733365Y-49210515D01*
X36840515Y-49103365D01*
X36906129Y-48989718D01*
X36916280Y-48972137D01*
X36916280Y-48972136D01*
X36916281Y-48972135D01*
X36955499Y-48825769D01*
X36955500Y-48825769D01*
X36955500Y-48674231D01*
X36955499Y-48674230D01*
X36916281Y-48527866D01*
X36916280Y-48527862D01*
X36840514Y-48396634D01*
X36733365Y-48289485D01*
X36602137Y-48213719D01*
X36602133Y-48213718D01*
X36455769Y-48174500D01*
X36455766Y-48174500D01*
X36304234Y-48174500D01*
X36304231Y-48174500D01*
X36157866Y-48213718D01*
X36157862Y-48213719D01*
X36026634Y-48289485D01*
X36026634Y-48289486D01*
X35919486Y-48396634D01*
X35919485Y-48396634D01*
X35843719Y-48527862D01*
X35843718Y-48527866D01*
X35804500Y-48674230D01*
X30500500Y-48674230D01*
X30500500Y-42894230D01*
X35804500Y-42894230D01*
X35804500Y-43045769D01*
X35843718Y-43192133D01*
X35843719Y-43192137D01*
X35919485Y-43323365D01*
X36026635Y-43430515D01*
X36074666Y-43458246D01*
X36157862Y-43506280D01*
X36157864Y-43506280D01*
X36157865Y-43506281D01*
X36273303Y-43537212D01*
X36304230Y-43545499D01*
X36304231Y-43545500D01*
X36304234Y-43545500D01*
X36455769Y-43545500D01*
X36455769Y-43545499D01*
X36602135Y-43506281D01*
X36608002Y-43502894D01*
X36619718Y-43496129D01*
X36733365Y-43430515D01*
X36840515Y-43323365D01*
X36916281Y-43192135D01*
X36955499Y-43045769D01*
X36955500Y-43045769D01*
X36955500Y-42894231D01*
X36955499Y-42894230D01*
X36916281Y-42747866D01*
X36916280Y-42747862D01*
X36856146Y-42643709D01*
X36840515Y-42616635D01*
X36733365Y-42509485D01*
X36716937Y-42500000D01*
X36602137Y-42433719D01*
X36602133Y-42433718D01*
X36455769Y-42394500D01*
X36455766Y-42394500D01*
X36304234Y-42394500D01*
X36304231Y-42394500D01*
X36157866Y-42433718D01*
X36157862Y-42433719D01*
X36026634Y-42509485D01*
X36026634Y-42509486D01*
X35919486Y-42616634D01*
X35919485Y-42616634D01*
X35843719Y-42747862D01*
X35843718Y-42747866D01*
X35804500Y-42894230D01*
X30500500Y-42894230D01*
X30500500Y-41466078D01*
X31549500Y-41466078D01*
X31549500Y-41613921D01*
X31578340Y-41758906D01*
X31578342Y-41758915D01*
X31634176Y-41893709D01*
X31634916Y-41895495D01*
X31668094Y-41945149D01*
X31699025Y-41991442D01*
X31717049Y-42018416D01*
X31821584Y-42122951D01*
X31944505Y-42205084D01*
X31986249Y-42222375D01*
X32081084Y-42261657D01*
X32081085Y-42261657D01*
X32081087Y-42261658D01*
X32226082Y-42290500D01*
X33173918Y-42290500D01*
X33318913Y-42261658D01*
X33455495Y-42205084D01*
X33578416Y-42122951D01*
X33682951Y-42018416D01*
X33687052Y-42012279D01*
X33718233Y-41991442D01*
X33727795Y-41990500D01*
X35702205Y-41990500D01*
X35736853Y-42004852D01*
X35742948Y-42012279D01*
X35747045Y-42018412D01*
X35747048Y-42018415D01*
X35747049Y-42018416D01*
X35851584Y-42122951D01*
X35974505Y-42205084D01*
X36016249Y-42222375D01*
X36111084Y-42261657D01*
X36111085Y-42261657D01*
X36111087Y-42261658D01*
X36256082Y-42290500D01*
X37503918Y-42290500D01*
X37648913Y-42261658D01*
X37785495Y-42205084D01*
X37908416Y-42122951D01*
X38012951Y-42018416D01*
X38095084Y-41895495D01*
X38151658Y-41758913D01*
X38180500Y-41613918D01*
X38180500Y-41466082D01*
X38151658Y-41321087D01*
X38130140Y-41269139D01*
X38110770Y-41222374D01*
X38095084Y-41184505D01*
X38012951Y-41061584D01*
X37908416Y-40957049D01*
X37785495Y-40874916D01*
X37785492Y-40874914D01*
X37785491Y-40874914D01*
X37648915Y-40818342D01*
X37648906Y-40818340D01*
X37503921Y-40789500D01*
X37503918Y-40789500D01*
X36256082Y-40789500D01*
X36256078Y-40789500D01*
X36111093Y-40818340D01*
X36111084Y-40818342D01*
X35974508Y-40874914D01*
X35851584Y-40957048D01*
X35747045Y-41061587D01*
X35742948Y-41067721D01*
X35711767Y-41088558D01*
X35702205Y-41089500D01*
X33727795Y-41089500D01*
X33693147Y-41075148D01*
X33687052Y-41067721D01*
X33682954Y-41061587D01*
X33578415Y-40957048D01*
X33537810Y-40929917D01*
X33455495Y-40874916D01*
X33455492Y-40874914D01*
X33455491Y-40874914D01*
X33318915Y-40818342D01*
X33318906Y-40818340D01*
X33173921Y-40789500D01*
X33173918Y-40789500D01*
X32226082Y-40789500D01*
X32226078Y-40789500D01*
X32081093Y-40818340D01*
X32081084Y-40818342D01*
X31944508Y-40874914D01*
X31821584Y-40957048D01*
X31717048Y-41061584D01*
X31634914Y-41184508D01*
X31578342Y-41321084D01*
X31578340Y-41321093D01*
X31549500Y-41466078D01*
X30500500Y-41466078D01*
X30500500Y-37999999D01*
X40944750Y-37999999D01*
X40949081Y-38032896D01*
X40949500Y-38039292D01*
X40949500Y-46172477D01*
X40987015Y-46312483D01*
X40987016Y-46312487D01*
X41059485Y-46438008D01*
X41059492Y-46438017D01*
X41482952Y-46861477D01*
X41487178Y-46866295D01*
X41507380Y-46892622D01*
X41533699Y-46912817D01*
X41538518Y-46917043D01*
X41561985Y-46940510D01*
X41590726Y-46957103D01*
X41596042Y-46960655D01*
X41622375Y-46980861D01*
X41653037Y-46993561D01*
X41658772Y-46996389D01*
X41665026Y-47000000D01*
X41687511Y-47012982D01*
X41687515Y-47012984D01*
X41719580Y-47021576D01*
X41725621Y-47023626D01*
X41756291Y-47036330D01*
X41789199Y-47040662D01*
X41795464Y-47041908D01*
X41820806Y-47048698D01*
X41827524Y-47050499D01*
X41827525Y-47050499D01*
X41860700Y-47050499D01*
X41867095Y-47050917D01*
X41900000Y-47055250D01*
X41932904Y-47050917D01*
X41939300Y-47050499D01*
X41972473Y-47050499D01*
X41972474Y-47050499D01*
X42004522Y-47041911D01*
X42010807Y-47040661D01*
X42010815Y-47040660D01*
X42043709Y-47036330D01*
X42074370Y-47023628D01*
X42080430Y-47021571D01*
X42112485Y-47012984D01*
X42141221Y-46996392D01*
X42146968Y-46993559D01*
X42154109Y-46990600D01*
X42177625Y-46980861D01*
X42203955Y-46960655D01*
X42209277Y-46957100D01*
X42238014Y-46940510D01*
X42261482Y-46917040D01*
X42266296Y-46912820D01*
X42292621Y-46892621D01*
X42312820Y-46866296D01*
X42317040Y-46861482D01*
X42340510Y-46838014D01*
X42357100Y-46809277D01*
X42360655Y-46803955D01*
X42380861Y-46777625D01*
X42393559Y-46746968D01*
X42396394Y-46741218D01*
X42412984Y-46712485D01*
X42421571Y-46680430D01*
X42423631Y-46674364D01*
X42436330Y-46643709D01*
X42440661Y-46610806D01*
X42441912Y-46604518D01*
X42450499Y-46572473D01*
X42450499Y-46539299D01*
X42450918Y-46532903D01*
X42451919Y-46525300D01*
X42465377Y-46501989D01*
X42451919Y-46474698D01*
X42450918Y-46467094D01*
X42450499Y-46460699D01*
X42450499Y-46427524D01*
X42448698Y-46420806D01*
X42441908Y-46395464D01*
X42440662Y-46389199D01*
X42436330Y-46356291D01*
X42423626Y-46325621D01*
X42421576Y-46319580D01*
X42412984Y-46287515D01*
X42396389Y-46258772D01*
X42393561Y-46253037D01*
X42380861Y-46222375D01*
X42360655Y-46196042D01*
X42357101Y-46190722D01*
X42340510Y-46161985D01*
X42317043Y-46138518D01*
X42312817Y-46133699D01*
X42292622Y-46107380D01*
X42266295Y-46087178D01*
X42261477Y-46082952D01*
X42064852Y-45886327D01*
X42050500Y-45851679D01*
X42050500Y-41249999D01*
X42194750Y-41249999D01*
X42213669Y-41393708D01*
X42269136Y-41527620D01*
X42269139Y-41527625D01*
X42335356Y-41613921D01*
X42357379Y-41642621D01*
X42472375Y-41730861D01*
X42519252Y-41750277D01*
X42545770Y-41776793D01*
X42549500Y-41795546D01*
X42549500Y-46468303D01*
X42536325Y-46500107D01*
X42539374Y-46501867D01*
X42549500Y-46531696D01*
X42549500Y-46666173D01*
X42539375Y-46696002D01*
X42519139Y-46722375D01*
X42463669Y-46856291D01*
X42444750Y-47000000D01*
X42463669Y-47143708D01*
X42519136Y-47277620D01*
X42519139Y-47277625D01*
X42607379Y-47392621D01*
X42722375Y-47480861D01*
X42722377Y-47480861D01*
X42722379Y-47480863D01*
X42856291Y-47536330D01*
X43000000Y-47555250D01*
X43143709Y-47536330D01*
X43277625Y-47480861D01*
X43392621Y-47392621D01*
X43480861Y-47277625D01*
X43536330Y-47143709D01*
X43555250Y-47000000D01*
X43536330Y-46856291D01*
X43480861Y-46722375D01*
X43460625Y-46696002D01*
X43450500Y-46666173D01*
X43450500Y-44500000D01*
X45944750Y-44500000D01*
X45963669Y-44643708D01*
X46019136Y-44777620D01*
X46019139Y-44777625D01*
X46107379Y-44892621D01*
X46222375Y-44980861D01*
X46222377Y-44980861D01*
X46222379Y-44980863D01*
X46356291Y-45036330D01*
X46500000Y-45055250D01*
X46643709Y-45036330D01*
X46777625Y-44980861D01*
X46892621Y-44892621D01*
X46980861Y-44777625D01*
X47036330Y-44643709D01*
X47040668Y-44610754D01*
X47054601Y-44582501D01*
X47076492Y-44560611D01*
X47135801Y-44457884D01*
X47135802Y-44457883D01*
X47166502Y-44343309D01*
X47166503Y-44343309D01*
X47166503Y-41750000D01*
X49194750Y-41750000D01*
X49213669Y-41893708D01*
X49269136Y-42027620D01*
X49269139Y-42027625D01*
X49342285Y-42122951D01*
X49357379Y-42142621D01*
X49472375Y-42230861D01*
X49472377Y-42230861D01*
X49472379Y-42230863D01*
X49539333Y-42258595D01*
X49606291Y-42286330D01*
X49639245Y-42290668D01*
X49667498Y-42304601D01*
X49785148Y-42422251D01*
X49799500Y-42456899D01*
X49799500Y-48916173D01*
X49789375Y-48946002D01*
X49769139Y-48972375D01*
X49713669Y-49106291D01*
X49694750Y-49250000D01*
X49713669Y-49393708D01*
X49769136Y-49527620D01*
X49769139Y-49527625D01*
X49857379Y-49642621D01*
X49972375Y-49730861D01*
X49972377Y-49730861D01*
X49972379Y-49730863D01*
X50106291Y-49786330D01*
X50250000Y-49805250D01*
X50393709Y-49786330D01*
X50527625Y-49730861D01*
X50642621Y-49642621D01*
X50730861Y-49527625D01*
X50786330Y-49393709D01*
X50805250Y-49250000D01*
X50786330Y-49106291D01*
X50730861Y-48972375D01*
X50710625Y-48946002D01*
X50700500Y-48916173D01*
X50700500Y-42190688D01*
X50671469Y-42082346D01*
X50671468Y-42082342D01*
X50671468Y-42082343D01*
X50669799Y-42076114D01*
X50669799Y-42076113D01*
X50610490Y-41973386D01*
X50304600Y-41667497D01*
X50290668Y-41639245D01*
X50287334Y-41613918D01*
X50286330Y-41606291D01*
X50253744Y-41527620D01*
X50242304Y-41500000D01*
X53944750Y-41500000D01*
X53963669Y-41643708D01*
X54019136Y-41777620D01*
X54019139Y-41777625D01*
X54107376Y-41892618D01*
X54107377Y-41892619D01*
X54107379Y-41892621D01*
X54170330Y-41940925D01*
X54189081Y-41973401D01*
X54189500Y-41979797D01*
X54189500Y-42540881D01*
X54210659Y-42619847D01*
X54210660Y-42619851D01*
X54251538Y-42690652D01*
X55941174Y-44380288D01*
X55955526Y-44414936D01*
X55955107Y-44421332D01*
X55944750Y-44499999D01*
X55963669Y-44643708D01*
X56019136Y-44777620D01*
X56019139Y-44777625D01*
X56107379Y-44892621D01*
X56222375Y-44980861D01*
X56222377Y-44980861D01*
X56222379Y-44980863D01*
X56356291Y-45036330D01*
X56500000Y-45055250D01*
X56643709Y-45036330D01*
X56777625Y-44980861D01*
X56892621Y-44892621D01*
X56980861Y-44777625D01*
X57036330Y-44643709D01*
X57055250Y-44500000D01*
X57036330Y-44356291D01*
X57030952Y-44343306D01*
X56980863Y-44222379D01*
X56980860Y-44222374D01*
X56892621Y-44107379D01*
X56892620Y-44107378D01*
X56777625Y-44019139D01*
X56777620Y-44019136D01*
X56643708Y-43963669D01*
X56518919Y-43947240D01*
X56500000Y-43944750D01*
X56499999Y-43944750D01*
X56421332Y-43955107D01*
X56385107Y-43945400D01*
X56380288Y-43941174D01*
X54824852Y-42385738D01*
X54810500Y-42351090D01*
X54810500Y-41979797D01*
X54824852Y-41945149D01*
X54829655Y-41940935D01*
X54892621Y-41892621D01*
X54980861Y-41777625D01*
X55036330Y-41643709D01*
X55055250Y-41500000D01*
X55036330Y-41356291D01*
X55023831Y-41326115D01*
X54980863Y-41222379D01*
X54980860Y-41222374D01*
X54974180Y-41213669D01*
X54892621Y-41107379D01*
X54891208Y-41106295D01*
X54777625Y-41019139D01*
X54777620Y-41019136D01*
X54643708Y-40963669D01*
X54500000Y-40944750D01*
X54356291Y-40963669D01*
X54222379Y-41019136D01*
X54222374Y-41019139D01*
X54107379Y-41107378D01*
X54107378Y-41107379D01*
X54019139Y-41222374D01*
X54019136Y-41222379D01*
X53963669Y-41356291D01*
X53944750Y-41500000D01*
X50242304Y-41500000D01*
X50230863Y-41472379D01*
X50230860Y-41472374D01*
X50206546Y-41440688D01*
X50142621Y-41357379D01*
X50095332Y-41321093D01*
X50027625Y-41269139D01*
X50027620Y-41269136D01*
X49893708Y-41213669D01*
X49750000Y-41194750D01*
X49606291Y-41213669D01*
X49472379Y-41269136D01*
X49472374Y-41269139D01*
X49357379Y-41357378D01*
X49357378Y-41357379D01*
X49269139Y-41472374D01*
X49269136Y-41472379D01*
X49213669Y-41606291D01*
X49194750Y-41750000D01*
X47166503Y-41750000D01*
X47166503Y-38456633D01*
X47176628Y-38426805D01*
X47196864Y-38400434D01*
X47252333Y-38266518D01*
X47271253Y-38122809D01*
X47252333Y-37979100D01*
X47230969Y-37927521D01*
X47196866Y-37845188D01*
X47196863Y-37845183D01*
X47181866Y-37825639D01*
X47108624Y-37730188D01*
X47078273Y-37706899D01*
X46993628Y-37641948D01*
X46993623Y-37641945D01*
X46859711Y-37586478D01*
X46716003Y-37567559D01*
X46572294Y-37586478D01*
X46438382Y-37641945D01*
X46438377Y-37641948D01*
X46323382Y-37730187D01*
X46323381Y-37730188D01*
X46235142Y-37845183D01*
X46235139Y-37845188D01*
X46179672Y-37979100D01*
X46160753Y-38122809D01*
X46179672Y-38266517D01*
X46235139Y-38400429D01*
X46235140Y-38400430D01*
X46235142Y-38400434D01*
X46255377Y-38426805D01*
X46265503Y-38456633D01*
X46265503Y-43968534D01*
X46251151Y-44003182D01*
X46235254Y-44013804D01*
X46222379Y-44019136D01*
X46222374Y-44019139D01*
X46107379Y-44107378D01*
X46107378Y-44107379D01*
X46019139Y-44222374D01*
X46019136Y-44222379D01*
X45963669Y-44356291D01*
X45944750Y-44500000D01*
X43450500Y-44500000D01*
X43450500Y-41440688D01*
X43427474Y-41354758D01*
X43419799Y-41326114D01*
X43375854Y-41250000D01*
X43360489Y-41223386D01*
X43304601Y-41167498D01*
X43290668Y-41139245D01*
X43286473Y-41107378D01*
X43286330Y-41106291D01*
X43230861Y-40972375D01*
X43142621Y-40857379D01*
X43027625Y-40769139D01*
X43027620Y-40769136D01*
X42893708Y-40713669D01*
X42750000Y-40694750D01*
X42606291Y-40713669D01*
X42472379Y-40769136D01*
X42472374Y-40769139D01*
X42357379Y-40857378D01*
X42357378Y-40857379D01*
X42269139Y-40972374D01*
X42269136Y-40972379D01*
X42213669Y-41106291D01*
X42194750Y-41249999D01*
X42050500Y-41249999D01*
X42050500Y-38039292D01*
X42050919Y-38032896D01*
X42055250Y-38000000D01*
X42050919Y-37967101D01*
X42050500Y-37960706D01*
X42050500Y-37927524D01*
X42041911Y-37895471D01*
X42040660Y-37889184D01*
X42039822Y-37882825D01*
X42036330Y-37856291D01*
X42023631Y-37825635D01*
X42021573Y-37819569D01*
X42012985Y-37787518D01*
X42012984Y-37787515D01*
X41996389Y-37758772D01*
X41993558Y-37753030D01*
X41980861Y-37722375D01*
X41960655Y-37696042D01*
X41957096Y-37690714D01*
X41954722Y-37686603D01*
X41940509Y-37661985D01*
X41917043Y-37638519D01*
X41912820Y-37633703D01*
X41892621Y-37607379D01*
X41892620Y-37607378D01*
X41866295Y-37587178D01*
X41861476Y-37582952D01*
X41838018Y-37559494D01*
X41838015Y-37559491D01*
X41838011Y-37559489D01*
X41838009Y-37559487D01*
X41809280Y-37542899D01*
X41803954Y-37539340D01*
X41777628Y-37519140D01*
X41777625Y-37519139D01*
X41746964Y-37506438D01*
X41741219Y-37503605D01*
X41712485Y-37487016D01*
X41712484Y-37487015D01*
X41712481Y-37487014D01*
X41680432Y-37478427D01*
X41674363Y-37476367D01*
X41643708Y-37463669D01*
X41643709Y-37463669D01*
X41610809Y-37459338D01*
X41604523Y-37458087D01*
X41572477Y-37449500D01*
X41572475Y-37449500D01*
X41539292Y-37449500D01*
X41532896Y-37449081D01*
X41500000Y-37444750D01*
X41467104Y-37449081D01*
X41460708Y-37449500D01*
X41427522Y-37449500D01*
X41395474Y-37458087D01*
X41389189Y-37459338D01*
X41356292Y-37463669D01*
X41325635Y-37476367D01*
X41319569Y-37478426D01*
X41287518Y-37487015D01*
X41287517Y-37487015D01*
X41258778Y-37503606D01*
X41253033Y-37506438D01*
X41222378Y-37519136D01*
X41222371Y-37519141D01*
X41196043Y-37539342D01*
X41190717Y-37542901D01*
X41161990Y-37559487D01*
X41161979Y-37559495D01*
X41138519Y-37582954D01*
X41133704Y-37587177D01*
X41107378Y-37607378D01*
X41087177Y-37633704D01*
X41082954Y-37638519D01*
X41059495Y-37661979D01*
X41059487Y-37661990D01*
X41042901Y-37690717D01*
X41039342Y-37696043D01*
X41019141Y-37722371D01*
X41019136Y-37722378D01*
X41006438Y-37753033D01*
X41003606Y-37758778D01*
X40987015Y-37787517D01*
X40987015Y-37787518D01*
X40978426Y-37819569D01*
X40976367Y-37825635D01*
X40963669Y-37856292D01*
X40959338Y-37889189D01*
X40958087Y-37895474D01*
X40949500Y-37927521D01*
X40949500Y-37960706D01*
X40949081Y-37967101D01*
X40944750Y-37999999D01*
X30500500Y-37999999D01*
X30500500Y-35000000D01*
X32444750Y-35000000D01*
X32463669Y-35143708D01*
X32519136Y-35277620D01*
X32519139Y-35277625D01*
X32540336Y-35305250D01*
X32607379Y-35392621D01*
X32722375Y-35480861D01*
X32722377Y-35480861D01*
X32722379Y-35480863D01*
X32856291Y-35536330D01*
X33000000Y-35555250D01*
X33143709Y-35536330D01*
X33277625Y-35480861D01*
X33392621Y-35392621D01*
X33461127Y-35303342D01*
X33493604Y-35284591D01*
X33529829Y-35294298D01*
X33538870Y-35303339D01*
X33607379Y-35392621D01*
X33722375Y-35480861D01*
X33722377Y-35480861D01*
X33722379Y-35480863D01*
X33856291Y-35536330D01*
X34000000Y-35555250D01*
X34143709Y-35536330D01*
X34277625Y-35480861D01*
X34392621Y-35392621D01*
X34461127Y-35303342D01*
X34493604Y-35284591D01*
X34529829Y-35294298D01*
X34538870Y-35303339D01*
X34607379Y-35392621D01*
X34722375Y-35480861D01*
X34722377Y-35480861D01*
X34722379Y-35480863D01*
X34856291Y-35536330D01*
X35000000Y-35555250D01*
X35143709Y-35536330D01*
X35277625Y-35480861D01*
X35392621Y-35392621D01*
X35480861Y-35277625D01*
X35536330Y-35143709D01*
X35555250Y-35000000D01*
X35536330Y-34856291D01*
X35500000Y-34768581D01*
X35492304Y-34750000D01*
X46694750Y-34750000D01*
X46713669Y-34893708D01*
X46769136Y-35027620D01*
X46769139Y-35027625D01*
X46841846Y-35122379D01*
X46857379Y-35142621D01*
X46972375Y-35230861D01*
X46972377Y-35230861D01*
X46972379Y-35230863D01*
X47033769Y-35256291D01*
X47106291Y-35286330D01*
X47250000Y-35305250D01*
X47393709Y-35286330D01*
X47527625Y-35230861D01*
X47642621Y-35142621D01*
X47730861Y-35027625D01*
X47786330Y-34893709D01*
X47805250Y-34750000D01*
X47786330Y-34606291D01*
X47730861Y-34472375D01*
X47642621Y-34357379D01*
X47640387Y-34355665D01*
X47527625Y-34269139D01*
X47527620Y-34269136D01*
X47393708Y-34213669D01*
X47250000Y-34194750D01*
X47106291Y-34213669D01*
X46972379Y-34269136D01*
X46972374Y-34269139D01*
X46857379Y-34357378D01*
X46857378Y-34357379D01*
X46769139Y-34472374D01*
X46769136Y-34472379D01*
X46713669Y-34606291D01*
X46694750Y-34750000D01*
X35492304Y-34750000D01*
X35480863Y-34722379D01*
X35480860Y-34722374D01*
X35468066Y-34705701D01*
X35392621Y-34607379D01*
X35388973Y-34604580D01*
X35277625Y-34519139D01*
X35277620Y-34519136D01*
X35143708Y-34463669D01*
X35000000Y-34444750D01*
X34856291Y-34463669D01*
X34722379Y-34519136D01*
X34722374Y-34519139D01*
X34607379Y-34607378D01*
X34607378Y-34607379D01*
X34538874Y-34696656D01*
X34506396Y-34715408D01*
X34470171Y-34705701D01*
X34461126Y-34696656D01*
X34392621Y-34607379D01*
X34392620Y-34607378D01*
X34277625Y-34519139D01*
X34277620Y-34519136D01*
X34143708Y-34463669D01*
X34000000Y-34444750D01*
X33856291Y-34463669D01*
X33722379Y-34519136D01*
X33722374Y-34519139D01*
X33607379Y-34607378D01*
X33607378Y-34607379D01*
X33538874Y-34696656D01*
X33506396Y-34715408D01*
X33470171Y-34705701D01*
X33461126Y-34696656D01*
X33392621Y-34607379D01*
X33392620Y-34607378D01*
X33277625Y-34519139D01*
X33277620Y-34519136D01*
X33143708Y-34463669D01*
X33000000Y-34444750D01*
X32856291Y-34463669D01*
X32722379Y-34519136D01*
X32722374Y-34519139D01*
X32607379Y-34607378D01*
X32607378Y-34607379D01*
X32519139Y-34722374D01*
X32519136Y-34722379D01*
X32463669Y-34856291D01*
X32444750Y-35000000D01*
X30500500Y-35000000D01*
X30500500Y-33895001D01*
X43919750Y-33895001D01*
X43924081Y-33927898D01*
X43924500Y-33934294D01*
X43924500Y-33967475D01*
X43933088Y-33999530D01*
X43934337Y-34005813D01*
X43938668Y-34038703D01*
X43938672Y-34038717D01*
X43951367Y-34069365D01*
X43953427Y-34075434D01*
X43962014Y-34107482D01*
X43962017Y-34107490D01*
X43978605Y-34136223D01*
X43981439Y-34141968D01*
X43994140Y-34172629D01*
X43994140Y-34172630D01*
X44014337Y-34198952D01*
X44017896Y-34204278D01*
X44034486Y-34233011D01*
X44034488Y-34233013D01*
X44034490Y-34233017D01*
X44034493Y-34233020D01*
X44057952Y-34256479D01*
X44062178Y-34261297D01*
X44082380Y-34287624D01*
X44108699Y-34307819D01*
X44113518Y-34312045D01*
X44136985Y-34335512D01*
X44165726Y-34352105D01*
X44171042Y-34355657D01*
X44197375Y-34375863D01*
X44228037Y-34388563D01*
X44233772Y-34391391D01*
X44262515Y-34407986D01*
X44262519Y-34407987D01*
X44294569Y-34416575D01*
X44300635Y-34418633D01*
X44331291Y-34431332D01*
X44364192Y-34435663D01*
X44370469Y-34436912D01*
X44386200Y-34441127D01*
X44402524Y-34445502D01*
X44402526Y-34445502D01*
X44435708Y-34445502D01*
X44442103Y-34445920D01*
X44475000Y-34450252D01*
X44507896Y-34445920D01*
X44514292Y-34445502D01*
X44547475Y-34445502D01*
X44553865Y-34443789D01*
X44579535Y-34436910D01*
X44585803Y-34435664D01*
X44618709Y-34431332D01*
X44649363Y-34418633D01*
X44655419Y-34416577D01*
X44687485Y-34407986D01*
X44716233Y-34391387D01*
X44721954Y-34388566D01*
X44752625Y-34375863D01*
X44778948Y-34355664D01*
X44784279Y-34352102D01*
X44813015Y-34335512D01*
X44836480Y-34312045D01*
X44841300Y-34307820D01*
X44867618Y-34287625D01*
X44867617Y-34287625D01*
X44867621Y-34287623D01*
X44887827Y-34261288D01*
X44892039Y-34256486D01*
X46583674Y-32564852D01*
X46618322Y-32550500D01*
X51710708Y-32550500D01*
X51717103Y-32550918D01*
X51750000Y-32555250D01*
X51782896Y-32550918D01*
X51789292Y-32550500D01*
X51822474Y-32550500D01*
X51822475Y-32550500D01*
X51854526Y-32541910D01*
X51860814Y-32540660D01*
X51893709Y-32536330D01*
X51924363Y-32523631D01*
X51930419Y-32521575D01*
X51962485Y-32512984D01*
X51991221Y-32496392D01*
X51996968Y-32493559D01*
X52003739Y-32490754D01*
X52027625Y-32480861D01*
X52053967Y-32460647D01*
X52059265Y-32457107D01*
X52088015Y-32440509D01*
X52111482Y-32417040D01*
X52116296Y-32412820D01*
X52125228Y-32405967D01*
X52142621Y-32392621D01*
X52162821Y-32366294D01*
X52167040Y-32361482D01*
X52190509Y-32338015D01*
X52207107Y-32309265D01*
X52210647Y-32303967D01*
X52230861Y-32277625D01*
X52243559Y-32246968D01*
X52246394Y-32241218D01*
X52262983Y-32212486D01*
X52262984Y-32212485D01*
X52271575Y-32180419D01*
X52273633Y-32174360D01*
X52286330Y-32143709D01*
X52290660Y-32110813D01*
X52291911Y-32104526D01*
X52300500Y-32072474D01*
X52300500Y-32039292D01*
X52300919Y-32032896D01*
X52305250Y-32000000D01*
X52300919Y-31967101D01*
X52300500Y-31960706D01*
X52300500Y-31927524D01*
X52291911Y-31895471D01*
X52290660Y-31889184D01*
X52289822Y-31882825D01*
X52286330Y-31856291D01*
X52273631Y-31825635D01*
X52271573Y-31819569D01*
X52262984Y-31787516D01*
X52262984Y-31787515D01*
X52246389Y-31758772D01*
X52243558Y-31753030D01*
X52230861Y-31722375D01*
X52210655Y-31696042D01*
X52207096Y-31690714D01*
X52190512Y-31661990D01*
X52190511Y-31661989D01*
X52190509Y-31661985D01*
X52167046Y-31638522D01*
X52162820Y-31633703D01*
X52142621Y-31607379D01*
X52142620Y-31607378D01*
X52116295Y-31587178D01*
X52111476Y-31582952D01*
X52088018Y-31559494D01*
X52088015Y-31559491D01*
X52088011Y-31559489D01*
X52088009Y-31559487D01*
X52059280Y-31542899D01*
X52053954Y-31539340D01*
X52027628Y-31519140D01*
X52027625Y-31519139D01*
X51996964Y-31506438D01*
X51991219Y-31503605D01*
X51962485Y-31487016D01*
X51962484Y-31487015D01*
X51962481Y-31487014D01*
X51930432Y-31478427D01*
X51924363Y-31476367D01*
X51893708Y-31463669D01*
X51893709Y-31463669D01*
X51860809Y-31459338D01*
X51854523Y-31458087D01*
X51822477Y-31449500D01*
X51822475Y-31449500D01*
X51789292Y-31449500D01*
X51782896Y-31449081D01*
X51750000Y-31444750D01*
X51717104Y-31449081D01*
X51710708Y-31449500D01*
X46297524Y-31449500D01*
X46157518Y-31487015D01*
X46157514Y-31487016D01*
X46031987Y-31559490D01*
X46031986Y-31559491D01*
X44113521Y-33477954D01*
X44108704Y-33482179D01*
X44082378Y-33502380D01*
X44062180Y-33528702D01*
X44057957Y-33533517D01*
X44034494Y-33556981D01*
X44034486Y-33556993D01*
X44017894Y-33585728D01*
X44014335Y-33591054D01*
X43994141Y-33617373D01*
X43994138Y-33617378D01*
X43981437Y-33648037D01*
X43978605Y-33653780D01*
X43962016Y-33682515D01*
X43962015Y-33682518D01*
X43953426Y-33714571D01*
X43951367Y-33720637D01*
X43938671Y-33751289D01*
X43938668Y-33751300D01*
X43934337Y-33784190D01*
X43933088Y-33790471D01*
X43924500Y-33822527D01*
X43924500Y-33855708D01*
X43924081Y-33862103D01*
X43919750Y-33895001D01*
X30500500Y-33895001D01*
X30500500Y-29500000D01*
X45444750Y-29500000D01*
X45463669Y-29643708D01*
X45519136Y-29777620D01*
X45519139Y-29777625D01*
X45581013Y-29858261D01*
X45607379Y-29892621D01*
X45722375Y-29980861D01*
X45722377Y-29980861D01*
X45722379Y-29980863D01*
X45786396Y-30007379D01*
X45856291Y-30036330D01*
X46000000Y-30055250D01*
X46143709Y-30036330D01*
X46277625Y-29980861D01*
X46392621Y-29892621D01*
X46461127Y-29803342D01*
X46493604Y-29784591D01*
X46529829Y-29794298D01*
X46538870Y-29803339D01*
X46607379Y-29892621D01*
X46722375Y-29980861D01*
X46722377Y-29980861D01*
X46722379Y-29980863D01*
X46786396Y-30007379D01*
X46856291Y-30036330D01*
X47000000Y-30055250D01*
X47143709Y-30036330D01*
X47277625Y-29980861D01*
X47392621Y-29892621D01*
X47440925Y-29829669D01*
X47473404Y-29810919D01*
X47479799Y-29810500D01*
X53551090Y-29810500D01*
X53585738Y-29824852D01*
X54041174Y-30280288D01*
X54055526Y-30314936D01*
X54055107Y-30321332D01*
X54044750Y-30399999D01*
X54063669Y-30543708D01*
X54119136Y-30677620D01*
X54119139Y-30677625D01*
X54207379Y-30792621D01*
X54322375Y-30880861D01*
X54322377Y-30880861D01*
X54322379Y-30880863D01*
X54456291Y-30936330D01*
X54600000Y-30955250D01*
X54743709Y-30936330D01*
X54877625Y-30880861D01*
X54992621Y-30792621D01*
X55080861Y-30677625D01*
X55136330Y-30543709D01*
X55155250Y-30400000D01*
X55136330Y-30256291D01*
X55080861Y-30122375D01*
X54992621Y-30007379D01*
X54877625Y-29919139D01*
X54877620Y-29919136D01*
X54743708Y-29863669D01*
X54618919Y-29847240D01*
X54600000Y-29844750D01*
X54599999Y-29844750D01*
X54521332Y-29855107D01*
X54485107Y-29845400D01*
X54480288Y-29841174D01*
X53890652Y-29251538D01*
X53819851Y-29210660D01*
X53819847Y-29210659D01*
X53740882Y-29189500D01*
X53740879Y-29189500D01*
X53740878Y-29189500D01*
X47479799Y-29189500D01*
X47445151Y-29175148D01*
X47440925Y-29170330D01*
X47425709Y-29150500D01*
X47392621Y-29107379D01*
X47392619Y-29107378D01*
X47392619Y-29107377D01*
X47277625Y-29019139D01*
X47277620Y-29019136D01*
X47143708Y-28963669D01*
X47000000Y-28944750D01*
X46856291Y-28963669D01*
X46722379Y-29019136D01*
X46722374Y-29019139D01*
X46607379Y-29107378D01*
X46607378Y-29107379D01*
X46538874Y-29196656D01*
X46506396Y-29215408D01*
X46470171Y-29205701D01*
X46461126Y-29196656D01*
X46392621Y-29107379D01*
X46392620Y-29107378D01*
X46277625Y-29019139D01*
X46277620Y-29019136D01*
X46143708Y-28963669D01*
X46000000Y-28944750D01*
X45856291Y-28963669D01*
X45722379Y-29019136D01*
X45722374Y-29019139D01*
X45607379Y-29107378D01*
X45607378Y-29107379D01*
X45519139Y-29222374D01*
X45519136Y-29222379D01*
X45463669Y-29356291D01*
X45444750Y-29500000D01*
X30500500Y-29500000D01*
X30500500Y-27001487D01*
X30500545Y-27000000D01*
X30844475Y-27000000D01*
X30864551Y-27293512D01*
X30924405Y-27581546D01*
X30924408Y-27581554D01*
X31022928Y-27858764D01*
X31022932Y-27858771D01*
X31158276Y-28119972D01*
X31158280Y-28119980D01*
X31243106Y-28240151D01*
X31327935Y-28360326D01*
X31528740Y-28575335D01*
X31756951Y-28760999D01*
X32008318Y-28913859D01*
X32278159Y-29031067D01*
X32561445Y-29110440D01*
X32812841Y-29144993D01*
X32852901Y-29150500D01*
X32852902Y-29150500D01*
X33147099Y-29150500D01*
X33182318Y-29145659D01*
X33438555Y-29110440D01*
X33721841Y-29031067D01*
X33991682Y-28913859D01*
X34243049Y-28760999D01*
X34471260Y-28575335D01*
X34672065Y-28360326D01*
X34841722Y-28119976D01*
X34977072Y-27858764D01*
X35075592Y-27581554D01*
X35135448Y-27293511D01*
X35155525Y-27000000D01*
X35135448Y-26706489D01*
X35134447Y-26701672D01*
X35075594Y-26418453D01*
X35070723Y-26404746D01*
X34977072Y-26141236D01*
X34841722Y-25880024D01*
X34841720Y-25880021D01*
X34841719Y-25880019D01*
X34787189Y-25802768D01*
X34672065Y-25639674D01*
X34471260Y-25424665D01*
X34243049Y-25239001D01*
X33991682Y-25086141D01*
X33991678Y-25086139D01*
X33991676Y-25086138D01*
X33721842Y-24968933D01*
X33438560Y-24889561D01*
X33438555Y-24889560D01*
X33147099Y-24849500D01*
X33147098Y-24849500D01*
X32852902Y-24849500D01*
X32852901Y-24849500D01*
X32561444Y-24889560D01*
X32561439Y-24889561D01*
X32278157Y-24968933D01*
X32008323Y-25086138D01*
X31756949Y-25239002D01*
X31528748Y-25424658D01*
X31528737Y-25424668D01*
X31327939Y-25639669D01*
X31327933Y-25639677D01*
X31158280Y-25880019D01*
X31158276Y-25880027D01*
X31022932Y-26141228D01*
X31022928Y-26141237D01*
X30924405Y-26418453D01*
X30864551Y-26706487D01*
X30844475Y-27000000D01*
X30500545Y-27000000D01*
X30500589Y-26998529D01*
X30518545Y-26701672D01*
X30519259Y-26695798D01*
X30557752Y-26485750D01*
X30572598Y-26404736D01*
X30574008Y-26399013D01*
X30662047Y-26116487D01*
X30664140Y-26110969D01*
X30785592Y-25841114D01*
X30788327Y-25835901D01*
X30941423Y-25582650D01*
X30944775Y-25577794D01*
X31127277Y-25344847D01*
X31131185Y-25340436D01*
X31340436Y-25131185D01*
X31344847Y-25127277D01*
X31577794Y-24944775D01*
X31582650Y-24941423D01*
X31835901Y-24788327D01*
X31841114Y-24785592D01*
X32110969Y-24664140D01*
X32116487Y-24662047D01*
X32399013Y-24574008D01*
X32404736Y-24572598D01*
X32695802Y-24519258D01*
X32701665Y-24518545D01*
X32945547Y-24503793D01*
X32998530Y-24500589D01*
X33001488Y-24500500D01*
X33065892Y-24500500D01*
X58951000Y-24500500D01*
X58985648Y-24514852D01*
G37*
%TD.AperFunction*%
%TD*%
%TA.AperFunction,Conductor*%
%TO.N,+3.3VA*%
G36*
X76001470Y-24500589D02*
G01*
X76062476Y-24504279D01*
X76298332Y-24518545D01*
X76304199Y-24519258D01*
X76595259Y-24572597D01*
X76600990Y-24574009D01*
X76883505Y-24662045D01*
X76889035Y-24664142D01*
X77158878Y-24785589D01*
X77164105Y-24788331D01*
X77369074Y-24912240D01*
X77417342Y-24941419D01*
X77422211Y-24944780D01*
X77655142Y-25127269D01*
X77659571Y-25131193D01*
X77868806Y-25340428D01*
X77872730Y-25344857D01*
X78055219Y-25577788D01*
X78058580Y-25582657D01*
X78211664Y-25835888D01*
X78214414Y-25841128D01*
X78335856Y-26110962D01*
X78337954Y-26116494D01*
X78425987Y-26399000D01*
X78427403Y-26404746D01*
X78480740Y-26695798D01*
X78481454Y-26701671D01*
X78499411Y-26998528D01*
X78499500Y-27001487D01*
X78499500Y-52451000D01*
X78485148Y-52485648D01*
X78450500Y-52500000D01*
X77499500Y-52500000D01*
X77464852Y-52485648D01*
X77450500Y-52451000D01*
X77450500Y-48333824D01*
X77460625Y-48303996D01*
X77480861Y-48277625D01*
X77536330Y-48143709D01*
X77555250Y-48000000D01*
X77536330Y-47856291D01*
X77480861Y-47722375D01*
X77392621Y-47607379D01*
X77277625Y-47519139D01*
X77277620Y-47519136D01*
X77143708Y-47463669D01*
X77000000Y-47444750D01*
X76856291Y-47463669D01*
X76722379Y-47519136D01*
X76722374Y-47519139D01*
X76607379Y-47607378D01*
X76607378Y-47607379D01*
X76519139Y-47722374D01*
X76519136Y-47722379D01*
X76463669Y-47856291D01*
X76444750Y-48000000D01*
X76463669Y-48143708D01*
X76519136Y-48277620D01*
X76519137Y-48277621D01*
X76519139Y-48277625D01*
X76539374Y-48303996D01*
X76549500Y-48333824D01*
X76549500Y-52451000D01*
X76535148Y-52485648D01*
X76500500Y-52500000D01*
X72907399Y-52500000D01*
X72872751Y-52485648D01*
X72714852Y-52327749D01*
X72700500Y-52293101D01*
X72700500Y-51583824D01*
X72710625Y-51553996D01*
X72730861Y-51527625D01*
X72786330Y-51393709D01*
X72805250Y-51250000D01*
X72786330Y-51106291D01*
X72730861Y-50972375D01*
X72642621Y-50857379D01*
X72615545Y-50836603D01*
X72527625Y-50769139D01*
X72527620Y-50769136D01*
X72393708Y-50713669D01*
X72250000Y-50694750D01*
X72106291Y-50713669D01*
X71972379Y-50769136D01*
X71972374Y-50769139D01*
X71857379Y-50857378D01*
X71857378Y-50857379D01*
X71769139Y-50972374D01*
X71769136Y-50972379D01*
X71713669Y-51106291D01*
X71694750Y-51250000D01*
X71713669Y-51393708D01*
X71769136Y-51527620D01*
X71769137Y-51527621D01*
X71769139Y-51527625D01*
X71789374Y-51553996D01*
X71799500Y-51583824D01*
X71799500Y-52451000D01*
X71785148Y-52485648D01*
X71750500Y-52500000D01*
X69099500Y-52500000D01*
X69064852Y-52485648D01*
X69050500Y-52451000D01*
X69050500Y-52124105D01*
X69064852Y-52089457D01*
X69069663Y-52085236D01*
X69092621Y-52067621D01*
X69180861Y-51952625D01*
X69236330Y-51818709D01*
X69255250Y-51675000D01*
X69236330Y-51531291D01*
X69180861Y-51397375D01*
X69092621Y-51282379D01*
X69090645Y-51280863D01*
X68977625Y-51194139D01*
X68977620Y-51194136D01*
X68843708Y-51138669D01*
X68700000Y-51119750D01*
X68556291Y-51138669D01*
X68422379Y-51194136D01*
X68422374Y-51194139D01*
X68307379Y-51282378D01*
X68307378Y-51282379D01*
X68219139Y-51397374D01*
X68219136Y-51397379D01*
X68163669Y-51531291D01*
X68144750Y-51675000D01*
X68163669Y-51818708D01*
X68219136Y-51952620D01*
X68219139Y-51952625D01*
X68307376Y-52067618D01*
X68307377Y-52067619D01*
X68307379Y-52067621D01*
X68330329Y-52085231D01*
X68349081Y-52117709D01*
X68349500Y-52124105D01*
X68349500Y-52451000D01*
X68335148Y-52485648D01*
X68300500Y-52500000D01*
X66499500Y-52500000D01*
X66464852Y-52485648D01*
X66450500Y-52451000D01*
X66450500Y-50856898D01*
X66464851Y-50822251D01*
X67152502Y-50134600D01*
X67180752Y-50120668D01*
X67213709Y-50116330D01*
X67347625Y-50060861D01*
X67462621Y-49972621D01*
X67550861Y-49857625D01*
X67606330Y-49723709D01*
X67625250Y-49580000D01*
X67606330Y-49436291D01*
X67550863Y-49302379D01*
X67550860Y-49302374D01*
X67462621Y-49187379D01*
X67462620Y-49187378D01*
X67347625Y-49099139D01*
X67347620Y-49099136D01*
X67213708Y-49043669D01*
X67070000Y-49024750D01*
X66926291Y-49043669D01*
X66792379Y-49099136D01*
X66792374Y-49099139D01*
X66677379Y-49187378D01*
X66677378Y-49187379D01*
X66589139Y-49302374D01*
X66589136Y-49302379D01*
X66533669Y-49436291D01*
X66529331Y-49469245D01*
X66515398Y-49497497D01*
X65639512Y-50373384D01*
X65639511Y-50373385D01*
X65580201Y-50476111D01*
X65578532Y-50482343D01*
X65578531Y-50482342D01*
X65578531Y-50482346D01*
X65549500Y-50590688D01*
X65549500Y-52451000D01*
X65535148Y-52485648D01*
X65500500Y-52500000D01*
X65178538Y-52500000D01*
X65143890Y-52485648D01*
X65129538Y-52451000D01*
X65141912Y-52421125D01*
X65140666Y-52420169D01*
X65153071Y-52404001D01*
X65230861Y-52302625D01*
X65286330Y-52168709D01*
X65305250Y-52025000D01*
X65286330Y-51881291D01*
X65230861Y-51747375D01*
X65142621Y-51632379D01*
X65027625Y-51544139D01*
X65027620Y-51544136D01*
X64893708Y-51488669D01*
X64750000Y-51469750D01*
X64606291Y-51488669D01*
X64472379Y-51544136D01*
X64472374Y-51544139D01*
X64357379Y-51632378D01*
X64357378Y-51632379D01*
X64269139Y-51747374D01*
X64269136Y-51747379D01*
X64213669Y-51881291D01*
X64194750Y-52025000D01*
X64213669Y-52168708D01*
X64269136Y-52302620D01*
X64269139Y-52302625D01*
X64359334Y-52420169D01*
X64358087Y-52421125D01*
X64370462Y-52451000D01*
X64356110Y-52485648D01*
X64321462Y-52500000D01*
X62555399Y-52500000D01*
X62520751Y-52485648D01*
X62506399Y-52451000D01*
X62520751Y-52416352D01*
X62768395Y-52168708D01*
X63582501Y-51354600D01*
X63610752Y-51340668D01*
X63643709Y-51336330D01*
X63777625Y-51280861D01*
X63892621Y-51192621D01*
X63980861Y-51077625D01*
X64036330Y-50943709D01*
X64055250Y-50800000D01*
X64036330Y-50656291D01*
X63980861Y-50522375D01*
X63892621Y-50407379D01*
X63848319Y-50373385D01*
X63777625Y-50319139D01*
X63777620Y-50319136D01*
X63643708Y-50263669D01*
X63500000Y-50244750D01*
X63356291Y-50263669D01*
X63222379Y-50319136D01*
X63222374Y-50319139D01*
X63107379Y-50407378D01*
X63107378Y-50407379D01*
X63019139Y-50522374D01*
X63019136Y-50522379D01*
X62963669Y-50656291D01*
X62959331Y-50689245D01*
X62945398Y-50717497D01*
X61639512Y-52023384D01*
X61639511Y-52023385D01*
X61580201Y-52126111D01*
X61578532Y-52132343D01*
X61578531Y-52132342D01*
X61578531Y-52132346D01*
X61549500Y-52240688D01*
X61549500Y-52451000D01*
X61535148Y-52485648D01*
X61500500Y-52500000D01*
X60049000Y-52500000D01*
X60014352Y-52485648D01*
X60000000Y-52451000D01*
X60000000Y-49999779D01*
X60014351Y-49965131D01*
X60354678Y-49624804D01*
X60389325Y-49610453D01*
X60395714Y-49610871D01*
X60424403Y-49614649D01*
X60568112Y-49595729D01*
X60702028Y-49540260D01*
X60817024Y-49452020D01*
X60905264Y-49337024D01*
X60960733Y-49203108D01*
X60979653Y-49059399D01*
X60975876Y-49030716D01*
X60985582Y-48994493D01*
X60989801Y-48989681D01*
X61280470Y-48699014D01*
X61320431Y-48629799D01*
X61326613Y-48619092D01*
X61326613Y-48619091D01*
X61326614Y-48619090D01*
X61348992Y-48535575D01*
X61350500Y-48529948D01*
X61350500Y-47949105D01*
X61364852Y-47914457D01*
X61369663Y-47910236D01*
X61392621Y-47892621D01*
X61480861Y-47777625D01*
X61536330Y-47643709D01*
X61555250Y-47500000D01*
X61536330Y-47356291D01*
X61480861Y-47222375D01*
X61392621Y-47107379D01*
X61277625Y-47019139D01*
X61277620Y-47019136D01*
X61143708Y-46963669D01*
X61000000Y-46944750D01*
X60856291Y-46963669D01*
X60722379Y-47019136D01*
X60722374Y-47019139D01*
X60607379Y-47107378D01*
X60607378Y-47107379D01*
X60519139Y-47222374D01*
X60519136Y-47222379D01*
X60463669Y-47356291D01*
X60444750Y-47500000D01*
X60463669Y-47643708D01*
X60519136Y-47777620D01*
X60519139Y-47777625D01*
X60607376Y-47892618D01*
X60607377Y-47892619D01*
X60607379Y-47892621D01*
X60630329Y-47910231D01*
X60649081Y-47942709D01*
X60649500Y-47949105D01*
X60649500Y-48318323D01*
X60635148Y-48352971D01*
X60494127Y-48493992D01*
X60459479Y-48508344D01*
X60453084Y-48507925D01*
X60424403Y-48504149D01*
X60424402Y-48504149D01*
X60305895Y-48519750D01*
X60269670Y-48510043D01*
X60250919Y-48477564D01*
X60250500Y-48471169D01*
X60250500Y-44359297D01*
X60212984Y-44219291D01*
X60212983Y-44219288D01*
X60185961Y-44172485D01*
X60140514Y-44093767D01*
X60140511Y-44093764D01*
X60140510Y-44093761D01*
X60079223Y-44032474D01*
X60014352Y-43967602D01*
X60000000Y-43932954D01*
X60000000Y-42405750D01*
X60014352Y-42371102D01*
X60049000Y-42356750D01*
X61757144Y-42356750D01*
X61791792Y-42371102D01*
X61796016Y-42375918D01*
X61813629Y-42398871D01*
X61928625Y-42487111D01*
X61928627Y-42487111D01*
X61928629Y-42487113D01*
X61959742Y-42500000D01*
X62062541Y-42542580D01*
X62206250Y-42561500D01*
X62234930Y-42557723D01*
X62271154Y-42567429D01*
X62275974Y-42571656D01*
X62878868Y-43174550D01*
X62893220Y-43209198D01*
X62883094Y-43239027D01*
X62819139Y-43322374D01*
X62819136Y-43322379D01*
X62763669Y-43456291D01*
X62744750Y-43600000D01*
X62763669Y-43743708D01*
X62819136Y-43877620D01*
X62819139Y-43877625D01*
X62854662Y-43923920D01*
X62907379Y-43992621D01*
X63022375Y-44080861D01*
X63022377Y-44080861D01*
X63022379Y-44080863D01*
X63156291Y-44136330D01*
X63300000Y-44155250D01*
X63443709Y-44136330D01*
X63577625Y-44080861D01*
X63692621Y-43992621D01*
X63780861Y-43877625D01*
X63836330Y-43743709D01*
X63855250Y-43600000D01*
X63836330Y-43456291D01*
X63780861Y-43322375D01*
X63736741Y-43264877D01*
X63692622Y-43207380D01*
X63669670Y-43189768D01*
X63650919Y-43157289D01*
X63650500Y-43150894D01*
X63650500Y-43053853D01*
X63626614Y-42964713D01*
X63626614Y-42964712D01*
X63607037Y-42930804D01*
X63580470Y-42884788D01*
X63195682Y-42500000D01*
X66694750Y-42500000D01*
X66713669Y-42643708D01*
X66769136Y-42777620D01*
X66769139Y-42777625D01*
X66857379Y-42892621D01*
X66972375Y-42980861D01*
X66972377Y-42980861D01*
X66972379Y-42980863D01*
X67106291Y-43036330D01*
X67250000Y-43055250D01*
X67393709Y-43036330D01*
X67527625Y-42980861D01*
X67642621Y-42892621D01*
X67730861Y-42777625D01*
X67786330Y-42643709D01*
X67790668Y-42610752D01*
X67804598Y-42582503D01*
X67860489Y-42526614D01*
X67894731Y-42467304D01*
X67919799Y-42423886D01*
X67950499Y-42309312D01*
X67950500Y-42309312D01*
X67950500Y-41200000D01*
X70194750Y-41200000D01*
X70213669Y-41343708D01*
X70269136Y-41477620D01*
X70269139Y-41477625D01*
X70357379Y-41592621D01*
X70472375Y-41680861D01*
X70472377Y-41680861D01*
X70472379Y-41680863D01*
X70580823Y-41725781D01*
X70606291Y-41736330D01*
X70750000Y-41755250D01*
X70893709Y-41736330D01*
X71027625Y-41680861D01*
X71142621Y-41592621D01*
X71230861Y-41477625D01*
X71286330Y-41343709D01*
X71292485Y-41296952D01*
X71298627Y-41278855D01*
X71326338Y-41230861D01*
X71344799Y-41198886D01*
X71360149Y-41141597D01*
X71375500Y-41084311D01*
X71375500Y-38558824D01*
X71385625Y-38528996D01*
X71405861Y-38502625D01*
X71461330Y-38368709D01*
X71480250Y-38225000D01*
X71461330Y-38081291D01*
X71413100Y-37964852D01*
X71405863Y-37947379D01*
X71405860Y-37947374D01*
X71363846Y-37892621D01*
X71317621Y-37832379D01*
X71202625Y-37744139D01*
X71202620Y-37744136D01*
X71068708Y-37688669D01*
X70925000Y-37669750D01*
X70781291Y-37688669D01*
X70647379Y-37744136D01*
X70647374Y-37744139D01*
X70532379Y-37832378D01*
X70532378Y-37832379D01*
X70444139Y-37947374D01*
X70444136Y-37947379D01*
X70388669Y-38081291D01*
X70369750Y-38225000D01*
X70388669Y-38368708D01*
X70444136Y-38502620D01*
X70444137Y-38502621D01*
X70444139Y-38502625D01*
X70464374Y-38528996D01*
X70474500Y-38558824D01*
X70474500Y-40693344D01*
X70460148Y-40727992D01*
X70455330Y-40732218D01*
X70357377Y-40807380D01*
X70269139Y-40922374D01*
X70269136Y-40922379D01*
X70213669Y-41056291D01*
X70194750Y-41200000D01*
X67950500Y-41200000D01*
X67950500Y-38780901D01*
X67964852Y-38746253D01*
X67980744Y-38735633D01*
X68052625Y-38705861D01*
X68167621Y-38617621D01*
X68255861Y-38502625D01*
X68311330Y-38368709D01*
X68330250Y-38225000D01*
X68311330Y-38081291D01*
X68263100Y-37964852D01*
X68255863Y-37947379D01*
X68255860Y-37947374D01*
X68213846Y-37892621D01*
X68167621Y-37832379D01*
X68052625Y-37744139D01*
X68052620Y-37744136D01*
X67918708Y-37688669D01*
X67775000Y-37669750D01*
X67631291Y-37688669D01*
X67497379Y-37744136D01*
X67497374Y-37744139D01*
X67382379Y-37832378D01*
X67382378Y-37832379D01*
X67294139Y-37947374D01*
X67294136Y-37947379D01*
X67238669Y-38081291D01*
X67234331Y-38114246D01*
X67220398Y-38142498D01*
X67139511Y-38223385D01*
X67080201Y-38326111D01*
X67078532Y-38332343D01*
X67078531Y-38332342D01*
X67078531Y-38332346D01*
X67049500Y-38440688D01*
X67049500Y-41954452D01*
X67035148Y-41989100D01*
X67019251Y-41999722D01*
X66972379Y-42019136D01*
X66972374Y-42019139D01*
X66857379Y-42107378D01*
X66857378Y-42107379D01*
X66769139Y-42222374D01*
X66769136Y-42222379D01*
X66713669Y-42356291D01*
X66694750Y-42500000D01*
X63195682Y-42500000D01*
X62771656Y-42075974D01*
X62757304Y-42041326D01*
X62757722Y-42034939D01*
X62761500Y-42006250D01*
X62742580Y-41862541D01*
X62712963Y-41791038D01*
X62687113Y-41728629D01*
X62687110Y-41728624D01*
X62684928Y-41725781D01*
X62598871Y-41613629D01*
X62598868Y-41613627D01*
X62483875Y-41525389D01*
X62483870Y-41525386D01*
X62349958Y-41469919D01*
X62206250Y-41451000D01*
X62062541Y-41469919D01*
X61928629Y-41525386D01*
X61928624Y-41525389D01*
X61813630Y-41613627D01*
X61796018Y-41636580D01*
X61763539Y-41655331D01*
X61757144Y-41655750D01*
X60049000Y-41655750D01*
X60014352Y-41641398D01*
X60000000Y-41606750D01*
X60000000Y-40750000D01*
X64944750Y-40750000D01*
X64963669Y-40893708D01*
X65019136Y-41027620D01*
X65019139Y-41027625D01*
X65107379Y-41142621D01*
X65222375Y-41230861D01*
X65222377Y-41230861D01*
X65222379Y-41230863D01*
X65338230Y-41278849D01*
X65356291Y-41286330D01*
X65500000Y-41305250D01*
X65643709Y-41286330D01*
X65777625Y-41230861D01*
X65892621Y-41142621D01*
X65980861Y-41027625D01*
X66036330Y-40893709D01*
X66055250Y-40750000D01*
X66036330Y-40606291D01*
X65980861Y-40472375D01*
X65892621Y-40357379D01*
X65777625Y-40269139D01*
X65777620Y-40269136D01*
X65643708Y-40213669D01*
X65500000Y-40194750D01*
X65356291Y-40213669D01*
X65222379Y-40269136D01*
X65222374Y-40269139D01*
X65107379Y-40357378D01*
X65107378Y-40357379D01*
X65019139Y-40472374D01*
X65019136Y-40472379D01*
X64963669Y-40606291D01*
X64944750Y-40750000D01*
X60000000Y-40750000D01*
X60000000Y-37999500D01*
X60014352Y-37964852D01*
X60049000Y-37950500D01*
X61766175Y-37950500D01*
X61796002Y-37960624D01*
X61822375Y-37980861D01*
X61822378Y-37980862D01*
X61822379Y-37980863D01*
X61867374Y-37999500D01*
X61956291Y-38036330D01*
X62100000Y-38055250D01*
X62243709Y-38036330D01*
X62377625Y-37980861D01*
X62492621Y-37892621D01*
X62580861Y-37777625D01*
X62636330Y-37643709D01*
X62655250Y-37500000D01*
X62636330Y-37356291D01*
X62580863Y-37222379D01*
X62580860Y-37222374D01*
X62492621Y-37107379D01*
X62492620Y-37107378D01*
X62377625Y-37019139D01*
X62377620Y-37019136D01*
X62243708Y-36963669D01*
X62100000Y-36944750D01*
X61956291Y-36963669D01*
X61822379Y-37019136D01*
X61822375Y-37019138D01*
X61822375Y-37019139D01*
X61796002Y-37039375D01*
X61766175Y-37049500D01*
X60049000Y-37049500D01*
X60014352Y-37035148D01*
X60000000Y-37000500D01*
X60000000Y-36400000D01*
X75894785Y-36400000D01*
X75913602Y-36603079D01*
X75913603Y-36603085D01*
X75969417Y-36799248D01*
X75969420Y-36799255D01*
X76060325Y-36981818D01*
X76060328Y-36981822D01*
X76183233Y-37144576D01*
X76183236Y-37144579D01*
X76333954Y-37281977D01*
X76333955Y-37281978D01*
X76333959Y-37281981D01*
X76507363Y-37389348D01*
X76697544Y-37463024D01*
X76898024Y-37500500D01*
X76898026Y-37500500D01*
X77101974Y-37500500D01*
X77101976Y-37500500D01*
X77302456Y-37463024D01*
X77492637Y-37389348D01*
X77666041Y-37281981D01*
X77816764Y-37144579D01*
X77939673Y-36981821D01*
X78030582Y-36799250D01*
X78086397Y-36603083D01*
X78105215Y-36400000D01*
X78086397Y-36196917D01*
X78030582Y-36000750D01*
X77939673Y-35818179D01*
X77816764Y-35655421D01*
X77816763Y-35655420D01*
X77666045Y-35518022D01*
X77666042Y-35518020D01*
X77666041Y-35518019D01*
X77492637Y-35410652D01*
X77492634Y-35410651D01*
X77492633Y-35410650D01*
X77302462Y-35336978D01*
X77302460Y-35336977D01*
X77302456Y-35336976D01*
X77101976Y-35299500D01*
X76898024Y-35299500D01*
X76697544Y-35336976D01*
X76697540Y-35336977D01*
X76697537Y-35336978D01*
X76507366Y-35410650D01*
X76333954Y-35518022D01*
X76183236Y-35655420D01*
X76183233Y-35655423D01*
X76060328Y-35818177D01*
X76060325Y-35818181D01*
X75969420Y-36000744D01*
X75969417Y-36000751D01*
X75913603Y-36196914D01*
X75913602Y-36196920D01*
X75894785Y-36400000D01*
X60000000Y-36400000D01*
X60000000Y-33860001D01*
X75894785Y-33860001D01*
X75913602Y-34063080D01*
X75913603Y-34063086D01*
X75969417Y-34259249D01*
X75969420Y-34259256D01*
X76060325Y-34441819D01*
X76060328Y-34441823D01*
X76183233Y-34604577D01*
X76183236Y-34604580D01*
X76333954Y-34741978D01*
X76333955Y-34741979D01*
X76333959Y-34741982D01*
X76507363Y-34849349D01*
X76697544Y-34923025D01*
X76898024Y-34960501D01*
X76898026Y-34960501D01*
X77101974Y-34960501D01*
X77101976Y-34960501D01*
X77302456Y-34923025D01*
X77492637Y-34849349D01*
X77666041Y-34741982D01*
X77816764Y-34604580D01*
X77939673Y-34441822D01*
X78030582Y-34259251D01*
X78086397Y-34063084D01*
X78105215Y-33860001D01*
X78086397Y-33656918D01*
X78030582Y-33460751D01*
X77939673Y-33278180D01*
X77816764Y-33115422D01*
X77816763Y-33115421D01*
X77666045Y-32978023D01*
X77666042Y-32978021D01*
X77666041Y-32978020D01*
X77492637Y-32870653D01*
X77492634Y-32870652D01*
X77492633Y-32870651D01*
X77302462Y-32796979D01*
X77302460Y-32796978D01*
X77302456Y-32796977D01*
X77101976Y-32759501D01*
X76898024Y-32759501D01*
X76697544Y-32796977D01*
X76697540Y-32796978D01*
X76697537Y-32796979D01*
X76507366Y-32870651D01*
X76333954Y-32978023D01*
X76183236Y-33115421D01*
X76183233Y-33115424D01*
X76060328Y-33278178D01*
X76060325Y-33278182D01*
X75969420Y-33460745D01*
X75969417Y-33460752D01*
X75913603Y-33656915D01*
X75913602Y-33656921D01*
X75894785Y-33860001D01*
X60000000Y-33860001D01*
X60000000Y-30445323D01*
X75899500Y-30445323D01*
X75899500Y-32194678D01*
X75914033Y-32267740D01*
X75969398Y-32350602D01*
X76052260Y-32405967D01*
X76125326Y-32420501D01*
X77874674Y-32420501D01*
X77947740Y-32405967D01*
X78030601Y-32350602D01*
X78085966Y-32267741D01*
X78100500Y-32194675D01*
X78100500Y-30445327D01*
X78085966Y-30372261D01*
X78030601Y-30289399D01*
X77947739Y-30234034D01*
X77874677Y-30219501D01*
X77874674Y-30219501D01*
X76125326Y-30219501D01*
X76125322Y-30219501D01*
X76052260Y-30234034D01*
X75969398Y-30289399D01*
X75914033Y-30372261D01*
X75899500Y-30445323D01*
X60000000Y-30445323D01*
X60000000Y-27000000D01*
X73844475Y-27000000D01*
X73864551Y-27293512D01*
X73924405Y-27581546D01*
X73924408Y-27581554D01*
X74022928Y-27858764D01*
X74022932Y-27858771D01*
X74158276Y-28119972D01*
X74158280Y-28119980D01*
X74243106Y-28240151D01*
X74327935Y-28360326D01*
X74528740Y-28575335D01*
X74756951Y-28760999D01*
X75008318Y-28913859D01*
X75278159Y-29031067D01*
X75561445Y-29110440D01*
X75812841Y-29144993D01*
X75852901Y-29150500D01*
X75852902Y-29150500D01*
X76147099Y-29150500D01*
X76182318Y-29145659D01*
X76438555Y-29110440D01*
X76721841Y-29031067D01*
X76991682Y-28913859D01*
X77243049Y-28760999D01*
X77471260Y-28575335D01*
X77672065Y-28360326D01*
X77841722Y-28119976D01*
X77977072Y-27858764D01*
X78075592Y-27581554D01*
X78135448Y-27293511D01*
X78155525Y-27000000D01*
X78135448Y-26706489D01*
X78134447Y-26701671D01*
X78075594Y-26418453D01*
X78070723Y-26404746D01*
X77977072Y-26141236D01*
X77841722Y-25880024D01*
X77841720Y-25880021D01*
X77841719Y-25880019D01*
X77787189Y-25802768D01*
X77672065Y-25639674D01*
X77471260Y-25424665D01*
X77243049Y-25239001D01*
X76991682Y-25086141D01*
X76991678Y-25086139D01*
X76991676Y-25086138D01*
X76721842Y-24968933D01*
X76438560Y-24889561D01*
X76438555Y-24889560D01*
X76147099Y-24849500D01*
X76147098Y-24849500D01*
X75852902Y-24849500D01*
X75852901Y-24849500D01*
X75561444Y-24889560D01*
X75561439Y-24889561D01*
X75278157Y-24968933D01*
X75008323Y-25086138D01*
X74756949Y-25239002D01*
X74528748Y-25424658D01*
X74528737Y-25424668D01*
X74327939Y-25639669D01*
X74327933Y-25639677D01*
X74158280Y-25880019D01*
X74158276Y-25880027D01*
X74022932Y-26141228D01*
X74022928Y-26141237D01*
X73924405Y-26418453D01*
X73864551Y-26706487D01*
X73844475Y-27000000D01*
X60000000Y-27000000D01*
X60000000Y-24549500D01*
X60014352Y-24514852D01*
X60049000Y-24500500D01*
X75934108Y-24500500D01*
X75998512Y-24500500D01*
X76001470Y-24500589D01*
G37*
%TD.AperFunction*%
%TD*%
M02*
