%TF.GenerationSoftware,KiCad,Pcbnew,8.0.8-8.0.8-0~ubuntu22.04.1*%
%TF.CreationDate,2025-03-05T22:54:23+01:00*%
%TF.ProjectId,GLITCHING_FMAW,474c4954-4348-4494-9e47-5f464d41572e,rev?*%
%TF.SameCoordinates,Original*%
%TF.FileFunction,AssemblyDrawing,Top*%
%FSLAX46Y46*%
G04 Gerber Fmt 4.6, Leading zero omitted, Abs format (unit mm)*
G04 Created by KiCad (PCBNEW 8.0.8-8.0.8-0~ubuntu22.04.1) date 2025-03-05 22:54:23*
%MOMM*%
%LPD*%
G01*
G04 APERTURE LIST*
%ADD10C,0.060000*%
%ADD11C,0.120000*%
%ADD12C,0.150000*%
%ADD13C,0.075000*%
%ADD14C,0.100000*%
G04 APERTURE END LIST*
D10*
X66933333Y-35031927D02*
X66800000Y-34841451D01*
X66704762Y-35031927D02*
X66704762Y-34631927D01*
X66704762Y-34631927D02*
X66857143Y-34631927D01*
X66857143Y-34631927D02*
X66895238Y-34650975D01*
X66895238Y-34650975D02*
X66914285Y-34670022D01*
X66914285Y-34670022D02*
X66933333Y-34708118D01*
X66933333Y-34708118D02*
X66933333Y-34765260D01*
X66933333Y-34765260D02*
X66914285Y-34803356D01*
X66914285Y-34803356D02*
X66895238Y-34822403D01*
X66895238Y-34822403D02*
X66857143Y-34841451D01*
X66857143Y-34841451D02*
X66704762Y-34841451D01*
X67295238Y-34631927D02*
X67104762Y-34631927D01*
X67104762Y-34631927D02*
X67085714Y-34822403D01*
X67085714Y-34822403D02*
X67104762Y-34803356D01*
X67104762Y-34803356D02*
X67142857Y-34784308D01*
X67142857Y-34784308D02*
X67238095Y-34784308D01*
X67238095Y-34784308D02*
X67276190Y-34803356D01*
X67276190Y-34803356D02*
X67295238Y-34822403D01*
X67295238Y-34822403D02*
X67314285Y-34860499D01*
X67314285Y-34860499D02*
X67314285Y-34955737D01*
X67314285Y-34955737D02*
X67295238Y-34993832D01*
X67295238Y-34993832D02*
X67276190Y-35012880D01*
X67276190Y-35012880D02*
X67238095Y-35031927D01*
X67238095Y-35031927D02*
X67142857Y-35031927D01*
X67142857Y-35031927D02*
X67104762Y-35012880D01*
X67104762Y-35012880D02*
X67085714Y-34993832D01*
D11*
X67337664Y-26783332D02*
X67375760Y-26821428D01*
X67375760Y-26821428D02*
X67413855Y-26935713D01*
X67413855Y-26935713D02*
X67413855Y-27011904D01*
X67413855Y-27011904D02*
X67375760Y-27126190D01*
X67375760Y-27126190D02*
X67299569Y-27202380D01*
X67299569Y-27202380D02*
X67223379Y-27240475D01*
X67223379Y-27240475D02*
X67070998Y-27278571D01*
X67070998Y-27278571D02*
X66956712Y-27278571D01*
X66956712Y-27278571D02*
X66804331Y-27240475D01*
X66804331Y-27240475D02*
X66728140Y-27202380D01*
X66728140Y-27202380D02*
X66651950Y-27126190D01*
X66651950Y-27126190D02*
X66613855Y-27011904D01*
X66613855Y-27011904D02*
X66613855Y-26935713D01*
X66613855Y-26935713D02*
X66651950Y-26821428D01*
X66651950Y-26821428D02*
X66690045Y-26783332D01*
X66613855Y-26059523D02*
X66613855Y-26440475D01*
X66613855Y-26440475D02*
X66994807Y-26478571D01*
X66994807Y-26478571D02*
X66956712Y-26440475D01*
X66956712Y-26440475D02*
X66918617Y-26364285D01*
X66918617Y-26364285D02*
X66918617Y-26173809D01*
X66918617Y-26173809D02*
X66956712Y-26097618D01*
X66956712Y-26097618D02*
X66994807Y-26059523D01*
X66994807Y-26059523D02*
X67070998Y-26021428D01*
X67070998Y-26021428D02*
X67261474Y-26021428D01*
X67261474Y-26021428D02*
X67337664Y-26059523D01*
X67337664Y-26059523D02*
X67375760Y-26097618D01*
X67375760Y-26097618D02*
X67413855Y-26173809D01*
X67413855Y-26173809D02*
X67413855Y-26364285D01*
X67413855Y-26364285D02*
X67375760Y-26440475D01*
X67375760Y-26440475D02*
X67337664Y-26478571D01*
D10*
X72593832Y-39257142D02*
X72612880Y-39276190D01*
X72612880Y-39276190D02*
X72631927Y-39333332D01*
X72631927Y-39333332D02*
X72631927Y-39371428D01*
X72631927Y-39371428D02*
X72612880Y-39428571D01*
X72612880Y-39428571D02*
X72574784Y-39466666D01*
X72574784Y-39466666D02*
X72536689Y-39485713D01*
X72536689Y-39485713D02*
X72460499Y-39504761D01*
X72460499Y-39504761D02*
X72403356Y-39504761D01*
X72403356Y-39504761D02*
X72327165Y-39485713D01*
X72327165Y-39485713D02*
X72289070Y-39466666D01*
X72289070Y-39466666D02*
X72250975Y-39428571D01*
X72250975Y-39428571D02*
X72231927Y-39371428D01*
X72231927Y-39371428D02*
X72231927Y-39333332D01*
X72231927Y-39333332D02*
X72250975Y-39276190D01*
X72250975Y-39276190D02*
X72270022Y-39257142D01*
X72631927Y-38876190D02*
X72631927Y-39104761D01*
X72631927Y-38990475D02*
X72231927Y-38990475D01*
X72231927Y-38990475D02*
X72289070Y-39028571D01*
X72289070Y-39028571D02*
X72327165Y-39066666D01*
X72327165Y-39066666D02*
X72346213Y-39104761D01*
X72365260Y-38533333D02*
X72631927Y-38533333D01*
X72212880Y-38628571D02*
X72498594Y-38723809D01*
X72498594Y-38723809D02*
X72498594Y-38476190D01*
X65567857Y-43743832D02*
X65548809Y-43762880D01*
X65548809Y-43762880D02*
X65491667Y-43781927D01*
X65491667Y-43781927D02*
X65453571Y-43781927D01*
X65453571Y-43781927D02*
X65396428Y-43762880D01*
X65396428Y-43762880D02*
X65358333Y-43724784D01*
X65358333Y-43724784D02*
X65339286Y-43686689D01*
X65339286Y-43686689D02*
X65320238Y-43610499D01*
X65320238Y-43610499D02*
X65320238Y-43553356D01*
X65320238Y-43553356D02*
X65339286Y-43477165D01*
X65339286Y-43477165D02*
X65358333Y-43439070D01*
X65358333Y-43439070D02*
X65396428Y-43400975D01*
X65396428Y-43400975D02*
X65453571Y-43381927D01*
X65453571Y-43381927D02*
X65491667Y-43381927D01*
X65491667Y-43381927D02*
X65548809Y-43400975D01*
X65548809Y-43400975D02*
X65567857Y-43420022D01*
X65720238Y-43420022D02*
X65739286Y-43400975D01*
X65739286Y-43400975D02*
X65777381Y-43381927D01*
X65777381Y-43381927D02*
X65872619Y-43381927D01*
X65872619Y-43381927D02*
X65910714Y-43400975D01*
X65910714Y-43400975D02*
X65929762Y-43420022D01*
X65929762Y-43420022D02*
X65948809Y-43458118D01*
X65948809Y-43458118D02*
X65948809Y-43496213D01*
X65948809Y-43496213D02*
X65929762Y-43553356D01*
X65929762Y-43553356D02*
X65701190Y-43781927D01*
X65701190Y-43781927D02*
X65948809Y-43781927D01*
X66329761Y-43781927D02*
X66101190Y-43781927D01*
X66215476Y-43781927D02*
X66215476Y-43381927D01*
X66215476Y-43381927D02*
X66177380Y-43439070D01*
X66177380Y-43439070D02*
X66139285Y-43477165D01*
X66139285Y-43477165D02*
X66101190Y-43496213D01*
D12*
X76454819Y-62793333D02*
X77169104Y-62793333D01*
X77169104Y-62793333D02*
X77311961Y-62840952D01*
X77311961Y-62840952D02*
X77407200Y-62936190D01*
X77407200Y-62936190D02*
X77454819Y-63079047D01*
X77454819Y-63079047D02*
X77454819Y-63174285D01*
X76454819Y-62412380D02*
X76454819Y-61793333D01*
X76454819Y-61793333D02*
X76835771Y-62126666D01*
X76835771Y-62126666D02*
X76835771Y-61983809D01*
X76835771Y-61983809D02*
X76883390Y-61888571D01*
X76883390Y-61888571D02*
X76931009Y-61840952D01*
X76931009Y-61840952D02*
X77026247Y-61793333D01*
X77026247Y-61793333D02*
X77264342Y-61793333D01*
X77264342Y-61793333D02*
X77359580Y-61840952D01*
X77359580Y-61840952D02*
X77407200Y-61888571D01*
X77407200Y-61888571D02*
X77454819Y-61983809D01*
X77454819Y-61983809D02*
X77454819Y-62269523D01*
X77454819Y-62269523D02*
X77407200Y-62364761D01*
X77407200Y-62364761D02*
X77359580Y-62412380D01*
D10*
X69358333Y-36681927D02*
X69225000Y-36491451D01*
X69129762Y-36681927D02*
X69129762Y-36281927D01*
X69129762Y-36281927D02*
X69282143Y-36281927D01*
X69282143Y-36281927D02*
X69320238Y-36300975D01*
X69320238Y-36300975D02*
X69339285Y-36320022D01*
X69339285Y-36320022D02*
X69358333Y-36358118D01*
X69358333Y-36358118D02*
X69358333Y-36415260D01*
X69358333Y-36415260D02*
X69339285Y-36453356D01*
X69339285Y-36453356D02*
X69320238Y-36472403D01*
X69320238Y-36472403D02*
X69282143Y-36491451D01*
X69282143Y-36491451D02*
X69129762Y-36491451D01*
X69491666Y-36281927D02*
X69739285Y-36281927D01*
X69739285Y-36281927D02*
X69605952Y-36434308D01*
X69605952Y-36434308D02*
X69663095Y-36434308D01*
X69663095Y-36434308D02*
X69701190Y-36453356D01*
X69701190Y-36453356D02*
X69720238Y-36472403D01*
X69720238Y-36472403D02*
X69739285Y-36510499D01*
X69739285Y-36510499D02*
X69739285Y-36605737D01*
X69739285Y-36605737D02*
X69720238Y-36643832D01*
X69720238Y-36643832D02*
X69701190Y-36662880D01*
X69701190Y-36662880D02*
X69663095Y-36681927D01*
X69663095Y-36681927D02*
X69548809Y-36681927D01*
X69548809Y-36681927D02*
X69510714Y-36662880D01*
X69510714Y-36662880D02*
X69491666Y-36643832D01*
D13*
X40530952Y-45707409D02*
X40530952Y-45207409D01*
X40530952Y-45207409D02*
X40650000Y-45207409D01*
X40650000Y-45207409D02*
X40721428Y-45231219D01*
X40721428Y-45231219D02*
X40769047Y-45278838D01*
X40769047Y-45278838D02*
X40792857Y-45326457D01*
X40792857Y-45326457D02*
X40816666Y-45421695D01*
X40816666Y-45421695D02*
X40816666Y-45493123D01*
X40816666Y-45493123D02*
X40792857Y-45588361D01*
X40792857Y-45588361D02*
X40769047Y-45635980D01*
X40769047Y-45635980D02*
X40721428Y-45683600D01*
X40721428Y-45683600D02*
X40650000Y-45707409D01*
X40650000Y-45707409D02*
X40530952Y-45707409D01*
X41245238Y-45374076D02*
X41245238Y-45707409D01*
X41126190Y-45183600D02*
X41007143Y-45540742D01*
X41007143Y-45540742D02*
X41316666Y-45540742D01*
D10*
X70017857Y-51843832D02*
X69998809Y-51862880D01*
X69998809Y-51862880D02*
X69941667Y-51881927D01*
X69941667Y-51881927D02*
X69903571Y-51881927D01*
X69903571Y-51881927D02*
X69846428Y-51862880D01*
X69846428Y-51862880D02*
X69808333Y-51824784D01*
X69808333Y-51824784D02*
X69789286Y-51786689D01*
X69789286Y-51786689D02*
X69770238Y-51710499D01*
X69770238Y-51710499D02*
X69770238Y-51653356D01*
X69770238Y-51653356D02*
X69789286Y-51577165D01*
X69789286Y-51577165D02*
X69808333Y-51539070D01*
X69808333Y-51539070D02*
X69846428Y-51500975D01*
X69846428Y-51500975D02*
X69903571Y-51481927D01*
X69903571Y-51481927D02*
X69941667Y-51481927D01*
X69941667Y-51481927D02*
X69998809Y-51500975D01*
X69998809Y-51500975D02*
X70017857Y-51520022D01*
X70398809Y-51881927D02*
X70170238Y-51881927D01*
X70284524Y-51881927D02*
X70284524Y-51481927D01*
X70284524Y-51481927D02*
X70246428Y-51539070D01*
X70246428Y-51539070D02*
X70208333Y-51577165D01*
X70208333Y-51577165D02*
X70170238Y-51596213D01*
X70760714Y-51481927D02*
X70570238Y-51481927D01*
X70570238Y-51481927D02*
X70551190Y-51672403D01*
X70551190Y-51672403D02*
X70570238Y-51653356D01*
X70570238Y-51653356D02*
X70608333Y-51634308D01*
X70608333Y-51634308D02*
X70703571Y-51634308D01*
X70703571Y-51634308D02*
X70741666Y-51653356D01*
X70741666Y-51653356D02*
X70760714Y-51672403D01*
X70760714Y-51672403D02*
X70779761Y-51710499D01*
X70779761Y-51710499D02*
X70779761Y-51805737D01*
X70779761Y-51805737D02*
X70760714Y-51843832D01*
X70760714Y-51843832D02*
X70741666Y-51862880D01*
X70741666Y-51862880D02*
X70703571Y-51881927D01*
X70703571Y-51881927D02*
X70608333Y-51881927D01*
X70608333Y-51881927D02*
X70570238Y-51862880D01*
X70570238Y-51862880D02*
X70551190Y-51843832D01*
X60264542Y-53927853D02*
X60283590Y-53946901D01*
X60283590Y-53946901D02*
X60302637Y-54004043D01*
X60302637Y-54004043D02*
X60302637Y-54042139D01*
X60302637Y-54042139D02*
X60283590Y-54099282D01*
X60283590Y-54099282D02*
X60245494Y-54137377D01*
X60245494Y-54137377D02*
X60207399Y-54156424D01*
X60207399Y-54156424D02*
X60131209Y-54175472D01*
X60131209Y-54175472D02*
X60074066Y-54175472D01*
X60074066Y-54175472D02*
X59997875Y-54156424D01*
X59997875Y-54156424D02*
X59959780Y-54137377D01*
X59959780Y-54137377D02*
X59921685Y-54099282D01*
X59921685Y-54099282D02*
X59902637Y-54042139D01*
X59902637Y-54042139D02*
X59902637Y-54004043D01*
X59902637Y-54004043D02*
X59921685Y-53946901D01*
X59921685Y-53946901D02*
X59940732Y-53927853D01*
X60302637Y-53546901D02*
X60302637Y-53775472D01*
X60302637Y-53661186D02*
X59902637Y-53661186D01*
X59902637Y-53661186D02*
X59959780Y-53699282D01*
X59959780Y-53699282D02*
X59997875Y-53737377D01*
X59997875Y-53737377D02*
X60016923Y-53775472D01*
X59902637Y-53413568D02*
X59902637Y-53146901D01*
X59902637Y-53146901D02*
X60302637Y-53318330D01*
D12*
X53856666Y-70154819D02*
X53856666Y-70869104D01*
X53856666Y-70869104D02*
X53809047Y-71011961D01*
X53809047Y-71011961D02*
X53713809Y-71107200D01*
X53713809Y-71107200D02*
X53570952Y-71154819D01*
X53570952Y-71154819D02*
X53475714Y-71154819D01*
X54809047Y-70154819D02*
X54332857Y-70154819D01*
X54332857Y-70154819D02*
X54285238Y-70631009D01*
X54285238Y-70631009D02*
X54332857Y-70583390D01*
X54332857Y-70583390D02*
X54428095Y-70535771D01*
X54428095Y-70535771D02*
X54666190Y-70535771D01*
X54666190Y-70535771D02*
X54761428Y-70583390D01*
X54761428Y-70583390D02*
X54809047Y-70631009D01*
X54809047Y-70631009D02*
X54856666Y-70726247D01*
X54856666Y-70726247D02*
X54856666Y-70964342D01*
X54856666Y-70964342D02*
X54809047Y-71059580D01*
X54809047Y-71059580D02*
X54761428Y-71107200D01*
X54761428Y-71107200D02*
X54666190Y-71154819D01*
X54666190Y-71154819D02*
X54428095Y-71154819D01*
X54428095Y-71154819D02*
X54332857Y-71107200D01*
X54332857Y-71107200D02*
X54285238Y-71059580D01*
D10*
X58881927Y-62482142D02*
X58691451Y-62615475D01*
X58881927Y-62710713D02*
X58481927Y-62710713D01*
X58481927Y-62710713D02*
X58481927Y-62558332D01*
X58481927Y-62558332D02*
X58500975Y-62520237D01*
X58500975Y-62520237D02*
X58520022Y-62501190D01*
X58520022Y-62501190D02*
X58558118Y-62482142D01*
X58558118Y-62482142D02*
X58615260Y-62482142D01*
X58615260Y-62482142D02*
X58653356Y-62501190D01*
X58653356Y-62501190D02*
X58672403Y-62520237D01*
X58672403Y-62520237D02*
X58691451Y-62558332D01*
X58691451Y-62558332D02*
X58691451Y-62710713D01*
X58881927Y-62101190D02*
X58881927Y-62329761D01*
X58881927Y-62215475D02*
X58481927Y-62215475D01*
X58481927Y-62215475D02*
X58539070Y-62253571D01*
X58539070Y-62253571D02*
X58577165Y-62291666D01*
X58577165Y-62291666D02*
X58596213Y-62329761D01*
X58615260Y-61758333D02*
X58881927Y-61758333D01*
X58462880Y-61853571D02*
X58748594Y-61948809D01*
X58748594Y-61948809D02*
X58748594Y-61701190D01*
X60581927Y-62482142D02*
X60391451Y-62615475D01*
X60581927Y-62710713D02*
X60181927Y-62710713D01*
X60181927Y-62710713D02*
X60181927Y-62558332D01*
X60181927Y-62558332D02*
X60200975Y-62520237D01*
X60200975Y-62520237D02*
X60220022Y-62501190D01*
X60220022Y-62501190D02*
X60258118Y-62482142D01*
X60258118Y-62482142D02*
X60315260Y-62482142D01*
X60315260Y-62482142D02*
X60353356Y-62501190D01*
X60353356Y-62501190D02*
X60372403Y-62520237D01*
X60372403Y-62520237D02*
X60391451Y-62558332D01*
X60391451Y-62558332D02*
X60391451Y-62710713D01*
X60581927Y-62101190D02*
X60581927Y-62329761D01*
X60581927Y-62215475D02*
X60181927Y-62215475D01*
X60181927Y-62215475D02*
X60239070Y-62253571D01*
X60239070Y-62253571D02*
X60277165Y-62291666D01*
X60277165Y-62291666D02*
X60296213Y-62329761D01*
X60181927Y-61967857D02*
X60181927Y-61720238D01*
X60181927Y-61720238D02*
X60334308Y-61853571D01*
X60334308Y-61853571D02*
X60334308Y-61796428D01*
X60334308Y-61796428D02*
X60353356Y-61758333D01*
X60353356Y-61758333D02*
X60372403Y-61739285D01*
X60372403Y-61739285D02*
X60410499Y-61720238D01*
X60410499Y-61720238D02*
X60505737Y-61720238D01*
X60505737Y-61720238D02*
X60543832Y-61739285D01*
X60543832Y-61739285D02*
X60562880Y-61758333D01*
X60562880Y-61758333D02*
X60581927Y-61796428D01*
X60581927Y-61796428D02*
X60581927Y-61910714D01*
X60581927Y-61910714D02*
X60562880Y-61948809D01*
X60562880Y-61948809D02*
X60543832Y-61967857D01*
X72508333Y-36681927D02*
X72375000Y-36491451D01*
X72279762Y-36681927D02*
X72279762Y-36281927D01*
X72279762Y-36281927D02*
X72432143Y-36281927D01*
X72432143Y-36281927D02*
X72470238Y-36300975D01*
X72470238Y-36300975D02*
X72489285Y-36320022D01*
X72489285Y-36320022D02*
X72508333Y-36358118D01*
X72508333Y-36358118D02*
X72508333Y-36415260D01*
X72508333Y-36415260D02*
X72489285Y-36453356D01*
X72489285Y-36453356D02*
X72470238Y-36472403D01*
X72470238Y-36472403D02*
X72432143Y-36491451D01*
X72432143Y-36491451D02*
X72279762Y-36491451D01*
X72851190Y-36415260D02*
X72851190Y-36681927D01*
X72755952Y-36262880D02*
X72660714Y-36548594D01*
X72660714Y-36548594D02*
X72908333Y-36548594D01*
D11*
X44787664Y-27258333D02*
X44825760Y-27296429D01*
X44825760Y-27296429D02*
X44863855Y-27410714D01*
X44863855Y-27410714D02*
X44863855Y-27486905D01*
X44863855Y-27486905D02*
X44825760Y-27601191D01*
X44825760Y-27601191D02*
X44749569Y-27677381D01*
X44749569Y-27677381D02*
X44673379Y-27715476D01*
X44673379Y-27715476D02*
X44520998Y-27753572D01*
X44520998Y-27753572D02*
X44406712Y-27753572D01*
X44406712Y-27753572D02*
X44254331Y-27715476D01*
X44254331Y-27715476D02*
X44178140Y-27677381D01*
X44178140Y-27677381D02*
X44101950Y-27601191D01*
X44101950Y-27601191D02*
X44063855Y-27486905D01*
X44063855Y-27486905D02*
X44063855Y-27410714D01*
X44063855Y-27410714D02*
X44101950Y-27296429D01*
X44101950Y-27296429D02*
X44140045Y-27258333D01*
X44330521Y-26572619D02*
X44863855Y-26572619D01*
X44025760Y-26763095D02*
X44597188Y-26953572D01*
X44597188Y-26953572D02*
X44597188Y-26458333D01*
D10*
X61793832Y-53032142D02*
X61812880Y-53051190D01*
X61812880Y-53051190D02*
X61831927Y-53108332D01*
X61831927Y-53108332D02*
X61831927Y-53146428D01*
X61831927Y-53146428D02*
X61812880Y-53203571D01*
X61812880Y-53203571D02*
X61774784Y-53241666D01*
X61774784Y-53241666D02*
X61736689Y-53260713D01*
X61736689Y-53260713D02*
X61660499Y-53279761D01*
X61660499Y-53279761D02*
X61603356Y-53279761D01*
X61603356Y-53279761D02*
X61527165Y-53260713D01*
X61527165Y-53260713D02*
X61489070Y-53241666D01*
X61489070Y-53241666D02*
X61450975Y-53203571D01*
X61450975Y-53203571D02*
X61431927Y-53146428D01*
X61431927Y-53146428D02*
X61431927Y-53108332D01*
X61431927Y-53108332D02*
X61450975Y-53051190D01*
X61450975Y-53051190D02*
X61470022Y-53032142D01*
X61470022Y-52879761D02*
X61450975Y-52860713D01*
X61450975Y-52860713D02*
X61431927Y-52822618D01*
X61431927Y-52822618D02*
X61431927Y-52727380D01*
X61431927Y-52727380D02*
X61450975Y-52689285D01*
X61450975Y-52689285D02*
X61470022Y-52670237D01*
X61470022Y-52670237D02*
X61508118Y-52651190D01*
X61508118Y-52651190D02*
X61546213Y-52651190D01*
X61546213Y-52651190D02*
X61603356Y-52670237D01*
X61603356Y-52670237D02*
X61831927Y-52898809D01*
X61831927Y-52898809D02*
X61831927Y-52651190D01*
X61431927Y-52308333D02*
X61431927Y-52384523D01*
X61431927Y-52384523D02*
X61450975Y-52422619D01*
X61450975Y-52422619D02*
X61470022Y-52441666D01*
X61470022Y-52441666D02*
X61527165Y-52479761D01*
X61527165Y-52479761D02*
X61603356Y-52498809D01*
X61603356Y-52498809D02*
X61755737Y-52498809D01*
X61755737Y-52498809D02*
X61793832Y-52479761D01*
X61793832Y-52479761D02*
X61812880Y-52460714D01*
X61812880Y-52460714D02*
X61831927Y-52422619D01*
X61831927Y-52422619D02*
X61831927Y-52346428D01*
X61831927Y-52346428D02*
X61812880Y-52308333D01*
X61812880Y-52308333D02*
X61793832Y-52289285D01*
X61793832Y-52289285D02*
X61755737Y-52270238D01*
X61755737Y-52270238D02*
X61660499Y-52270238D01*
X61660499Y-52270238D02*
X61622403Y-52289285D01*
X61622403Y-52289285D02*
X61603356Y-52308333D01*
X61603356Y-52308333D02*
X61584308Y-52346428D01*
X61584308Y-52346428D02*
X61584308Y-52422619D01*
X61584308Y-52422619D02*
X61603356Y-52460714D01*
X61603356Y-52460714D02*
X61622403Y-52479761D01*
X61622403Y-52479761D02*
X61660499Y-52498809D01*
X63343832Y-53032142D02*
X63362880Y-53051190D01*
X63362880Y-53051190D02*
X63381927Y-53108332D01*
X63381927Y-53108332D02*
X63381927Y-53146428D01*
X63381927Y-53146428D02*
X63362880Y-53203571D01*
X63362880Y-53203571D02*
X63324784Y-53241666D01*
X63324784Y-53241666D02*
X63286689Y-53260713D01*
X63286689Y-53260713D02*
X63210499Y-53279761D01*
X63210499Y-53279761D02*
X63153356Y-53279761D01*
X63153356Y-53279761D02*
X63077165Y-53260713D01*
X63077165Y-53260713D02*
X63039070Y-53241666D01*
X63039070Y-53241666D02*
X63000975Y-53203571D01*
X63000975Y-53203571D02*
X62981927Y-53146428D01*
X62981927Y-53146428D02*
X62981927Y-53108332D01*
X62981927Y-53108332D02*
X63000975Y-53051190D01*
X63000975Y-53051190D02*
X63020022Y-53032142D01*
X63020022Y-52879761D02*
X63000975Y-52860713D01*
X63000975Y-52860713D02*
X62981927Y-52822618D01*
X62981927Y-52822618D02*
X62981927Y-52727380D01*
X62981927Y-52727380D02*
X63000975Y-52689285D01*
X63000975Y-52689285D02*
X63020022Y-52670237D01*
X63020022Y-52670237D02*
X63058118Y-52651190D01*
X63058118Y-52651190D02*
X63096213Y-52651190D01*
X63096213Y-52651190D02*
X63153356Y-52670237D01*
X63153356Y-52670237D02*
X63381927Y-52898809D01*
X63381927Y-52898809D02*
X63381927Y-52651190D01*
X62981927Y-52403571D02*
X62981927Y-52365476D01*
X62981927Y-52365476D02*
X63000975Y-52327380D01*
X63000975Y-52327380D02*
X63020022Y-52308333D01*
X63020022Y-52308333D02*
X63058118Y-52289285D01*
X63058118Y-52289285D02*
X63134308Y-52270238D01*
X63134308Y-52270238D02*
X63229546Y-52270238D01*
X63229546Y-52270238D02*
X63305737Y-52289285D01*
X63305737Y-52289285D02*
X63343832Y-52308333D01*
X63343832Y-52308333D02*
X63362880Y-52327380D01*
X63362880Y-52327380D02*
X63381927Y-52365476D01*
X63381927Y-52365476D02*
X63381927Y-52403571D01*
X63381927Y-52403571D02*
X63362880Y-52441666D01*
X63362880Y-52441666D02*
X63343832Y-52460714D01*
X63343832Y-52460714D02*
X63305737Y-52479761D01*
X63305737Y-52479761D02*
X63229546Y-52498809D01*
X63229546Y-52498809D02*
X63134308Y-52498809D01*
X63134308Y-52498809D02*
X63058118Y-52479761D01*
X63058118Y-52479761D02*
X63020022Y-52460714D01*
X63020022Y-52460714D02*
X63000975Y-52441666D01*
X63000975Y-52441666D02*
X62981927Y-52403571D01*
X61343832Y-39482142D02*
X61362880Y-39501190D01*
X61362880Y-39501190D02*
X61381927Y-39558332D01*
X61381927Y-39558332D02*
X61381927Y-39596428D01*
X61381927Y-39596428D02*
X61362880Y-39653571D01*
X61362880Y-39653571D02*
X61324784Y-39691666D01*
X61324784Y-39691666D02*
X61286689Y-39710713D01*
X61286689Y-39710713D02*
X61210499Y-39729761D01*
X61210499Y-39729761D02*
X61153356Y-39729761D01*
X61153356Y-39729761D02*
X61077165Y-39710713D01*
X61077165Y-39710713D02*
X61039070Y-39691666D01*
X61039070Y-39691666D02*
X61000975Y-39653571D01*
X61000975Y-39653571D02*
X60981927Y-39596428D01*
X60981927Y-39596428D02*
X60981927Y-39558332D01*
X60981927Y-39558332D02*
X61000975Y-39501190D01*
X61000975Y-39501190D02*
X61020022Y-39482142D01*
X61020022Y-39329761D02*
X61000975Y-39310713D01*
X61000975Y-39310713D02*
X60981927Y-39272618D01*
X60981927Y-39272618D02*
X60981927Y-39177380D01*
X60981927Y-39177380D02*
X61000975Y-39139285D01*
X61000975Y-39139285D02*
X61020022Y-39120237D01*
X61020022Y-39120237D02*
X61058118Y-39101190D01*
X61058118Y-39101190D02*
X61096213Y-39101190D01*
X61096213Y-39101190D02*
X61153356Y-39120237D01*
X61153356Y-39120237D02*
X61381927Y-39348809D01*
X61381927Y-39348809D02*
X61381927Y-39101190D01*
X60981927Y-38967857D02*
X60981927Y-38701190D01*
X60981927Y-38701190D02*
X61381927Y-38872619D01*
X51142857Y-47743832D02*
X51123809Y-47762880D01*
X51123809Y-47762880D02*
X51066667Y-47781927D01*
X51066667Y-47781927D02*
X51028571Y-47781927D01*
X51028571Y-47781927D02*
X50971428Y-47762880D01*
X50971428Y-47762880D02*
X50933333Y-47724784D01*
X50933333Y-47724784D02*
X50914286Y-47686689D01*
X50914286Y-47686689D02*
X50895238Y-47610499D01*
X50895238Y-47610499D02*
X50895238Y-47553356D01*
X50895238Y-47553356D02*
X50914286Y-47477165D01*
X50914286Y-47477165D02*
X50933333Y-47439070D01*
X50933333Y-47439070D02*
X50971428Y-47400975D01*
X50971428Y-47400975D02*
X51028571Y-47381927D01*
X51028571Y-47381927D02*
X51066667Y-47381927D01*
X51066667Y-47381927D02*
X51123809Y-47400975D01*
X51123809Y-47400975D02*
X51142857Y-47420022D01*
X51295238Y-47420022D02*
X51314286Y-47400975D01*
X51314286Y-47400975D02*
X51352381Y-47381927D01*
X51352381Y-47381927D02*
X51447619Y-47381927D01*
X51447619Y-47381927D02*
X51485714Y-47400975D01*
X51485714Y-47400975D02*
X51504762Y-47420022D01*
X51504762Y-47420022D02*
X51523809Y-47458118D01*
X51523809Y-47458118D02*
X51523809Y-47496213D01*
X51523809Y-47496213D02*
X51504762Y-47553356D01*
X51504762Y-47553356D02*
X51276190Y-47781927D01*
X51276190Y-47781927D02*
X51523809Y-47781927D01*
X51885714Y-47381927D02*
X51695238Y-47381927D01*
X51695238Y-47381927D02*
X51676190Y-47572403D01*
X51676190Y-47572403D02*
X51695238Y-47553356D01*
X51695238Y-47553356D02*
X51733333Y-47534308D01*
X51733333Y-47534308D02*
X51828571Y-47534308D01*
X51828571Y-47534308D02*
X51866666Y-47553356D01*
X51866666Y-47553356D02*
X51885714Y-47572403D01*
X51885714Y-47572403D02*
X51904761Y-47610499D01*
X51904761Y-47610499D02*
X51904761Y-47705737D01*
X51904761Y-47705737D02*
X51885714Y-47743832D01*
X51885714Y-47743832D02*
X51866666Y-47762880D01*
X51866666Y-47762880D02*
X51828571Y-47781927D01*
X51828571Y-47781927D02*
X51733333Y-47781927D01*
X51733333Y-47781927D02*
X51695238Y-47762880D01*
X51695238Y-47762880D02*
X51676190Y-47743832D01*
X77193832Y-40032142D02*
X77212880Y-40051190D01*
X77212880Y-40051190D02*
X77231927Y-40108332D01*
X77231927Y-40108332D02*
X77231927Y-40146428D01*
X77231927Y-40146428D02*
X77212880Y-40203571D01*
X77212880Y-40203571D02*
X77174784Y-40241666D01*
X77174784Y-40241666D02*
X77136689Y-40260713D01*
X77136689Y-40260713D02*
X77060499Y-40279761D01*
X77060499Y-40279761D02*
X77003356Y-40279761D01*
X77003356Y-40279761D02*
X76927165Y-40260713D01*
X76927165Y-40260713D02*
X76889070Y-40241666D01*
X76889070Y-40241666D02*
X76850975Y-40203571D01*
X76850975Y-40203571D02*
X76831927Y-40146428D01*
X76831927Y-40146428D02*
X76831927Y-40108332D01*
X76831927Y-40108332D02*
X76850975Y-40051190D01*
X76850975Y-40051190D02*
X76870022Y-40032142D01*
X77231927Y-39651190D02*
X77231927Y-39879761D01*
X77231927Y-39765475D02*
X76831927Y-39765475D01*
X76831927Y-39765475D02*
X76889070Y-39803571D01*
X76889070Y-39803571D02*
X76927165Y-39841666D01*
X76927165Y-39841666D02*
X76946213Y-39879761D01*
X76870022Y-39498809D02*
X76850975Y-39479761D01*
X76850975Y-39479761D02*
X76831927Y-39441666D01*
X76831927Y-39441666D02*
X76831927Y-39346428D01*
X76831927Y-39346428D02*
X76850975Y-39308333D01*
X76850975Y-39308333D02*
X76870022Y-39289285D01*
X76870022Y-39289285D02*
X76908118Y-39270238D01*
X76908118Y-39270238D02*
X76946213Y-39270238D01*
X76946213Y-39270238D02*
X77003356Y-39289285D01*
X77003356Y-39289285D02*
X77231927Y-39517857D01*
X77231927Y-39517857D02*
X77231927Y-39270238D01*
D12*
X76454819Y-34193334D02*
X77169104Y-34193334D01*
X77169104Y-34193334D02*
X77311961Y-34240953D01*
X77311961Y-34240953D02*
X77407200Y-34336191D01*
X77407200Y-34336191D02*
X77454819Y-34479048D01*
X77454819Y-34479048D02*
X77454819Y-34574286D01*
X76550057Y-33764762D02*
X76502438Y-33717143D01*
X76502438Y-33717143D02*
X76454819Y-33621905D01*
X76454819Y-33621905D02*
X76454819Y-33383810D01*
X76454819Y-33383810D02*
X76502438Y-33288572D01*
X76502438Y-33288572D02*
X76550057Y-33240953D01*
X76550057Y-33240953D02*
X76645295Y-33193334D01*
X76645295Y-33193334D02*
X76740533Y-33193334D01*
X76740533Y-33193334D02*
X76883390Y-33240953D01*
X76883390Y-33240953D02*
X77454819Y-33812381D01*
X77454819Y-33812381D02*
X77454819Y-33193334D01*
X65856666Y-70154819D02*
X65856666Y-70869104D01*
X65856666Y-70869104D02*
X65809047Y-71011961D01*
X65809047Y-71011961D02*
X65713809Y-71107200D01*
X65713809Y-71107200D02*
X65570952Y-71154819D01*
X65570952Y-71154819D02*
X65475714Y-71154819D01*
X66761428Y-70154819D02*
X66570952Y-70154819D01*
X66570952Y-70154819D02*
X66475714Y-70202438D01*
X66475714Y-70202438D02*
X66428095Y-70250057D01*
X66428095Y-70250057D02*
X66332857Y-70392914D01*
X66332857Y-70392914D02*
X66285238Y-70583390D01*
X66285238Y-70583390D02*
X66285238Y-70964342D01*
X66285238Y-70964342D02*
X66332857Y-71059580D01*
X66332857Y-71059580D02*
X66380476Y-71107200D01*
X66380476Y-71107200D02*
X66475714Y-71154819D01*
X66475714Y-71154819D02*
X66666190Y-71154819D01*
X66666190Y-71154819D02*
X66761428Y-71107200D01*
X66761428Y-71107200D02*
X66809047Y-71059580D01*
X66809047Y-71059580D02*
X66856666Y-70964342D01*
X66856666Y-70964342D02*
X66856666Y-70726247D01*
X66856666Y-70726247D02*
X66809047Y-70631009D01*
X66809047Y-70631009D02*
X66761428Y-70583390D01*
X66761428Y-70583390D02*
X66666190Y-70535771D01*
X66666190Y-70535771D02*
X66475714Y-70535771D01*
X66475714Y-70535771D02*
X66380476Y-70583390D01*
X66380476Y-70583390D02*
X66332857Y-70631009D01*
X66332857Y-70631009D02*
X66285238Y-70726247D01*
D11*
X54862664Y-30883333D02*
X54900760Y-30921429D01*
X54900760Y-30921429D02*
X54938855Y-31035714D01*
X54938855Y-31035714D02*
X54938855Y-31111905D01*
X54938855Y-31111905D02*
X54900760Y-31226191D01*
X54900760Y-31226191D02*
X54824569Y-31302381D01*
X54824569Y-31302381D02*
X54748379Y-31340476D01*
X54748379Y-31340476D02*
X54595998Y-31378572D01*
X54595998Y-31378572D02*
X54481712Y-31378572D01*
X54481712Y-31378572D02*
X54329331Y-31340476D01*
X54329331Y-31340476D02*
X54253140Y-31302381D01*
X54253140Y-31302381D02*
X54176950Y-31226191D01*
X54176950Y-31226191D02*
X54138855Y-31111905D01*
X54138855Y-31111905D02*
X54138855Y-31035714D01*
X54138855Y-31035714D02*
X54176950Y-30921429D01*
X54176950Y-30921429D02*
X54215045Y-30883333D01*
X54138855Y-30616667D02*
X54138855Y-30121429D01*
X54138855Y-30121429D02*
X54443617Y-30388095D01*
X54443617Y-30388095D02*
X54443617Y-30273810D01*
X54443617Y-30273810D02*
X54481712Y-30197619D01*
X54481712Y-30197619D02*
X54519807Y-30159524D01*
X54519807Y-30159524D02*
X54595998Y-30121429D01*
X54595998Y-30121429D02*
X54786474Y-30121429D01*
X54786474Y-30121429D02*
X54862664Y-30159524D01*
X54862664Y-30159524D02*
X54900760Y-30197619D01*
X54900760Y-30197619D02*
X54938855Y-30273810D01*
X54938855Y-30273810D02*
X54938855Y-30502381D01*
X54938855Y-30502381D02*
X54900760Y-30578572D01*
X54900760Y-30578572D02*
X54862664Y-30616667D01*
X34687664Y-31833332D02*
X34725760Y-31871428D01*
X34725760Y-31871428D02*
X34763855Y-31985713D01*
X34763855Y-31985713D02*
X34763855Y-32061904D01*
X34763855Y-32061904D02*
X34725760Y-32176190D01*
X34725760Y-32176190D02*
X34649569Y-32252380D01*
X34649569Y-32252380D02*
X34573379Y-32290475D01*
X34573379Y-32290475D02*
X34420998Y-32328571D01*
X34420998Y-32328571D02*
X34306712Y-32328571D01*
X34306712Y-32328571D02*
X34154331Y-32290475D01*
X34154331Y-32290475D02*
X34078140Y-32252380D01*
X34078140Y-32252380D02*
X34001950Y-32176190D01*
X34001950Y-32176190D02*
X33963855Y-32061904D01*
X33963855Y-32061904D02*
X33963855Y-31985713D01*
X33963855Y-31985713D02*
X34001950Y-31871428D01*
X34001950Y-31871428D02*
X34040045Y-31833332D01*
X34040045Y-31528571D02*
X34001950Y-31490475D01*
X34001950Y-31490475D02*
X33963855Y-31414285D01*
X33963855Y-31414285D02*
X33963855Y-31223809D01*
X33963855Y-31223809D02*
X34001950Y-31147618D01*
X34001950Y-31147618D02*
X34040045Y-31109523D01*
X34040045Y-31109523D02*
X34116236Y-31071428D01*
X34116236Y-31071428D02*
X34192426Y-31071428D01*
X34192426Y-31071428D02*
X34306712Y-31109523D01*
X34306712Y-31109523D02*
X34763855Y-31566666D01*
X34763855Y-31566666D02*
X34763855Y-31071428D01*
D12*
X60908333Y-28329819D02*
X60432143Y-28329819D01*
X60432143Y-28329819D02*
X60432143Y-27329819D01*
X61765476Y-28329819D02*
X61194048Y-28329819D01*
X61479762Y-28329819D02*
X61479762Y-27329819D01*
X61479762Y-27329819D02*
X61384524Y-27472676D01*
X61384524Y-27472676D02*
X61289286Y-27567914D01*
X61289286Y-27567914D02*
X61194048Y-27615533D01*
D10*
X38693832Y-54407142D02*
X38712880Y-54426190D01*
X38712880Y-54426190D02*
X38731927Y-54483332D01*
X38731927Y-54483332D02*
X38731927Y-54521428D01*
X38731927Y-54521428D02*
X38712880Y-54578571D01*
X38712880Y-54578571D02*
X38674784Y-54616666D01*
X38674784Y-54616666D02*
X38636689Y-54635713D01*
X38636689Y-54635713D02*
X38560499Y-54654761D01*
X38560499Y-54654761D02*
X38503356Y-54654761D01*
X38503356Y-54654761D02*
X38427165Y-54635713D01*
X38427165Y-54635713D02*
X38389070Y-54616666D01*
X38389070Y-54616666D02*
X38350975Y-54578571D01*
X38350975Y-54578571D02*
X38331927Y-54521428D01*
X38331927Y-54521428D02*
X38331927Y-54483332D01*
X38331927Y-54483332D02*
X38350975Y-54426190D01*
X38350975Y-54426190D02*
X38370022Y-54407142D01*
X38731927Y-54026190D02*
X38731927Y-54254761D01*
X38731927Y-54140475D02*
X38331927Y-54140475D01*
X38331927Y-54140475D02*
X38389070Y-54178571D01*
X38389070Y-54178571D02*
X38427165Y-54216666D01*
X38427165Y-54216666D02*
X38446213Y-54254761D01*
X38331927Y-53683333D02*
X38331927Y-53759523D01*
X38331927Y-53759523D02*
X38350975Y-53797619D01*
X38350975Y-53797619D02*
X38370022Y-53816666D01*
X38370022Y-53816666D02*
X38427165Y-53854761D01*
X38427165Y-53854761D02*
X38503356Y-53873809D01*
X38503356Y-53873809D02*
X38655737Y-53873809D01*
X38655737Y-53873809D02*
X38693832Y-53854761D01*
X38693832Y-53854761D02*
X38712880Y-53835714D01*
X38712880Y-53835714D02*
X38731927Y-53797619D01*
X38731927Y-53797619D02*
X38731927Y-53721428D01*
X38731927Y-53721428D02*
X38712880Y-53683333D01*
X38712880Y-53683333D02*
X38693832Y-53664285D01*
X38693832Y-53664285D02*
X38655737Y-53645238D01*
X38655737Y-53645238D02*
X38560499Y-53645238D01*
X38560499Y-53645238D02*
X38522403Y-53664285D01*
X38522403Y-53664285D02*
X38503356Y-53683333D01*
X38503356Y-53683333D02*
X38484308Y-53721428D01*
X38484308Y-53721428D02*
X38484308Y-53797619D01*
X38484308Y-53797619D02*
X38503356Y-53835714D01*
X38503356Y-53835714D02*
X38522403Y-53854761D01*
X38522403Y-53854761D02*
X38560499Y-53873809D01*
D13*
X51254761Y-60027409D02*
X51088095Y-59789314D01*
X50969047Y-60027409D02*
X50969047Y-59527409D01*
X50969047Y-59527409D02*
X51159523Y-59527409D01*
X51159523Y-59527409D02*
X51207142Y-59551219D01*
X51207142Y-59551219D02*
X51230952Y-59575028D01*
X51230952Y-59575028D02*
X51254761Y-59622647D01*
X51254761Y-59622647D02*
X51254761Y-59694076D01*
X51254761Y-59694076D02*
X51230952Y-59741695D01*
X51230952Y-59741695D02*
X51207142Y-59765504D01*
X51207142Y-59765504D02*
X51159523Y-59789314D01*
X51159523Y-59789314D02*
X50969047Y-59789314D01*
X51469047Y-60027409D02*
X51469047Y-59527409D01*
X51469047Y-59527409D02*
X51754761Y-60027409D01*
X51754761Y-60027409D02*
X51754761Y-59527409D01*
X51969048Y-59575028D02*
X51992857Y-59551219D01*
X51992857Y-59551219D02*
X52040476Y-59527409D01*
X52040476Y-59527409D02*
X52159524Y-59527409D01*
X52159524Y-59527409D02*
X52207143Y-59551219D01*
X52207143Y-59551219D02*
X52230952Y-59575028D01*
X52230952Y-59575028D02*
X52254762Y-59622647D01*
X52254762Y-59622647D02*
X52254762Y-59670266D01*
X52254762Y-59670266D02*
X52230952Y-59741695D01*
X52230952Y-59741695D02*
X51945238Y-60027409D01*
X51945238Y-60027409D02*
X52254762Y-60027409D01*
D11*
X44762664Y-32553333D02*
X44800760Y-32591429D01*
X44800760Y-32591429D02*
X44838855Y-32705714D01*
X44838855Y-32705714D02*
X44838855Y-32781905D01*
X44838855Y-32781905D02*
X44800760Y-32896191D01*
X44800760Y-32896191D02*
X44724569Y-32972381D01*
X44724569Y-32972381D02*
X44648379Y-33010476D01*
X44648379Y-33010476D02*
X44495998Y-33048572D01*
X44495998Y-33048572D02*
X44381712Y-33048572D01*
X44381712Y-33048572D02*
X44229331Y-33010476D01*
X44229331Y-33010476D02*
X44153140Y-32972381D01*
X44153140Y-32972381D02*
X44076950Y-32896191D01*
X44076950Y-32896191D02*
X44038855Y-32781905D01*
X44038855Y-32781905D02*
X44038855Y-32705714D01*
X44038855Y-32705714D02*
X44076950Y-32591429D01*
X44076950Y-32591429D02*
X44115045Y-32553333D01*
X44838855Y-31791429D02*
X44838855Y-32248572D01*
X44838855Y-32020000D02*
X44038855Y-32020000D01*
X44038855Y-32020000D02*
X44153140Y-32096191D01*
X44153140Y-32096191D02*
X44229331Y-32172381D01*
X44229331Y-32172381D02*
X44267426Y-32248572D01*
X48860476Y-28273856D02*
X48860476Y-28921475D01*
X48860476Y-28921475D02*
X48898571Y-28997665D01*
X48898571Y-28997665D02*
X48936666Y-29035761D01*
X48936666Y-29035761D02*
X49012857Y-29073856D01*
X49012857Y-29073856D02*
X49165238Y-29073856D01*
X49165238Y-29073856D02*
X49241428Y-29035761D01*
X49241428Y-29035761D02*
X49279523Y-28997665D01*
X49279523Y-28997665D02*
X49317619Y-28921475D01*
X49317619Y-28921475D02*
X49317619Y-28273856D01*
X49660475Y-28350046D02*
X49698571Y-28311951D01*
X49698571Y-28311951D02*
X49774761Y-28273856D01*
X49774761Y-28273856D02*
X49965237Y-28273856D01*
X49965237Y-28273856D02*
X50041428Y-28311951D01*
X50041428Y-28311951D02*
X50079523Y-28350046D01*
X50079523Y-28350046D02*
X50117618Y-28426237D01*
X50117618Y-28426237D02*
X50117618Y-28502427D01*
X50117618Y-28502427D02*
X50079523Y-28616713D01*
X50079523Y-28616713D02*
X49622380Y-29073856D01*
X49622380Y-29073856D02*
X50117618Y-29073856D01*
D12*
X41754819Y-54761904D02*
X42564342Y-54761904D01*
X42564342Y-54761904D02*
X42659580Y-54714285D01*
X42659580Y-54714285D02*
X42707200Y-54666666D01*
X42707200Y-54666666D02*
X42754819Y-54571428D01*
X42754819Y-54571428D02*
X42754819Y-54380952D01*
X42754819Y-54380952D02*
X42707200Y-54285714D01*
X42707200Y-54285714D02*
X42659580Y-54238095D01*
X42659580Y-54238095D02*
X42564342Y-54190476D01*
X42564342Y-54190476D02*
X41754819Y-54190476D01*
X41754819Y-53238095D02*
X41754819Y-53714285D01*
X41754819Y-53714285D02*
X42231009Y-53761904D01*
X42231009Y-53761904D02*
X42183390Y-53714285D01*
X42183390Y-53714285D02*
X42135771Y-53619047D01*
X42135771Y-53619047D02*
X42135771Y-53380952D01*
X42135771Y-53380952D02*
X42183390Y-53285714D01*
X42183390Y-53285714D02*
X42231009Y-53238095D01*
X42231009Y-53238095D02*
X42326247Y-53190476D01*
X42326247Y-53190476D02*
X42564342Y-53190476D01*
X42564342Y-53190476D02*
X42659580Y-53238095D01*
X42659580Y-53238095D02*
X42707200Y-53285714D01*
X42707200Y-53285714D02*
X42754819Y-53380952D01*
X42754819Y-53380952D02*
X42754819Y-53619047D01*
X42754819Y-53619047D02*
X42707200Y-53714285D01*
X42707200Y-53714285D02*
X42659580Y-53761904D01*
X70815567Y-32646666D02*
X71608901Y-32646666D01*
X71608901Y-32646666D02*
X71702234Y-32600000D01*
X71702234Y-32600000D02*
X71748901Y-32553333D01*
X71748901Y-32553333D02*
X71795567Y-32460000D01*
X71795567Y-32460000D02*
X71795567Y-32273333D01*
X71795567Y-32273333D02*
X71748901Y-32180000D01*
X71748901Y-32180000D02*
X71702234Y-32133333D01*
X71702234Y-32133333D02*
X71608901Y-32086666D01*
X71608901Y-32086666D02*
X70815567Y-32086666D01*
X70815567Y-31713333D02*
X70815567Y-31106666D01*
X70815567Y-31106666D02*
X71188901Y-31433333D01*
X71188901Y-31433333D02*
X71188901Y-31293333D01*
X71188901Y-31293333D02*
X71235567Y-31199999D01*
X71235567Y-31199999D02*
X71282234Y-31153333D01*
X71282234Y-31153333D02*
X71375567Y-31106666D01*
X71375567Y-31106666D02*
X71608901Y-31106666D01*
X71608901Y-31106666D02*
X71702234Y-31153333D01*
X71702234Y-31153333D02*
X71748901Y-31199999D01*
X71748901Y-31199999D02*
X71795567Y-31293333D01*
X71795567Y-31293333D02*
X71795567Y-31573333D01*
X71795567Y-31573333D02*
X71748901Y-31666666D01*
X71748901Y-31666666D02*
X71702234Y-31713333D01*
D10*
X59381927Y-36041666D02*
X59191451Y-36174999D01*
X59381927Y-36270237D02*
X58981927Y-36270237D01*
X58981927Y-36270237D02*
X58981927Y-36117856D01*
X58981927Y-36117856D02*
X59000975Y-36079761D01*
X59000975Y-36079761D02*
X59020022Y-36060714D01*
X59020022Y-36060714D02*
X59058118Y-36041666D01*
X59058118Y-36041666D02*
X59115260Y-36041666D01*
X59115260Y-36041666D02*
X59153356Y-36060714D01*
X59153356Y-36060714D02*
X59172403Y-36079761D01*
X59172403Y-36079761D02*
X59191451Y-36117856D01*
X59191451Y-36117856D02*
X59191451Y-36270237D01*
X59153356Y-35813095D02*
X59134308Y-35851190D01*
X59134308Y-35851190D02*
X59115260Y-35870237D01*
X59115260Y-35870237D02*
X59077165Y-35889285D01*
X59077165Y-35889285D02*
X59058118Y-35889285D01*
X59058118Y-35889285D02*
X59020022Y-35870237D01*
X59020022Y-35870237D02*
X59000975Y-35851190D01*
X59000975Y-35851190D02*
X58981927Y-35813095D01*
X58981927Y-35813095D02*
X58981927Y-35736904D01*
X58981927Y-35736904D02*
X59000975Y-35698809D01*
X59000975Y-35698809D02*
X59020022Y-35679761D01*
X59020022Y-35679761D02*
X59058118Y-35660714D01*
X59058118Y-35660714D02*
X59077165Y-35660714D01*
X59077165Y-35660714D02*
X59115260Y-35679761D01*
X59115260Y-35679761D02*
X59134308Y-35698809D01*
X59134308Y-35698809D02*
X59153356Y-35736904D01*
X59153356Y-35736904D02*
X59153356Y-35813095D01*
X59153356Y-35813095D02*
X59172403Y-35851190D01*
X59172403Y-35851190D02*
X59191451Y-35870237D01*
X59191451Y-35870237D02*
X59229546Y-35889285D01*
X59229546Y-35889285D02*
X59305737Y-35889285D01*
X59305737Y-35889285D02*
X59343832Y-35870237D01*
X59343832Y-35870237D02*
X59362880Y-35851190D01*
X59362880Y-35851190D02*
X59381927Y-35813095D01*
X59381927Y-35813095D02*
X59381927Y-35736904D01*
X59381927Y-35736904D02*
X59362880Y-35698809D01*
X59362880Y-35698809D02*
X59343832Y-35679761D01*
X59343832Y-35679761D02*
X59305737Y-35660714D01*
X59305737Y-35660714D02*
X59229546Y-35660714D01*
X59229546Y-35660714D02*
X59191451Y-35679761D01*
X59191451Y-35679761D02*
X59172403Y-35698809D01*
X59172403Y-35698809D02*
X59153356Y-35736904D01*
D11*
X70440045Y-62076190D02*
X70401950Y-62152380D01*
X70401950Y-62152380D02*
X70325760Y-62228571D01*
X70325760Y-62228571D02*
X70211474Y-62342857D01*
X70211474Y-62342857D02*
X70173379Y-62419047D01*
X70173379Y-62419047D02*
X70173379Y-62495238D01*
X70363855Y-62457142D02*
X70325760Y-62533333D01*
X70325760Y-62533333D02*
X70249569Y-62609523D01*
X70249569Y-62609523D02*
X70097188Y-62647619D01*
X70097188Y-62647619D02*
X69830521Y-62647619D01*
X69830521Y-62647619D02*
X69678140Y-62609523D01*
X69678140Y-62609523D02*
X69601950Y-62533333D01*
X69601950Y-62533333D02*
X69563855Y-62457142D01*
X69563855Y-62457142D02*
X69563855Y-62304761D01*
X69563855Y-62304761D02*
X69601950Y-62228571D01*
X69601950Y-62228571D02*
X69678140Y-62152380D01*
X69678140Y-62152380D02*
X69830521Y-62114285D01*
X69830521Y-62114285D02*
X70097188Y-62114285D01*
X70097188Y-62114285D02*
X70249569Y-62152380D01*
X70249569Y-62152380D02*
X70325760Y-62228571D01*
X70325760Y-62228571D02*
X70363855Y-62304761D01*
X70363855Y-62304761D02*
X70363855Y-62457142D01*
X69640045Y-61809524D02*
X69601950Y-61771428D01*
X69601950Y-61771428D02*
X69563855Y-61695238D01*
X69563855Y-61695238D02*
X69563855Y-61504762D01*
X69563855Y-61504762D02*
X69601950Y-61428571D01*
X69601950Y-61428571D02*
X69640045Y-61390476D01*
X69640045Y-61390476D02*
X69716236Y-61352381D01*
X69716236Y-61352381D02*
X69792426Y-61352381D01*
X69792426Y-61352381D02*
X69906712Y-61390476D01*
X69906712Y-61390476D02*
X70363855Y-61847619D01*
X70363855Y-61847619D02*
X70363855Y-61352381D01*
D10*
X51492857Y-42593832D02*
X51473809Y-42612880D01*
X51473809Y-42612880D02*
X51416667Y-42631927D01*
X51416667Y-42631927D02*
X51378571Y-42631927D01*
X51378571Y-42631927D02*
X51321428Y-42612880D01*
X51321428Y-42612880D02*
X51283333Y-42574784D01*
X51283333Y-42574784D02*
X51264286Y-42536689D01*
X51264286Y-42536689D02*
X51245238Y-42460499D01*
X51245238Y-42460499D02*
X51245238Y-42403356D01*
X51245238Y-42403356D02*
X51264286Y-42327165D01*
X51264286Y-42327165D02*
X51283333Y-42289070D01*
X51283333Y-42289070D02*
X51321428Y-42250975D01*
X51321428Y-42250975D02*
X51378571Y-42231927D01*
X51378571Y-42231927D02*
X51416667Y-42231927D01*
X51416667Y-42231927D02*
X51473809Y-42250975D01*
X51473809Y-42250975D02*
X51492857Y-42270022D01*
X51645238Y-42270022D02*
X51664286Y-42250975D01*
X51664286Y-42250975D02*
X51702381Y-42231927D01*
X51702381Y-42231927D02*
X51797619Y-42231927D01*
X51797619Y-42231927D02*
X51835714Y-42250975D01*
X51835714Y-42250975D02*
X51854762Y-42270022D01*
X51854762Y-42270022D02*
X51873809Y-42308118D01*
X51873809Y-42308118D02*
X51873809Y-42346213D01*
X51873809Y-42346213D02*
X51854762Y-42403356D01*
X51854762Y-42403356D02*
X51626190Y-42631927D01*
X51626190Y-42631927D02*
X51873809Y-42631927D01*
X52216666Y-42365260D02*
X52216666Y-42631927D01*
X52121428Y-42212880D02*
X52026190Y-42498594D01*
X52026190Y-42498594D02*
X52273809Y-42498594D01*
X67881927Y-56682142D02*
X67691451Y-56815475D01*
X67881927Y-56910713D02*
X67481927Y-56910713D01*
X67481927Y-56910713D02*
X67481927Y-56758332D01*
X67481927Y-56758332D02*
X67500975Y-56720237D01*
X67500975Y-56720237D02*
X67520022Y-56701190D01*
X67520022Y-56701190D02*
X67558118Y-56682142D01*
X67558118Y-56682142D02*
X67615260Y-56682142D01*
X67615260Y-56682142D02*
X67653356Y-56701190D01*
X67653356Y-56701190D02*
X67672403Y-56720237D01*
X67672403Y-56720237D02*
X67691451Y-56758332D01*
X67691451Y-56758332D02*
X67691451Y-56910713D01*
X67881927Y-56301190D02*
X67881927Y-56529761D01*
X67881927Y-56415475D02*
X67481927Y-56415475D01*
X67481927Y-56415475D02*
X67539070Y-56453571D01*
X67539070Y-56453571D02*
X67577165Y-56491666D01*
X67577165Y-56491666D02*
X67596213Y-56529761D01*
X67481927Y-56053571D02*
X67481927Y-56015476D01*
X67481927Y-56015476D02*
X67500975Y-55977380D01*
X67500975Y-55977380D02*
X67520022Y-55958333D01*
X67520022Y-55958333D02*
X67558118Y-55939285D01*
X67558118Y-55939285D02*
X67634308Y-55920238D01*
X67634308Y-55920238D02*
X67729546Y-55920238D01*
X67729546Y-55920238D02*
X67805737Y-55939285D01*
X67805737Y-55939285D02*
X67843832Y-55958333D01*
X67843832Y-55958333D02*
X67862880Y-55977380D01*
X67862880Y-55977380D02*
X67881927Y-56015476D01*
X67881927Y-56015476D02*
X67881927Y-56053571D01*
X67881927Y-56053571D02*
X67862880Y-56091666D01*
X67862880Y-56091666D02*
X67843832Y-56110714D01*
X67843832Y-56110714D02*
X67805737Y-56129761D01*
X67805737Y-56129761D02*
X67729546Y-56148809D01*
X67729546Y-56148809D02*
X67634308Y-56148809D01*
X67634308Y-56148809D02*
X67558118Y-56129761D01*
X67558118Y-56129761D02*
X67520022Y-56110714D01*
X67520022Y-56110714D02*
X67500975Y-56091666D01*
X67500975Y-56091666D02*
X67481927Y-56053571D01*
X66933333Y-33381927D02*
X66800000Y-33191451D01*
X66704762Y-33381927D02*
X66704762Y-32981927D01*
X66704762Y-32981927D02*
X66857143Y-32981927D01*
X66857143Y-32981927D02*
X66895238Y-33000975D01*
X66895238Y-33000975D02*
X66914285Y-33020022D01*
X66914285Y-33020022D02*
X66933333Y-33058118D01*
X66933333Y-33058118D02*
X66933333Y-33115260D01*
X66933333Y-33115260D02*
X66914285Y-33153356D01*
X66914285Y-33153356D02*
X66895238Y-33172403D01*
X66895238Y-33172403D02*
X66857143Y-33191451D01*
X66857143Y-33191451D02*
X66704762Y-33191451D01*
X67276190Y-32981927D02*
X67200000Y-32981927D01*
X67200000Y-32981927D02*
X67161904Y-33000975D01*
X67161904Y-33000975D02*
X67142857Y-33020022D01*
X67142857Y-33020022D02*
X67104762Y-33077165D01*
X67104762Y-33077165D02*
X67085714Y-33153356D01*
X67085714Y-33153356D02*
X67085714Y-33305737D01*
X67085714Y-33305737D02*
X67104762Y-33343832D01*
X67104762Y-33343832D02*
X67123809Y-33362880D01*
X67123809Y-33362880D02*
X67161904Y-33381927D01*
X67161904Y-33381927D02*
X67238095Y-33381927D01*
X67238095Y-33381927D02*
X67276190Y-33362880D01*
X67276190Y-33362880D02*
X67295238Y-33343832D01*
X67295238Y-33343832D02*
X67314285Y-33305737D01*
X67314285Y-33305737D02*
X67314285Y-33210499D01*
X67314285Y-33210499D02*
X67295238Y-33172403D01*
X67295238Y-33172403D02*
X67276190Y-33153356D01*
X67276190Y-33153356D02*
X67238095Y-33134308D01*
X67238095Y-33134308D02*
X67161904Y-33134308D01*
X67161904Y-33134308D02*
X67123809Y-33153356D01*
X67123809Y-33153356D02*
X67104762Y-33172403D01*
X67104762Y-33172403D02*
X67085714Y-33210499D01*
X55114543Y-53952852D02*
X55133591Y-53971900D01*
X55133591Y-53971900D02*
X55152638Y-54029042D01*
X55152638Y-54029042D02*
X55152638Y-54067138D01*
X55152638Y-54067138D02*
X55133591Y-54124281D01*
X55133591Y-54124281D02*
X55095495Y-54162376D01*
X55095495Y-54162376D02*
X55057400Y-54181423D01*
X55057400Y-54181423D02*
X54981210Y-54200471D01*
X54981210Y-54200471D02*
X54924067Y-54200471D01*
X54924067Y-54200471D02*
X54847876Y-54181423D01*
X54847876Y-54181423D02*
X54809781Y-54162376D01*
X54809781Y-54162376D02*
X54771686Y-54124281D01*
X54771686Y-54124281D02*
X54752638Y-54067138D01*
X54752638Y-54067138D02*
X54752638Y-54029042D01*
X54752638Y-54029042D02*
X54771686Y-53971900D01*
X54771686Y-53971900D02*
X54790733Y-53952852D01*
X55152638Y-53571900D02*
X55152638Y-53800471D01*
X55152638Y-53686185D02*
X54752638Y-53686185D01*
X54752638Y-53686185D02*
X54809781Y-53724281D01*
X54809781Y-53724281D02*
X54847876Y-53762376D01*
X54847876Y-53762376D02*
X54866924Y-53800471D01*
X54924067Y-53343329D02*
X54905019Y-53381424D01*
X54905019Y-53381424D02*
X54885971Y-53400471D01*
X54885971Y-53400471D02*
X54847876Y-53419519D01*
X54847876Y-53419519D02*
X54828829Y-53419519D01*
X54828829Y-53419519D02*
X54790733Y-53400471D01*
X54790733Y-53400471D02*
X54771686Y-53381424D01*
X54771686Y-53381424D02*
X54752638Y-53343329D01*
X54752638Y-53343329D02*
X54752638Y-53267138D01*
X54752638Y-53267138D02*
X54771686Y-53229043D01*
X54771686Y-53229043D02*
X54790733Y-53209995D01*
X54790733Y-53209995D02*
X54828829Y-53190948D01*
X54828829Y-53190948D02*
X54847876Y-53190948D01*
X54847876Y-53190948D02*
X54885971Y-53209995D01*
X54885971Y-53209995D02*
X54905019Y-53229043D01*
X54905019Y-53229043D02*
X54924067Y-53267138D01*
X54924067Y-53267138D02*
X54924067Y-53343329D01*
X54924067Y-53343329D02*
X54943114Y-53381424D01*
X54943114Y-53381424D02*
X54962162Y-53400471D01*
X54962162Y-53400471D02*
X55000257Y-53419519D01*
X55000257Y-53419519D02*
X55076448Y-53419519D01*
X55076448Y-53419519D02*
X55114543Y-53400471D01*
X55114543Y-53400471D02*
X55133591Y-53381424D01*
X55133591Y-53381424D02*
X55152638Y-53343329D01*
X55152638Y-53343329D02*
X55152638Y-53267138D01*
X55152638Y-53267138D02*
X55133591Y-53229043D01*
X55133591Y-53229043D02*
X55114543Y-53209995D01*
X55114543Y-53209995D02*
X55076448Y-53190948D01*
X55076448Y-53190948D02*
X55000257Y-53190948D01*
X55000257Y-53190948D02*
X54962162Y-53209995D01*
X54962162Y-53209995D02*
X54943114Y-53229043D01*
X54943114Y-53229043D02*
X54924067Y-53267138D01*
X44917261Y-36681927D02*
X44917261Y-36281927D01*
X44917261Y-36281927D02*
X45012499Y-36281927D01*
X45012499Y-36281927D02*
X45069642Y-36300975D01*
X45069642Y-36300975D02*
X45107737Y-36339070D01*
X45107737Y-36339070D02*
X45126784Y-36377165D01*
X45126784Y-36377165D02*
X45145832Y-36453356D01*
X45145832Y-36453356D02*
X45145832Y-36510499D01*
X45145832Y-36510499D02*
X45126784Y-36586689D01*
X45126784Y-36586689D02*
X45107737Y-36624784D01*
X45107737Y-36624784D02*
X45069642Y-36662880D01*
X45069642Y-36662880D02*
X45012499Y-36681927D01*
X45012499Y-36681927D02*
X44917261Y-36681927D01*
X45507737Y-36281927D02*
X45317261Y-36281927D01*
X45317261Y-36281927D02*
X45298213Y-36472403D01*
X45298213Y-36472403D02*
X45317261Y-36453356D01*
X45317261Y-36453356D02*
X45355356Y-36434308D01*
X45355356Y-36434308D02*
X45450594Y-36434308D01*
X45450594Y-36434308D02*
X45488689Y-36453356D01*
X45488689Y-36453356D02*
X45507737Y-36472403D01*
X45507737Y-36472403D02*
X45526784Y-36510499D01*
X45526784Y-36510499D02*
X45526784Y-36605737D01*
X45526784Y-36605737D02*
X45507737Y-36643832D01*
X45507737Y-36643832D02*
X45488689Y-36662880D01*
X45488689Y-36662880D02*
X45450594Y-36681927D01*
X45450594Y-36681927D02*
X45355356Y-36681927D01*
X45355356Y-36681927D02*
X45317261Y-36662880D01*
X45317261Y-36662880D02*
X45298213Y-36643832D01*
X58943832Y-39457142D02*
X58962880Y-39476190D01*
X58962880Y-39476190D02*
X58981927Y-39533332D01*
X58981927Y-39533332D02*
X58981927Y-39571428D01*
X58981927Y-39571428D02*
X58962880Y-39628571D01*
X58962880Y-39628571D02*
X58924784Y-39666666D01*
X58924784Y-39666666D02*
X58886689Y-39685713D01*
X58886689Y-39685713D02*
X58810499Y-39704761D01*
X58810499Y-39704761D02*
X58753356Y-39704761D01*
X58753356Y-39704761D02*
X58677165Y-39685713D01*
X58677165Y-39685713D02*
X58639070Y-39666666D01*
X58639070Y-39666666D02*
X58600975Y-39628571D01*
X58600975Y-39628571D02*
X58581927Y-39571428D01*
X58581927Y-39571428D02*
X58581927Y-39533332D01*
X58581927Y-39533332D02*
X58600975Y-39476190D01*
X58600975Y-39476190D02*
X58620022Y-39457142D01*
X58620022Y-39304761D02*
X58600975Y-39285713D01*
X58600975Y-39285713D02*
X58581927Y-39247618D01*
X58581927Y-39247618D02*
X58581927Y-39152380D01*
X58581927Y-39152380D02*
X58600975Y-39114285D01*
X58600975Y-39114285D02*
X58620022Y-39095237D01*
X58620022Y-39095237D02*
X58658118Y-39076190D01*
X58658118Y-39076190D02*
X58696213Y-39076190D01*
X58696213Y-39076190D02*
X58753356Y-39095237D01*
X58753356Y-39095237D02*
X58981927Y-39323809D01*
X58981927Y-39323809D02*
X58981927Y-39076190D01*
X58620022Y-38923809D02*
X58600975Y-38904761D01*
X58600975Y-38904761D02*
X58581927Y-38866666D01*
X58581927Y-38866666D02*
X58581927Y-38771428D01*
X58581927Y-38771428D02*
X58600975Y-38733333D01*
X58600975Y-38733333D02*
X58620022Y-38714285D01*
X58620022Y-38714285D02*
X58658118Y-38695238D01*
X58658118Y-38695238D02*
X58696213Y-38695238D01*
X58696213Y-38695238D02*
X58753356Y-38714285D01*
X58753356Y-38714285D02*
X58981927Y-38942857D01*
X58981927Y-38942857D02*
X58981927Y-38695238D01*
X48242857Y-36681927D02*
X48109524Y-36491451D01*
X48014286Y-36681927D02*
X48014286Y-36281927D01*
X48014286Y-36281927D02*
X48166667Y-36281927D01*
X48166667Y-36281927D02*
X48204762Y-36300975D01*
X48204762Y-36300975D02*
X48223809Y-36320022D01*
X48223809Y-36320022D02*
X48242857Y-36358118D01*
X48242857Y-36358118D02*
X48242857Y-36415260D01*
X48242857Y-36415260D02*
X48223809Y-36453356D01*
X48223809Y-36453356D02*
X48204762Y-36472403D01*
X48204762Y-36472403D02*
X48166667Y-36491451D01*
X48166667Y-36491451D02*
X48014286Y-36491451D01*
X48395238Y-36320022D02*
X48414286Y-36300975D01*
X48414286Y-36300975D02*
X48452381Y-36281927D01*
X48452381Y-36281927D02*
X48547619Y-36281927D01*
X48547619Y-36281927D02*
X48585714Y-36300975D01*
X48585714Y-36300975D02*
X48604762Y-36320022D01*
X48604762Y-36320022D02*
X48623809Y-36358118D01*
X48623809Y-36358118D02*
X48623809Y-36396213D01*
X48623809Y-36396213D02*
X48604762Y-36453356D01*
X48604762Y-36453356D02*
X48376190Y-36681927D01*
X48376190Y-36681927D02*
X48623809Y-36681927D01*
X48757142Y-36281927D02*
X49023809Y-36281927D01*
X49023809Y-36281927D02*
X48852380Y-36681927D01*
X60581927Y-59307736D02*
X60181927Y-59307736D01*
X60181927Y-59307736D02*
X60181927Y-59212498D01*
X60181927Y-59212498D02*
X60200975Y-59155355D01*
X60200975Y-59155355D02*
X60239070Y-59117260D01*
X60239070Y-59117260D02*
X60277165Y-59098213D01*
X60277165Y-59098213D02*
X60353356Y-59079165D01*
X60353356Y-59079165D02*
X60410499Y-59079165D01*
X60410499Y-59079165D02*
X60486689Y-59098213D01*
X60486689Y-59098213D02*
X60524784Y-59117260D01*
X60524784Y-59117260D02*
X60562880Y-59155355D01*
X60562880Y-59155355D02*
X60581927Y-59212498D01*
X60581927Y-59212498D02*
X60581927Y-59307736D01*
X60220022Y-58926784D02*
X60200975Y-58907736D01*
X60200975Y-58907736D02*
X60181927Y-58869641D01*
X60181927Y-58869641D02*
X60181927Y-58774403D01*
X60181927Y-58774403D02*
X60200975Y-58736308D01*
X60200975Y-58736308D02*
X60220022Y-58717260D01*
X60220022Y-58717260D02*
X60258118Y-58698213D01*
X60258118Y-58698213D02*
X60296213Y-58698213D01*
X60296213Y-58698213D02*
X60353356Y-58717260D01*
X60353356Y-58717260D02*
X60581927Y-58945832D01*
X60581927Y-58945832D02*
X60581927Y-58698213D01*
X66393832Y-39091666D02*
X66412880Y-39110714D01*
X66412880Y-39110714D02*
X66431927Y-39167856D01*
X66431927Y-39167856D02*
X66431927Y-39205952D01*
X66431927Y-39205952D02*
X66412880Y-39263095D01*
X66412880Y-39263095D02*
X66374784Y-39301190D01*
X66374784Y-39301190D02*
X66336689Y-39320237D01*
X66336689Y-39320237D02*
X66260499Y-39339285D01*
X66260499Y-39339285D02*
X66203356Y-39339285D01*
X66203356Y-39339285D02*
X66127165Y-39320237D01*
X66127165Y-39320237D02*
X66089070Y-39301190D01*
X66089070Y-39301190D02*
X66050975Y-39263095D01*
X66050975Y-39263095D02*
X66031927Y-39205952D01*
X66031927Y-39205952D02*
X66031927Y-39167856D01*
X66031927Y-39167856D02*
X66050975Y-39110714D01*
X66050975Y-39110714D02*
X66070022Y-39091666D01*
X66203356Y-38863095D02*
X66184308Y-38901190D01*
X66184308Y-38901190D02*
X66165260Y-38920237D01*
X66165260Y-38920237D02*
X66127165Y-38939285D01*
X66127165Y-38939285D02*
X66108118Y-38939285D01*
X66108118Y-38939285D02*
X66070022Y-38920237D01*
X66070022Y-38920237D02*
X66050975Y-38901190D01*
X66050975Y-38901190D02*
X66031927Y-38863095D01*
X66031927Y-38863095D02*
X66031927Y-38786904D01*
X66031927Y-38786904D02*
X66050975Y-38748809D01*
X66050975Y-38748809D02*
X66070022Y-38729761D01*
X66070022Y-38729761D02*
X66108118Y-38710714D01*
X66108118Y-38710714D02*
X66127165Y-38710714D01*
X66127165Y-38710714D02*
X66165260Y-38729761D01*
X66165260Y-38729761D02*
X66184308Y-38748809D01*
X66184308Y-38748809D02*
X66203356Y-38786904D01*
X66203356Y-38786904D02*
X66203356Y-38863095D01*
X66203356Y-38863095D02*
X66222403Y-38901190D01*
X66222403Y-38901190D02*
X66241451Y-38920237D01*
X66241451Y-38920237D02*
X66279546Y-38939285D01*
X66279546Y-38939285D02*
X66355737Y-38939285D01*
X66355737Y-38939285D02*
X66393832Y-38920237D01*
X66393832Y-38920237D02*
X66412880Y-38901190D01*
X66412880Y-38901190D02*
X66431927Y-38863095D01*
X66431927Y-38863095D02*
X66431927Y-38786904D01*
X66431927Y-38786904D02*
X66412880Y-38748809D01*
X66412880Y-38748809D02*
X66393832Y-38729761D01*
X66393832Y-38729761D02*
X66355737Y-38710714D01*
X66355737Y-38710714D02*
X66279546Y-38710714D01*
X66279546Y-38710714D02*
X66241451Y-38729761D01*
X66241451Y-38729761D02*
X66222403Y-38748809D01*
X66222403Y-38748809D02*
X66203356Y-38786904D01*
X60906927Y-36041666D02*
X60716451Y-36174999D01*
X60906927Y-36270237D02*
X60506927Y-36270237D01*
X60506927Y-36270237D02*
X60506927Y-36117856D01*
X60506927Y-36117856D02*
X60525975Y-36079761D01*
X60525975Y-36079761D02*
X60545022Y-36060714D01*
X60545022Y-36060714D02*
X60583118Y-36041666D01*
X60583118Y-36041666D02*
X60640260Y-36041666D01*
X60640260Y-36041666D02*
X60678356Y-36060714D01*
X60678356Y-36060714D02*
X60697403Y-36079761D01*
X60697403Y-36079761D02*
X60716451Y-36117856D01*
X60716451Y-36117856D02*
X60716451Y-36270237D01*
X60906927Y-35851190D02*
X60906927Y-35774999D01*
X60906927Y-35774999D02*
X60887880Y-35736904D01*
X60887880Y-35736904D02*
X60868832Y-35717856D01*
X60868832Y-35717856D02*
X60811689Y-35679761D01*
X60811689Y-35679761D02*
X60735499Y-35660714D01*
X60735499Y-35660714D02*
X60583118Y-35660714D01*
X60583118Y-35660714D02*
X60545022Y-35679761D01*
X60545022Y-35679761D02*
X60525975Y-35698809D01*
X60525975Y-35698809D02*
X60506927Y-35736904D01*
X60506927Y-35736904D02*
X60506927Y-35813095D01*
X60506927Y-35813095D02*
X60525975Y-35851190D01*
X60525975Y-35851190D02*
X60545022Y-35870237D01*
X60545022Y-35870237D02*
X60583118Y-35889285D01*
X60583118Y-35889285D02*
X60678356Y-35889285D01*
X60678356Y-35889285D02*
X60716451Y-35870237D01*
X60716451Y-35870237D02*
X60735499Y-35851190D01*
X60735499Y-35851190D02*
X60754546Y-35813095D01*
X60754546Y-35813095D02*
X60754546Y-35736904D01*
X60754546Y-35736904D02*
X60735499Y-35698809D01*
X60735499Y-35698809D02*
X60716451Y-35679761D01*
X60716451Y-35679761D02*
X60678356Y-35660714D01*
X67918832Y-39066666D02*
X67937880Y-39085714D01*
X67937880Y-39085714D02*
X67956927Y-39142856D01*
X67956927Y-39142856D02*
X67956927Y-39180952D01*
X67956927Y-39180952D02*
X67937880Y-39238095D01*
X67937880Y-39238095D02*
X67899784Y-39276190D01*
X67899784Y-39276190D02*
X67861689Y-39295237D01*
X67861689Y-39295237D02*
X67785499Y-39314285D01*
X67785499Y-39314285D02*
X67728356Y-39314285D01*
X67728356Y-39314285D02*
X67652165Y-39295237D01*
X67652165Y-39295237D02*
X67614070Y-39276190D01*
X67614070Y-39276190D02*
X67575975Y-39238095D01*
X67575975Y-39238095D02*
X67556927Y-39180952D01*
X67556927Y-39180952D02*
X67556927Y-39142856D01*
X67556927Y-39142856D02*
X67575975Y-39085714D01*
X67575975Y-39085714D02*
X67595022Y-39066666D01*
X67556927Y-38723809D02*
X67556927Y-38799999D01*
X67556927Y-38799999D02*
X67575975Y-38838095D01*
X67575975Y-38838095D02*
X67595022Y-38857142D01*
X67595022Y-38857142D02*
X67652165Y-38895237D01*
X67652165Y-38895237D02*
X67728356Y-38914285D01*
X67728356Y-38914285D02*
X67880737Y-38914285D01*
X67880737Y-38914285D02*
X67918832Y-38895237D01*
X67918832Y-38895237D02*
X67937880Y-38876190D01*
X67937880Y-38876190D02*
X67956927Y-38838095D01*
X67956927Y-38838095D02*
X67956927Y-38761904D01*
X67956927Y-38761904D02*
X67937880Y-38723809D01*
X67937880Y-38723809D02*
X67918832Y-38704761D01*
X67918832Y-38704761D02*
X67880737Y-38685714D01*
X67880737Y-38685714D02*
X67785499Y-38685714D01*
X67785499Y-38685714D02*
X67747403Y-38704761D01*
X67747403Y-38704761D02*
X67728356Y-38723809D01*
X67728356Y-38723809D02*
X67709308Y-38761904D01*
X67709308Y-38761904D02*
X67709308Y-38838095D01*
X67709308Y-38838095D02*
X67728356Y-38876190D01*
X67728356Y-38876190D02*
X67747403Y-38895237D01*
X67747403Y-38895237D02*
X67785499Y-38914285D01*
X40933333Y-41181927D02*
X40800000Y-40991451D01*
X40704762Y-41181927D02*
X40704762Y-40781927D01*
X40704762Y-40781927D02*
X40857143Y-40781927D01*
X40857143Y-40781927D02*
X40895238Y-40800975D01*
X40895238Y-40800975D02*
X40914285Y-40820022D01*
X40914285Y-40820022D02*
X40933333Y-40858118D01*
X40933333Y-40858118D02*
X40933333Y-40915260D01*
X40933333Y-40915260D02*
X40914285Y-40953356D01*
X40914285Y-40953356D02*
X40895238Y-40972403D01*
X40895238Y-40972403D02*
X40857143Y-40991451D01*
X40857143Y-40991451D02*
X40704762Y-40991451D01*
X41314285Y-41181927D02*
X41085714Y-41181927D01*
X41200000Y-41181927D02*
X41200000Y-40781927D01*
X41200000Y-40781927D02*
X41161904Y-40839070D01*
X41161904Y-40839070D02*
X41123809Y-40877165D01*
X41123809Y-40877165D02*
X41085714Y-40896213D01*
X64843832Y-39091666D02*
X64862880Y-39110714D01*
X64862880Y-39110714D02*
X64881927Y-39167856D01*
X64881927Y-39167856D02*
X64881927Y-39205952D01*
X64881927Y-39205952D02*
X64862880Y-39263095D01*
X64862880Y-39263095D02*
X64824784Y-39301190D01*
X64824784Y-39301190D02*
X64786689Y-39320237D01*
X64786689Y-39320237D02*
X64710499Y-39339285D01*
X64710499Y-39339285D02*
X64653356Y-39339285D01*
X64653356Y-39339285D02*
X64577165Y-39320237D01*
X64577165Y-39320237D02*
X64539070Y-39301190D01*
X64539070Y-39301190D02*
X64500975Y-39263095D01*
X64500975Y-39263095D02*
X64481927Y-39205952D01*
X64481927Y-39205952D02*
X64481927Y-39167856D01*
X64481927Y-39167856D02*
X64500975Y-39110714D01*
X64500975Y-39110714D02*
X64520022Y-39091666D01*
X64881927Y-38901190D02*
X64881927Y-38824999D01*
X64881927Y-38824999D02*
X64862880Y-38786904D01*
X64862880Y-38786904D02*
X64843832Y-38767856D01*
X64843832Y-38767856D02*
X64786689Y-38729761D01*
X64786689Y-38729761D02*
X64710499Y-38710714D01*
X64710499Y-38710714D02*
X64558118Y-38710714D01*
X64558118Y-38710714D02*
X64520022Y-38729761D01*
X64520022Y-38729761D02*
X64500975Y-38748809D01*
X64500975Y-38748809D02*
X64481927Y-38786904D01*
X64481927Y-38786904D02*
X64481927Y-38863095D01*
X64481927Y-38863095D02*
X64500975Y-38901190D01*
X64500975Y-38901190D02*
X64520022Y-38920237D01*
X64520022Y-38920237D02*
X64558118Y-38939285D01*
X64558118Y-38939285D02*
X64653356Y-38939285D01*
X64653356Y-38939285D02*
X64691451Y-38920237D01*
X64691451Y-38920237D02*
X64710499Y-38901190D01*
X64710499Y-38901190D02*
X64729546Y-38863095D01*
X64729546Y-38863095D02*
X64729546Y-38786904D01*
X64729546Y-38786904D02*
X64710499Y-38748809D01*
X64710499Y-38748809D02*
X64691451Y-38729761D01*
X64691451Y-38729761D02*
X64653356Y-38710714D01*
D13*
X57307616Y-53610024D02*
X57307616Y-53848119D01*
X57140950Y-53348119D02*
X57307616Y-53610024D01*
X57307616Y-53610024D02*
X57474283Y-53348119D01*
X57902854Y-53848119D02*
X57617140Y-53848119D01*
X57759997Y-53848119D02*
X57759997Y-53348119D01*
X57759997Y-53348119D02*
X57712378Y-53419548D01*
X57712378Y-53419548D02*
X57664759Y-53467167D01*
X57664759Y-53467167D02*
X57617140Y-53490976D01*
D10*
X64893832Y-53057142D02*
X64912880Y-53076190D01*
X64912880Y-53076190D02*
X64931927Y-53133332D01*
X64931927Y-53133332D02*
X64931927Y-53171428D01*
X64931927Y-53171428D02*
X64912880Y-53228571D01*
X64912880Y-53228571D02*
X64874784Y-53266666D01*
X64874784Y-53266666D02*
X64836689Y-53285713D01*
X64836689Y-53285713D02*
X64760499Y-53304761D01*
X64760499Y-53304761D02*
X64703356Y-53304761D01*
X64703356Y-53304761D02*
X64627165Y-53285713D01*
X64627165Y-53285713D02*
X64589070Y-53266666D01*
X64589070Y-53266666D02*
X64550975Y-53228571D01*
X64550975Y-53228571D02*
X64531927Y-53171428D01*
X64531927Y-53171428D02*
X64531927Y-53133332D01*
X64531927Y-53133332D02*
X64550975Y-53076190D01*
X64550975Y-53076190D02*
X64570022Y-53057142D01*
X64931927Y-52676190D02*
X64931927Y-52904761D01*
X64931927Y-52790475D02*
X64531927Y-52790475D01*
X64531927Y-52790475D02*
X64589070Y-52828571D01*
X64589070Y-52828571D02*
X64627165Y-52866666D01*
X64627165Y-52866666D02*
X64646213Y-52904761D01*
X64931927Y-52485714D02*
X64931927Y-52409523D01*
X64931927Y-52409523D02*
X64912880Y-52371428D01*
X64912880Y-52371428D02*
X64893832Y-52352380D01*
X64893832Y-52352380D02*
X64836689Y-52314285D01*
X64836689Y-52314285D02*
X64760499Y-52295238D01*
X64760499Y-52295238D02*
X64608118Y-52295238D01*
X64608118Y-52295238D02*
X64570022Y-52314285D01*
X64570022Y-52314285D02*
X64550975Y-52333333D01*
X64550975Y-52333333D02*
X64531927Y-52371428D01*
X64531927Y-52371428D02*
X64531927Y-52447619D01*
X64531927Y-52447619D02*
X64550975Y-52485714D01*
X64550975Y-52485714D02*
X64570022Y-52504761D01*
X64570022Y-52504761D02*
X64608118Y-52523809D01*
X64608118Y-52523809D02*
X64703356Y-52523809D01*
X64703356Y-52523809D02*
X64741451Y-52504761D01*
X64741451Y-52504761D02*
X64760499Y-52485714D01*
X64760499Y-52485714D02*
X64779546Y-52447619D01*
X64779546Y-52447619D02*
X64779546Y-52371428D01*
X64779546Y-52371428D02*
X64760499Y-52333333D01*
X64760499Y-52333333D02*
X64741451Y-52314285D01*
X64741451Y-52314285D02*
X64703356Y-52295238D01*
D12*
X32238095Y-27454819D02*
X32238095Y-26454819D01*
X32238095Y-26931009D02*
X32809523Y-26931009D01*
X32809523Y-27454819D02*
X32809523Y-26454819D01*
X33809523Y-27454819D02*
X33238095Y-27454819D01*
X33523809Y-27454819D02*
X33523809Y-26454819D01*
X33523809Y-26454819D02*
X33428571Y-26597676D01*
X33428571Y-26597676D02*
X33333333Y-26692914D01*
X33333333Y-26692914D02*
X33238095Y-26740533D01*
X72552295Y-46739523D02*
X73199914Y-46739523D01*
X73199914Y-46739523D02*
X73276104Y-46701428D01*
X73276104Y-46701428D02*
X73314200Y-46663333D01*
X73314200Y-46663333D02*
X73352295Y-46587142D01*
X73352295Y-46587142D02*
X73352295Y-46434761D01*
X73352295Y-46434761D02*
X73314200Y-46358571D01*
X73314200Y-46358571D02*
X73276104Y-46320476D01*
X73276104Y-46320476D02*
X73199914Y-46282380D01*
X73199914Y-46282380D02*
X72552295Y-46282380D01*
X72552295Y-45558571D02*
X72552295Y-45710952D01*
X72552295Y-45710952D02*
X72590390Y-45787143D01*
X72590390Y-45787143D02*
X72628485Y-45825238D01*
X72628485Y-45825238D02*
X72742771Y-45901428D01*
X72742771Y-45901428D02*
X72895152Y-45939524D01*
X72895152Y-45939524D02*
X73199914Y-45939524D01*
X73199914Y-45939524D02*
X73276104Y-45901428D01*
X73276104Y-45901428D02*
X73314200Y-45863333D01*
X73314200Y-45863333D02*
X73352295Y-45787143D01*
X73352295Y-45787143D02*
X73352295Y-45634762D01*
X73352295Y-45634762D02*
X73314200Y-45558571D01*
X73314200Y-45558571D02*
X73276104Y-45520476D01*
X73276104Y-45520476D02*
X73199914Y-45482381D01*
X73199914Y-45482381D02*
X73009438Y-45482381D01*
X73009438Y-45482381D02*
X72933247Y-45520476D01*
X72933247Y-45520476D02*
X72895152Y-45558571D01*
X72895152Y-45558571D02*
X72857057Y-45634762D01*
X72857057Y-45634762D02*
X72857057Y-45787143D01*
X72857057Y-45787143D02*
X72895152Y-45863333D01*
X72895152Y-45863333D02*
X72933247Y-45901428D01*
X72933247Y-45901428D02*
X73009438Y-45939524D01*
D10*
X66908333Y-31743832D02*
X66889285Y-31762880D01*
X66889285Y-31762880D02*
X66832143Y-31781927D01*
X66832143Y-31781927D02*
X66794047Y-31781927D01*
X66794047Y-31781927D02*
X66736904Y-31762880D01*
X66736904Y-31762880D02*
X66698809Y-31724784D01*
X66698809Y-31724784D02*
X66679762Y-31686689D01*
X66679762Y-31686689D02*
X66660714Y-31610499D01*
X66660714Y-31610499D02*
X66660714Y-31553356D01*
X66660714Y-31553356D02*
X66679762Y-31477165D01*
X66679762Y-31477165D02*
X66698809Y-31439070D01*
X66698809Y-31439070D02*
X66736904Y-31400975D01*
X66736904Y-31400975D02*
X66794047Y-31381927D01*
X66794047Y-31381927D02*
X66832143Y-31381927D01*
X66832143Y-31381927D02*
X66889285Y-31400975D01*
X66889285Y-31400975D02*
X66908333Y-31420022D01*
X67041666Y-31381927D02*
X67308333Y-31381927D01*
X67308333Y-31381927D02*
X67136904Y-31781927D01*
D12*
X57828095Y-45914819D02*
X57828095Y-46724342D01*
X57828095Y-46724342D02*
X57875714Y-46819580D01*
X57875714Y-46819580D02*
X57923333Y-46867200D01*
X57923333Y-46867200D02*
X58018571Y-46914819D01*
X58018571Y-46914819D02*
X58209047Y-46914819D01*
X58209047Y-46914819D02*
X58304285Y-46867200D01*
X58304285Y-46867200D02*
X58351904Y-46819580D01*
X58351904Y-46819580D02*
X58399523Y-46724342D01*
X58399523Y-46724342D02*
X58399523Y-45914819D01*
X59304285Y-46248152D02*
X59304285Y-46914819D01*
X59066190Y-45867200D02*
X58828095Y-46581485D01*
X58828095Y-46581485D02*
X59447142Y-46581485D01*
X32238095Y-70454819D02*
X32238095Y-69454819D01*
X32238095Y-69931009D02*
X32809523Y-69931009D01*
X32809523Y-70454819D02*
X32809523Y-69454819D01*
X33238095Y-69550057D02*
X33285714Y-69502438D01*
X33285714Y-69502438D02*
X33380952Y-69454819D01*
X33380952Y-69454819D02*
X33619047Y-69454819D01*
X33619047Y-69454819D02*
X33714285Y-69502438D01*
X33714285Y-69502438D02*
X33761904Y-69550057D01*
X33761904Y-69550057D02*
X33809523Y-69645295D01*
X33809523Y-69645295D02*
X33809523Y-69740533D01*
X33809523Y-69740533D02*
X33761904Y-69883390D01*
X33761904Y-69883390D02*
X33190476Y-70454819D01*
X33190476Y-70454819D02*
X33809523Y-70454819D01*
D10*
X62843832Y-39482142D02*
X62862880Y-39501190D01*
X62862880Y-39501190D02*
X62881927Y-39558332D01*
X62881927Y-39558332D02*
X62881927Y-39596428D01*
X62881927Y-39596428D02*
X62862880Y-39653571D01*
X62862880Y-39653571D02*
X62824784Y-39691666D01*
X62824784Y-39691666D02*
X62786689Y-39710713D01*
X62786689Y-39710713D02*
X62710499Y-39729761D01*
X62710499Y-39729761D02*
X62653356Y-39729761D01*
X62653356Y-39729761D02*
X62577165Y-39710713D01*
X62577165Y-39710713D02*
X62539070Y-39691666D01*
X62539070Y-39691666D02*
X62500975Y-39653571D01*
X62500975Y-39653571D02*
X62481927Y-39596428D01*
X62481927Y-39596428D02*
X62481927Y-39558332D01*
X62481927Y-39558332D02*
X62500975Y-39501190D01*
X62500975Y-39501190D02*
X62520022Y-39482142D01*
X62520022Y-39329761D02*
X62500975Y-39310713D01*
X62500975Y-39310713D02*
X62481927Y-39272618D01*
X62481927Y-39272618D02*
X62481927Y-39177380D01*
X62481927Y-39177380D02*
X62500975Y-39139285D01*
X62500975Y-39139285D02*
X62520022Y-39120237D01*
X62520022Y-39120237D02*
X62558118Y-39101190D01*
X62558118Y-39101190D02*
X62596213Y-39101190D01*
X62596213Y-39101190D02*
X62653356Y-39120237D01*
X62653356Y-39120237D02*
X62881927Y-39348809D01*
X62881927Y-39348809D02*
X62881927Y-39101190D01*
X62653356Y-38872619D02*
X62634308Y-38910714D01*
X62634308Y-38910714D02*
X62615260Y-38929761D01*
X62615260Y-38929761D02*
X62577165Y-38948809D01*
X62577165Y-38948809D02*
X62558118Y-38948809D01*
X62558118Y-38948809D02*
X62520022Y-38929761D01*
X62520022Y-38929761D02*
X62500975Y-38910714D01*
X62500975Y-38910714D02*
X62481927Y-38872619D01*
X62481927Y-38872619D02*
X62481927Y-38796428D01*
X62481927Y-38796428D02*
X62500975Y-38758333D01*
X62500975Y-38758333D02*
X62520022Y-38739285D01*
X62520022Y-38739285D02*
X62558118Y-38720238D01*
X62558118Y-38720238D02*
X62577165Y-38720238D01*
X62577165Y-38720238D02*
X62615260Y-38739285D01*
X62615260Y-38739285D02*
X62634308Y-38758333D01*
X62634308Y-38758333D02*
X62653356Y-38796428D01*
X62653356Y-38796428D02*
X62653356Y-38872619D01*
X62653356Y-38872619D02*
X62672403Y-38910714D01*
X62672403Y-38910714D02*
X62691451Y-38929761D01*
X62691451Y-38929761D02*
X62729546Y-38948809D01*
X62729546Y-38948809D02*
X62805737Y-38948809D01*
X62805737Y-38948809D02*
X62843832Y-38929761D01*
X62843832Y-38929761D02*
X62862880Y-38910714D01*
X62862880Y-38910714D02*
X62881927Y-38872619D01*
X62881927Y-38872619D02*
X62881927Y-38796428D01*
X62881927Y-38796428D02*
X62862880Y-38758333D01*
X62862880Y-38758333D02*
X62843832Y-38739285D01*
X62843832Y-38739285D02*
X62805737Y-38720238D01*
X62805737Y-38720238D02*
X62729546Y-38720238D01*
X62729546Y-38720238D02*
X62691451Y-38739285D01*
X62691451Y-38739285D02*
X62672403Y-38758333D01*
X62672403Y-38758333D02*
X62653356Y-38796428D01*
X40983333Y-48106927D02*
X40850000Y-47916451D01*
X40754762Y-48106927D02*
X40754762Y-47706927D01*
X40754762Y-47706927D02*
X40907143Y-47706927D01*
X40907143Y-47706927D02*
X40945238Y-47725975D01*
X40945238Y-47725975D02*
X40964285Y-47745022D01*
X40964285Y-47745022D02*
X40983333Y-47783118D01*
X40983333Y-47783118D02*
X40983333Y-47840260D01*
X40983333Y-47840260D02*
X40964285Y-47878356D01*
X40964285Y-47878356D02*
X40945238Y-47897403D01*
X40945238Y-47897403D02*
X40907143Y-47916451D01*
X40907143Y-47916451D02*
X40754762Y-47916451D01*
X41135714Y-47745022D02*
X41154762Y-47725975D01*
X41154762Y-47725975D02*
X41192857Y-47706927D01*
X41192857Y-47706927D02*
X41288095Y-47706927D01*
X41288095Y-47706927D02*
X41326190Y-47725975D01*
X41326190Y-47725975D02*
X41345238Y-47745022D01*
X41345238Y-47745022D02*
X41364285Y-47783118D01*
X41364285Y-47783118D02*
X41364285Y-47821213D01*
X41364285Y-47821213D02*
X41345238Y-47878356D01*
X41345238Y-47878356D02*
X41116666Y-48106927D01*
X41116666Y-48106927D02*
X41364285Y-48106927D01*
D12*
X41856666Y-70154819D02*
X41856666Y-70869104D01*
X41856666Y-70869104D02*
X41809047Y-71011961D01*
X41809047Y-71011961D02*
X41713809Y-71107200D01*
X41713809Y-71107200D02*
X41570952Y-71154819D01*
X41570952Y-71154819D02*
X41475714Y-71154819D01*
X42761428Y-70488152D02*
X42761428Y-71154819D01*
X42523333Y-70107200D02*
X42285238Y-70821485D01*
X42285238Y-70821485D02*
X42904285Y-70821485D01*
D13*
X54104761Y-60027410D02*
X53938095Y-59789315D01*
X53819047Y-60027410D02*
X53819047Y-59527410D01*
X53819047Y-59527410D02*
X54009523Y-59527410D01*
X54009523Y-59527410D02*
X54057142Y-59551220D01*
X54057142Y-59551220D02*
X54080952Y-59575029D01*
X54080952Y-59575029D02*
X54104761Y-59622648D01*
X54104761Y-59622648D02*
X54104761Y-59694077D01*
X54104761Y-59694077D02*
X54080952Y-59741696D01*
X54080952Y-59741696D02*
X54057142Y-59765505D01*
X54057142Y-59765505D02*
X54009523Y-59789315D01*
X54009523Y-59789315D02*
X53819047Y-59789315D01*
X54319047Y-60027410D02*
X54319047Y-59527410D01*
X54319047Y-59527410D02*
X54604761Y-60027410D01*
X54604761Y-60027410D02*
X54604761Y-59527410D01*
X54795238Y-59527410D02*
X55104762Y-59527410D01*
X55104762Y-59527410D02*
X54938095Y-59717886D01*
X54938095Y-59717886D02*
X55009524Y-59717886D01*
X55009524Y-59717886D02*
X55057143Y-59741696D01*
X55057143Y-59741696D02*
X55080952Y-59765505D01*
X55080952Y-59765505D02*
X55104762Y-59813124D01*
X55104762Y-59813124D02*
X55104762Y-59932172D01*
X55104762Y-59932172D02*
X55080952Y-59979791D01*
X55080952Y-59979791D02*
X55057143Y-60003601D01*
X55057143Y-60003601D02*
X55009524Y-60027410D01*
X55009524Y-60027410D02*
X54866667Y-60027410D01*
X54866667Y-60027410D02*
X54819048Y-60003601D01*
X54819048Y-60003601D02*
X54795238Y-59979791D01*
D10*
X75643832Y-40032142D02*
X75662880Y-40051190D01*
X75662880Y-40051190D02*
X75681927Y-40108332D01*
X75681927Y-40108332D02*
X75681927Y-40146428D01*
X75681927Y-40146428D02*
X75662880Y-40203571D01*
X75662880Y-40203571D02*
X75624784Y-40241666D01*
X75624784Y-40241666D02*
X75586689Y-40260713D01*
X75586689Y-40260713D02*
X75510499Y-40279761D01*
X75510499Y-40279761D02*
X75453356Y-40279761D01*
X75453356Y-40279761D02*
X75377165Y-40260713D01*
X75377165Y-40260713D02*
X75339070Y-40241666D01*
X75339070Y-40241666D02*
X75300975Y-40203571D01*
X75300975Y-40203571D02*
X75281927Y-40146428D01*
X75281927Y-40146428D02*
X75281927Y-40108332D01*
X75281927Y-40108332D02*
X75300975Y-40051190D01*
X75300975Y-40051190D02*
X75320022Y-40032142D01*
X75681927Y-39651190D02*
X75681927Y-39879761D01*
X75681927Y-39765475D02*
X75281927Y-39765475D01*
X75281927Y-39765475D02*
X75339070Y-39803571D01*
X75339070Y-39803571D02*
X75377165Y-39841666D01*
X75377165Y-39841666D02*
X75396213Y-39879761D01*
X75681927Y-39270238D02*
X75681927Y-39498809D01*
X75681927Y-39384523D02*
X75281927Y-39384523D01*
X75281927Y-39384523D02*
X75339070Y-39422619D01*
X75339070Y-39422619D02*
X75377165Y-39460714D01*
X75377165Y-39460714D02*
X75396213Y-39498809D01*
D12*
X34320180Y-45526666D02*
X33605895Y-45526666D01*
X33605895Y-45526666D02*
X33463038Y-45479047D01*
X33463038Y-45479047D02*
X33367800Y-45383809D01*
X33367800Y-45383809D02*
X33320180Y-45240952D01*
X33320180Y-45240952D02*
X33320180Y-45145714D01*
X33320180Y-46526666D02*
X33320180Y-45955238D01*
X33320180Y-46240952D02*
X34320180Y-46240952D01*
X34320180Y-46240952D02*
X34177323Y-46145714D01*
X34177323Y-46145714D02*
X34082085Y-46050476D01*
X34082085Y-46050476D02*
X34034466Y-45955238D01*
D10*
X57181927Y-62432142D02*
X56991451Y-62565475D01*
X57181927Y-62660713D02*
X56781927Y-62660713D01*
X56781927Y-62660713D02*
X56781927Y-62508332D01*
X56781927Y-62508332D02*
X56800975Y-62470237D01*
X56800975Y-62470237D02*
X56820022Y-62451190D01*
X56820022Y-62451190D02*
X56858118Y-62432142D01*
X56858118Y-62432142D02*
X56915260Y-62432142D01*
X56915260Y-62432142D02*
X56953356Y-62451190D01*
X56953356Y-62451190D02*
X56972403Y-62470237D01*
X56972403Y-62470237D02*
X56991451Y-62508332D01*
X56991451Y-62508332D02*
X56991451Y-62660713D01*
X57181927Y-62051190D02*
X57181927Y-62279761D01*
X57181927Y-62165475D02*
X56781927Y-62165475D01*
X56781927Y-62165475D02*
X56839070Y-62203571D01*
X56839070Y-62203571D02*
X56877165Y-62241666D01*
X56877165Y-62241666D02*
X56896213Y-62279761D01*
X56820022Y-61898809D02*
X56800975Y-61879761D01*
X56800975Y-61879761D02*
X56781927Y-61841666D01*
X56781927Y-61841666D02*
X56781927Y-61746428D01*
X56781927Y-61746428D02*
X56800975Y-61708333D01*
X56800975Y-61708333D02*
X56820022Y-61689285D01*
X56820022Y-61689285D02*
X56858118Y-61670238D01*
X56858118Y-61670238D02*
X56896213Y-61670238D01*
X56896213Y-61670238D02*
X56953356Y-61689285D01*
X56953356Y-61689285D02*
X57181927Y-61917857D01*
X57181927Y-61917857D02*
X57181927Y-61670238D01*
X65017857Y-42143832D02*
X64998809Y-42162880D01*
X64998809Y-42162880D02*
X64941667Y-42181927D01*
X64941667Y-42181927D02*
X64903571Y-42181927D01*
X64903571Y-42181927D02*
X64846428Y-42162880D01*
X64846428Y-42162880D02*
X64808333Y-42124784D01*
X64808333Y-42124784D02*
X64789286Y-42086689D01*
X64789286Y-42086689D02*
X64770238Y-42010499D01*
X64770238Y-42010499D02*
X64770238Y-41953356D01*
X64770238Y-41953356D02*
X64789286Y-41877165D01*
X64789286Y-41877165D02*
X64808333Y-41839070D01*
X64808333Y-41839070D02*
X64846428Y-41800975D01*
X64846428Y-41800975D02*
X64903571Y-41781927D01*
X64903571Y-41781927D02*
X64941667Y-41781927D01*
X64941667Y-41781927D02*
X64998809Y-41800975D01*
X64998809Y-41800975D02*
X65017857Y-41820022D01*
X65170238Y-41820022D02*
X65189286Y-41800975D01*
X65189286Y-41800975D02*
X65227381Y-41781927D01*
X65227381Y-41781927D02*
X65322619Y-41781927D01*
X65322619Y-41781927D02*
X65360714Y-41800975D01*
X65360714Y-41800975D02*
X65379762Y-41820022D01*
X65379762Y-41820022D02*
X65398809Y-41858118D01*
X65398809Y-41858118D02*
X65398809Y-41896213D01*
X65398809Y-41896213D02*
X65379762Y-41953356D01*
X65379762Y-41953356D02*
X65151190Y-42181927D01*
X65151190Y-42181927D02*
X65398809Y-42181927D01*
X65532142Y-41781927D02*
X65779761Y-41781927D01*
X65779761Y-41781927D02*
X65646428Y-41934308D01*
X65646428Y-41934308D02*
X65703571Y-41934308D01*
X65703571Y-41934308D02*
X65741666Y-41953356D01*
X65741666Y-41953356D02*
X65760714Y-41972403D01*
X65760714Y-41972403D02*
X65779761Y-42010499D01*
X65779761Y-42010499D02*
X65779761Y-42105737D01*
X65779761Y-42105737D02*
X65760714Y-42143832D01*
X65760714Y-42143832D02*
X65741666Y-42162880D01*
X65741666Y-42162880D02*
X65703571Y-42181927D01*
X65703571Y-42181927D02*
X65589285Y-42181927D01*
X65589285Y-42181927D02*
X65551190Y-42162880D01*
X65551190Y-42162880D02*
X65532142Y-42143832D01*
X58881927Y-59307736D02*
X58481927Y-59307736D01*
X58481927Y-59307736D02*
X58481927Y-59212498D01*
X58481927Y-59212498D02*
X58500975Y-59155355D01*
X58500975Y-59155355D02*
X58539070Y-59117260D01*
X58539070Y-59117260D02*
X58577165Y-59098213D01*
X58577165Y-59098213D02*
X58653356Y-59079165D01*
X58653356Y-59079165D02*
X58710499Y-59079165D01*
X58710499Y-59079165D02*
X58786689Y-59098213D01*
X58786689Y-59098213D02*
X58824784Y-59117260D01*
X58824784Y-59117260D02*
X58862880Y-59155355D01*
X58862880Y-59155355D02*
X58881927Y-59212498D01*
X58881927Y-59212498D02*
X58881927Y-59307736D01*
X58481927Y-58945832D02*
X58481927Y-58698213D01*
X58481927Y-58698213D02*
X58634308Y-58831546D01*
X58634308Y-58831546D02*
X58634308Y-58774403D01*
X58634308Y-58774403D02*
X58653356Y-58736308D01*
X58653356Y-58736308D02*
X58672403Y-58717260D01*
X58672403Y-58717260D02*
X58710499Y-58698213D01*
X58710499Y-58698213D02*
X58805737Y-58698213D01*
X58805737Y-58698213D02*
X58843832Y-58717260D01*
X58843832Y-58717260D02*
X58862880Y-58736308D01*
X58862880Y-58736308D02*
X58881927Y-58774403D01*
X58881927Y-58774403D02*
X58881927Y-58888689D01*
X58881927Y-58888689D02*
X58862880Y-58926784D01*
X58862880Y-58926784D02*
X58843832Y-58945832D01*
D12*
X38979166Y-37906009D02*
X38645833Y-37906009D01*
X38645833Y-38429819D02*
X38645833Y-37429819D01*
X38645833Y-37429819D02*
X39122023Y-37429819D01*
X40026785Y-38429819D02*
X39455357Y-38429819D01*
X39741071Y-38429819D02*
X39741071Y-37429819D01*
X39741071Y-37429819D02*
X39645833Y-37572676D01*
X39645833Y-37572676D02*
X39550595Y-37667914D01*
X39550595Y-37667914D02*
X39455357Y-37715533D01*
D10*
X71068832Y-39257142D02*
X71087880Y-39276190D01*
X71087880Y-39276190D02*
X71106927Y-39333332D01*
X71106927Y-39333332D02*
X71106927Y-39371428D01*
X71106927Y-39371428D02*
X71087880Y-39428571D01*
X71087880Y-39428571D02*
X71049784Y-39466666D01*
X71049784Y-39466666D02*
X71011689Y-39485713D01*
X71011689Y-39485713D02*
X70935499Y-39504761D01*
X70935499Y-39504761D02*
X70878356Y-39504761D01*
X70878356Y-39504761D02*
X70802165Y-39485713D01*
X70802165Y-39485713D02*
X70764070Y-39466666D01*
X70764070Y-39466666D02*
X70725975Y-39428571D01*
X70725975Y-39428571D02*
X70706927Y-39371428D01*
X70706927Y-39371428D02*
X70706927Y-39333332D01*
X70706927Y-39333332D02*
X70725975Y-39276190D01*
X70725975Y-39276190D02*
X70745022Y-39257142D01*
X71106927Y-38876190D02*
X71106927Y-39104761D01*
X71106927Y-38990475D02*
X70706927Y-38990475D01*
X70706927Y-38990475D02*
X70764070Y-39028571D01*
X70764070Y-39028571D02*
X70802165Y-39066666D01*
X70802165Y-39066666D02*
X70821213Y-39104761D01*
X70706927Y-38742857D02*
X70706927Y-38495238D01*
X70706927Y-38495238D02*
X70859308Y-38628571D01*
X70859308Y-38628571D02*
X70859308Y-38571428D01*
X70859308Y-38571428D02*
X70878356Y-38533333D01*
X70878356Y-38533333D02*
X70897403Y-38514285D01*
X70897403Y-38514285D02*
X70935499Y-38495238D01*
X70935499Y-38495238D02*
X71030737Y-38495238D01*
X71030737Y-38495238D02*
X71068832Y-38514285D01*
X71068832Y-38514285D02*
X71087880Y-38533333D01*
X71087880Y-38533333D02*
X71106927Y-38571428D01*
X71106927Y-38571428D02*
X71106927Y-38685714D01*
X71106927Y-38685714D02*
X71087880Y-38723809D01*
X71087880Y-38723809D02*
X71068832Y-38742857D01*
D13*
X48404761Y-60027410D02*
X48238095Y-59789315D01*
X48119047Y-60027410D02*
X48119047Y-59527410D01*
X48119047Y-59527410D02*
X48309523Y-59527410D01*
X48309523Y-59527410D02*
X48357142Y-59551220D01*
X48357142Y-59551220D02*
X48380952Y-59575029D01*
X48380952Y-59575029D02*
X48404761Y-59622648D01*
X48404761Y-59622648D02*
X48404761Y-59694077D01*
X48404761Y-59694077D02*
X48380952Y-59741696D01*
X48380952Y-59741696D02*
X48357142Y-59765505D01*
X48357142Y-59765505D02*
X48309523Y-59789315D01*
X48309523Y-59789315D02*
X48119047Y-59789315D01*
X48619047Y-60027410D02*
X48619047Y-59527410D01*
X48619047Y-59527410D02*
X48904761Y-60027410D01*
X48904761Y-60027410D02*
X48904761Y-59527410D01*
X49404762Y-60027410D02*
X49119048Y-60027410D01*
X49261905Y-60027410D02*
X49261905Y-59527410D01*
X49261905Y-59527410D02*
X49214286Y-59598839D01*
X49214286Y-59598839D02*
X49166667Y-59646458D01*
X49166667Y-59646458D02*
X49119048Y-59670267D01*
D10*
X74118832Y-39257142D02*
X74137880Y-39276190D01*
X74137880Y-39276190D02*
X74156927Y-39333332D01*
X74156927Y-39333332D02*
X74156927Y-39371428D01*
X74156927Y-39371428D02*
X74137880Y-39428571D01*
X74137880Y-39428571D02*
X74099784Y-39466666D01*
X74099784Y-39466666D02*
X74061689Y-39485713D01*
X74061689Y-39485713D02*
X73985499Y-39504761D01*
X73985499Y-39504761D02*
X73928356Y-39504761D01*
X73928356Y-39504761D02*
X73852165Y-39485713D01*
X73852165Y-39485713D02*
X73814070Y-39466666D01*
X73814070Y-39466666D02*
X73775975Y-39428571D01*
X73775975Y-39428571D02*
X73756927Y-39371428D01*
X73756927Y-39371428D02*
X73756927Y-39333332D01*
X73756927Y-39333332D02*
X73775975Y-39276190D01*
X73775975Y-39276190D02*
X73795022Y-39257142D01*
X74156927Y-38876190D02*
X74156927Y-39104761D01*
X74156927Y-38990475D02*
X73756927Y-38990475D01*
X73756927Y-38990475D02*
X73814070Y-39028571D01*
X73814070Y-39028571D02*
X73852165Y-39066666D01*
X73852165Y-39066666D02*
X73871213Y-39104761D01*
X73756927Y-38628571D02*
X73756927Y-38590476D01*
X73756927Y-38590476D02*
X73775975Y-38552380D01*
X73775975Y-38552380D02*
X73795022Y-38533333D01*
X73795022Y-38533333D02*
X73833118Y-38514285D01*
X73833118Y-38514285D02*
X73909308Y-38495238D01*
X73909308Y-38495238D02*
X74004546Y-38495238D01*
X74004546Y-38495238D02*
X74080737Y-38514285D01*
X74080737Y-38514285D02*
X74118832Y-38533333D01*
X74118832Y-38533333D02*
X74137880Y-38552380D01*
X74137880Y-38552380D02*
X74156927Y-38590476D01*
X74156927Y-38590476D02*
X74156927Y-38628571D01*
X74156927Y-38628571D02*
X74137880Y-38666666D01*
X74137880Y-38666666D02*
X74118832Y-38685714D01*
X74118832Y-38685714D02*
X74080737Y-38704761D01*
X74080737Y-38704761D02*
X74004546Y-38723809D01*
X74004546Y-38723809D02*
X73909308Y-38723809D01*
X73909308Y-38723809D02*
X73833118Y-38704761D01*
X73833118Y-38704761D02*
X73795022Y-38685714D01*
X73795022Y-38685714D02*
X73775975Y-38666666D01*
X73775975Y-38666666D02*
X73756927Y-38628571D01*
D12*
X75238095Y-27454819D02*
X75238095Y-26454819D01*
X75238095Y-26931009D02*
X75809523Y-26931009D01*
X75809523Y-27454819D02*
X75809523Y-26454819D01*
X76714285Y-26788152D02*
X76714285Y-27454819D01*
X76476190Y-26407200D02*
X76238095Y-27121485D01*
X76238095Y-27121485D02*
X76857142Y-27121485D01*
D11*
X38732976Y-30928856D02*
X38732976Y-31576475D01*
X38732976Y-31576475D02*
X38771071Y-31652665D01*
X38771071Y-31652665D02*
X38809166Y-31690761D01*
X38809166Y-31690761D02*
X38885357Y-31728856D01*
X38885357Y-31728856D02*
X39037738Y-31728856D01*
X39037738Y-31728856D02*
X39113928Y-31690761D01*
X39113928Y-31690761D02*
X39152023Y-31652665D01*
X39152023Y-31652665D02*
X39190119Y-31576475D01*
X39190119Y-31576475D02*
X39190119Y-30928856D01*
X39990118Y-31728856D02*
X39532975Y-31728856D01*
X39761547Y-31728856D02*
X39761547Y-30928856D01*
X39761547Y-30928856D02*
X39685356Y-31043141D01*
X39685356Y-31043141D02*
X39609166Y-31119332D01*
X39609166Y-31119332D02*
X39532975Y-31157427D01*
D12*
X31354819Y-62063333D02*
X32069104Y-62063333D01*
X32069104Y-62063333D02*
X32211961Y-62110952D01*
X32211961Y-62110952D02*
X32307200Y-62206190D01*
X32307200Y-62206190D02*
X32354819Y-62349047D01*
X32354819Y-62349047D02*
X32354819Y-62444285D01*
X31354819Y-61682380D02*
X31354819Y-61015714D01*
X31354819Y-61015714D02*
X32354819Y-61444285D01*
D10*
X69481927Y-39066666D02*
X69291451Y-39199999D01*
X69481927Y-39295237D02*
X69081927Y-39295237D01*
X69081927Y-39295237D02*
X69081927Y-39142856D01*
X69081927Y-39142856D02*
X69100975Y-39104761D01*
X69100975Y-39104761D02*
X69120022Y-39085714D01*
X69120022Y-39085714D02*
X69158118Y-39066666D01*
X69158118Y-39066666D02*
X69215260Y-39066666D01*
X69215260Y-39066666D02*
X69253356Y-39085714D01*
X69253356Y-39085714D02*
X69272403Y-39104761D01*
X69272403Y-39104761D02*
X69291451Y-39142856D01*
X69291451Y-39142856D02*
X69291451Y-39295237D01*
X69081927Y-38933333D02*
X69081927Y-38666666D01*
X69081927Y-38666666D02*
X69481927Y-38838095D01*
X69431927Y-56682142D02*
X69241451Y-56815475D01*
X69431927Y-56910713D02*
X69031927Y-56910713D01*
X69031927Y-56910713D02*
X69031927Y-56758332D01*
X69031927Y-56758332D02*
X69050975Y-56720237D01*
X69050975Y-56720237D02*
X69070022Y-56701190D01*
X69070022Y-56701190D02*
X69108118Y-56682142D01*
X69108118Y-56682142D02*
X69165260Y-56682142D01*
X69165260Y-56682142D02*
X69203356Y-56701190D01*
X69203356Y-56701190D02*
X69222403Y-56720237D01*
X69222403Y-56720237D02*
X69241451Y-56758332D01*
X69241451Y-56758332D02*
X69241451Y-56910713D01*
X69431927Y-56301190D02*
X69431927Y-56529761D01*
X69431927Y-56415475D02*
X69031927Y-56415475D01*
X69031927Y-56415475D02*
X69089070Y-56453571D01*
X69089070Y-56453571D02*
X69127165Y-56491666D01*
X69127165Y-56491666D02*
X69146213Y-56529761D01*
X69431927Y-55920238D02*
X69431927Y-56148809D01*
X69431927Y-56034523D02*
X69031927Y-56034523D01*
X69031927Y-56034523D02*
X69089070Y-56072619D01*
X69089070Y-56072619D02*
X69127165Y-56110714D01*
X69127165Y-56110714D02*
X69146213Y-56148809D01*
D12*
X75238095Y-70454819D02*
X75238095Y-69454819D01*
X75238095Y-69931009D02*
X75809523Y-69931009D01*
X75809523Y-70454819D02*
X75809523Y-69454819D01*
X76190476Y-69454819D02*
X76809523Y-69454819D01*
X76809523Y-69454819D02*
X76476190Y-69835771D01*
X76476190Y-69835771D02*
X76619047Y-69835771D01*
X76619047Y-69835771D02*
X76714285Y-69883390D01*
X76714285Y-69883390D02*
X76761904Y-69931009D01*
X76761904Y-69931009D02*
X76809523Y-70026247D01*
X76809523Y-70026247D02*
X76809523Y-70264342D01*
X76809523Y-70264342D02*
X76761904Y-70359580D01*
X76761904Y-70359580D02*
X76714285Y-70407200D01*
X76714285Y-70407200D02*
X76619047Y-70454819D01*
X76619047Y-70454819D02*
X76333333Y-70454819D01*
X76333333Y-70454819D02*
X76238095Y-70407200D01*
X76238095Y-70407200D02*
X76190476Y-70359580D01*
D10*
X57181927Y-59295237D02*
X56781927Y-59295237D01*
X56781927Y-59295237D02*
X56781927Y-59199999D01*
X56781927Y-59199999D02*
X56800975Y-59142856D01*
X56800975Y-59142856D02*
X56839070Y-59104761D01*
X56839070Y-59104761D02*
X56877165Y-59085714D01*
X56877165Y-59085714D02*
X56953356Y-59066666D01*
X56953356Y-59066666D02*
X57010499Y-59066666D01*
X57010499Y-59066666D02*
X57086689Y-59085714D01*
X57086689Y-59085714D02*
X57124784Y-59104761D01*
X57124784Y-59104761D02*
X57162880Y-59142856D01*
X57162880Y-59142856D02*
X57181927Y-59199999D01*
X57181927Y-59199999D02*
X57181927Y-59295237D01*
X57181927Y-58685714D02*
X57181927Y-58914285D01*
X57181927Y-58799999D02*
X56781927Y-58799999D01*
X56781927Y-58799999D02*
X56839070Y-58838095D01*
X56839070Y-58838095D02*
X56877165Y-58876190D01*
X56877165Y-58876190D02*
X56896213Y-58914285D01*
D14*
%TO.C,R5*%
X66200000Y-34437500D02*
X67800000Y-34437500D01*
X66200000Y-35262500D02*
X66200000Y-34437500D01*
X67800000Y-34437500D02*
X67800000Y-35262500D01*
X67800000Y-35262500D02*
X66200000Y-35262500D01*
%TO.C,C5*%
X66250000Y-25050000D02*
X67850000Y-25050000D01*
X66250000Y-28250000D02*
X66250000Y-25050000D01*
X67850000Y-25050000D02*
X67850000Y-28250000D01*
X67850000Y-28250000D02*
X66250000Y-28250000D01*
%TO.C,C14*%
X72050000Y-38200000D02*
X72850000Y-38200000D01*
X72050000Y-39800000D02*
X72050000Y-38200000D01*
X72850000Y-38200000D02*
X72850000Y-39800000D01*
X72850000Y-39800000D02*
X72050000Y-39800000D01*
%TO.C,C21*%
X65025000Y-43200000D02*
X66625000Y-43200000D01*
X65025000Y-44000000D02*
X65025000Y-43200000D01*
X66625000Y-43200000D02*
X66625000Y-44000000D01*
X66625000Y-44000000D02*
X65025000Y-44000000D01*
%TO.C,J3*%
X75730000Y-59285000D02*
X76365000Y-58650000D01*
X75730000Y-66270000D02*
X75730000Y-59285000D01*
X76365000Y-58650000D02*
X78270000Y-58650000D01*
X78270000Y-58650000D02*
X78270000Y-66270000D01*
X78270000Y-66270000D02*
X75730000Y-66270000D01*
%TO.C,R3*%
X68625000Y-36087500D02*
X70225000Y-36087500D01*
X68625000Y-36912500D02*
X68625000Y-36087500D01*
X70225000Y-36087500D02*
X70225000Y-36912500D01*
X70225000Y-36912500D02*
X68625000Y-36912500D01*
%TO.C,D4*%
X39450000Y-44830000D02*
X41850000Y-44830000D01*
X39450000Y-46130000D02*
X39450000Y-44830000D01*
X41850000Y-44830000D02*
X42350000Y-45330000D01*
X42350000Y-45330000D02*
X42350000Y-46130000D01*
X42350000Y-46130000D02*
X39450000Y-46130000D01*
%TO.C,C15*%
X69475000Y-51300000D02*
X71075000Y-51300000D01*
X69475000Y-52100000D02*
X69475000Y-51300000D01*
X71075000Y-51300000D02*
X71075000Y-52100000D01*
X71075000Y-52100000D02*
X69475000Y-52100000D01*
%TO.C,C17*%
X59720710Y-52870711D02*
X60520710Y-52870711D01*
X59720710Y-54470711D02*
X59720710Y-52870711D01*
X60520710Y-52870711D02*
X60520710Y-54470711D01*
X60520710Y-54470711D02*
X59720710Y-54470711D01*
%TO.C,J5*%
X49110000Y-69430000D02*
X59270000Y-69430000D01*
X49110000Y-71335000D02*
X49110000Y-69430000D01*
X49745000Y-71970000D02*
X49110000Y-71335000D01*
X59270000Y-69430000D02*
X59270000Y-71970000D01*
X59270000Y-71970000D02*
X49745000Y-71970000D01*
%TO.C,R14*%
X58287500Y-61425000D02*
X59112500Y-61425000D01*
X58287500Y-63025000D02*
X58287500Y-61425000D01*
X59112500Y-61425000D02*
X59112500Y-63025000D01*
X59112500Y-63025000D02*
X58287500Y-63025000D01*
%TO.C,R13*%
X59987500Y-61425000D02*
X60812500Y-61425000D01*
X59987500Y-63025000D02*
X59987500Y-61425000D01*
X60812500Y-61425000D02*
X60812500Y-63025000D01*
X60812500Y-63025000D02*
X59987500Y-63025000D01*
%TO.C,R4*%
X71775000Y-36087500D02*
X73375000Y-36087500D01*
X71775000Y-36912500D02*
X71775000Y-36087500D01*
X73375000Y-36087500D02*
X73375000Y-36912500D01*
X73375000Y-36912500D02*
X71775000Y-36912500D01*
%TO.C,C4*%
X43700000Y-25525001D02*
X45300000Y-25525001D01*
X43700000Y-28725001D02*
X43700000Y-25525001D01*
X45300000Y-25525001D02*
X45300000Y-28725001D01*
X45300000Y-28725001D02*
X43700000Y-28725001D01*
%TO.C,C26*%
X61250000Y-51975000D02*
X62050000Y-51975000D01*
X61250000Y-53575000D02*
X61250000Y-51975000D01*
X62050000Y-51975000D02*
X62050000Y-53575000D01*
X62050000Y-53575000D02*
X61250000Y-53575000D01*
%TO.C,C20*%
X62800000Y-51975000D02*
X63600000Y-51975000D01*
X62800000Y-53575000D02*
X62800000Y-51975000D01*
X63600000Y-51975000D02*
X63600000Y-53575000D01*
X63600000Y-53575000D02*
X62800000Y-53575000D01*
%TO.C,C27*%
X60800000Y-38425000D02*
X61600000Y-38425000D01*
X60800000Y-40025000D02*
X60800000Y-38425000D01*
X61600000Y-38425000D02*
X61600000Y-40025000D01*
X61600000Y-40025000D02*
X60800000Y-40025000D01*
%TO.C,C25*%
X50600000Y-47200000D02*
X52200000Y-47200000D01*
X50600000Y-48000000D02*
X50600000Y-47200000D01*
X52200000Y-47200000D02*
X52200000Y-48000000D01*
X52200000Y-48000000D02*
X50600000Y-48000000D01*
%TO.C,C12*%
X76650000Y-38975000D02*
X77450000Y-38975000D01*
X76650000Y-40575000D02*
X76650000Y-38975000D01*
X77450000Y-38975000D02*
X77450000Y-40575000D01*
X77450000Y-40575000D02*
X76650000Y-40575000D01*
%TO.C,J2*%
X75729999Y-37670001D02*
X75730000Y-30685001D01*
X75730000Y-30685001D02*
X76365000Y-30050001D01*
X76365000Y-30050001D02*
X78270000Y-30050001D01*
X78270000Y-30050001D02*
X78270001Y-37670001D01*
X78270001Y-37670001D02*
X75729999Y-37670001D01*
%TO.C,J6*%
X61110000Y-69430000D02*
X71270000Y-69430000D01*
X61110000Y-71335000D02*
X61110000Y-69430000D01*
X61745000Y-71970000D02*
X61110000Y-71335000D01*
X71270000Y-69430000D02*
X71270000Y-71970000D01*
X71270000Y-71970000D02*
X61745000Y-71970000D01*
%TO.C,C3*%
X53775000Y-29150001D02*
X55375000Y-29150001D01*
X53775000Y-32350001D02*
X53775000Y-29150001D01*
X55375000Y-29150001D02*
X55375000Y-32350001D01*
X55375000Y-32350001D02*
X53775000Y-32350001D01*
%TO.C,C2*%
X33600000Y-30100000D02*
X35200000Y-30100000D01*
X33600000Y-33300000D02*
X33600000Y-30100000D01*
X35200000Y-30100000D02*
X35200000Y-33300000D01*
X35200000Y-33300000D02*
X33600000Y-33300000D01*
%TO.C,L1*%
X57725000Y-30675000D02*
X57725000Y-25075000D01*
X58225000Y-24575000D02*
X63925000Y-24575000D01*
X63925000Y-31175000D02*
X58225000Y-31175000D01*
X64425000Y-25075000D02*
X64425000Y-30675000D01*
X57725000Y-25075000D02*
G75*
G02*
X58225000Y-24575000I500001J-1D01*
G01*
X58225000Y-31175000D02*
G75*
G02*
X57725000Y-30675000I1J500001D01*
G01*
X63925000Y-24575000D02*
G75*
G02*
X64425000Y-25075000I0J-500000D01*
G01*
X64425000Y-30675000D02*
G75*
G02*
X63925000Y-31175000I-500000J0D01*
G01*
%TO.C,C16*%
X38150000Y-53350000D02*
X38950000Y-53350000D01*
X38150000Y-54950000D02*
X38150000Y-53350000D01*
X38950000Y-53350000D02*
X38950000Y-54950000D01*
X38950000Y-54950000D02*
X38150000Y-54950000D01*
%TO.C,RN2*%
X50600000Y-59300000D02*
X52600000Y-59300000D01*
X50600000Y-60300000D02*
X50600000Y-59300000D01*
X52600000Y-59300000D02*
X52600000Y-60300000D01*
X52600000Y-60300000D02*
X50600000Y-60300000D01*
%TO.C,C1*%
X43675000Y-30820001D02*
X45275000Y-30820001D01*
X43675000Y-34020001D02*
X43675000Y-30820001D01*
X45275000Y-30820001D02*
X45275000Y-34020001D01*
X45275000Y-34020001D02*
X43675000Y-34020001D01*
%TO.C,U2*%
X46120000Y-26860001D02*
X52820000Y-26860001D01*
X46120000Y-29560001D02*
X46120000Y-26860001D01*
X47120001Y-30560001D02*
X46120000Y-29560001D01*
X47120001Y-30560001D02*
X52820000Y-30560001D01*
X52820000Y-30560001D02*
X52820000Y-26860001D01*
%TO.C,U5*%
X39685000Y-51385000D02*
X44915000Y-51385000D01*
X39685000Y-55615000D02*
X39685000Y-51385000D01*
X40685000Y-56615000D02*
X39685000Y-55615000D01*
X44915000Y-51385000D02*
X44915000Y-56615000D01*
X44915000Y-56615000D02*
X40685000Y-56615000D01*
%TO.C,U3*%
X68900000Y-32875000D02*
X68900001Y-29950000D01*
X68900001Y-29950000D02*
X73800001Y-29950000D01*
X69875001Y-33850000D02*
X68900000Y-32875000D01*
X73800001Y-29950000D02*
X73800001Y-33850000D01*
X73800001Y-33850000D02*
X69875001Y-33850000D01*
%TO.C,R8*%
X58787500Y-35175000D02*
X59612500Y-35175000D01*
X58787500Y-36775000D02*
X58787500Y-35175000D01*
X59612500Y-35175000D02*
X59612500Y-36775000D01*
X59612500Y-36775000D02*
X58787500Y-36775000D01*
%TO.C,Q2*%
X68150000Y-59650001D02*
X68150000Y-65350000D01*
X68150000Y-59650001D02*
X69150000Y-58650000D01*
X68150000Y-65350000D02*
X71850000Y-65350000D01*
X69150000Y-58650000D02*
X71850000Y-58650000D01*
X71850000Y-58650000D02*
X71850000Y-65350000D01*
%TO.C,C24*%
X50950000Y-42050000D02*
X52550000Y-42050000D01*
X50950000Y-42850000D02*
X50950000Y-42050000D01*
X52550000Y-42050000D02*
X52550000Y-42850000D01*
X52550000Y-42850000D02*
X50950000Y-42850000D01*
%TO.C,R10*%
X67287500Y-55625000D02*
X68112500Y-55625000D01*
X67287500Y-57225000D02*
X67287500Y-55625000D01*
X68112500Y-55625000D02*
X68112500Y-57225000D01*
X68112500Y-57225000D02*
X67287500Y-57225000D01*
%TO.C,R6*%
X66200000Y-32787500D02*
X67800000Y-32787500D01*
X66200000Y-33612500D02*
X66200000Y-32787500D01*
X67800000Y-32787500D02*
X67800000Y-33612500D01*
X67800000Y-33612500D02*
X66200000Y-33612500D01*
%TO.C,C18*%
X54570711Y-52895710D02*
X55370711Y-52895710D01*
X54570711Y-54495710D02*
X54570711Y-52895710D01*
X55370711Y-52895710D02*
X55370711Y-54495710D01*
X55370711Y-54495710D02*
X54570711Y-54495710D01*
%TO.C,D5*%
X44412499Y-36100000D02*
X44412499Y-36900000D01*
X44412499Y-36900000D02*
X45712499Y-36900000D01*
X45712499Y-36900000D02*
X46012499Y-36600000D01*
X46012499Y-36100000D02*
X44412499Y-36100000D01*
X46012499Y-36600000D02*
X46012499Y-36100000D01*
%TO.C,C22*%
X58400000Y-38400000D02*
X59200000Y-38400000D01*
X58400000Y-40000000D02*
X58400000Y-38400000D01*
X59200000Y-38400000D02*
X59200000Y-40000000D01*
X59200000Y-40000000D02*
X58400000Y-40000000D01*
%TO.C,R27*%
X47700000Y-36087500D02*
X49300000Y-36087500D01*
X47700000Y-36912500D02*
X47700000Y-36087500D01*
X49300000Y-36087500D02*
X49300000Y-36912500D01*
X49300000Y-36912500D02*
X47700000Y-36912500D01*
%TO.C,D2*%
X60000000Y-58212499D02*
X60000000Y-59512499D01*
X60000000Y-59512499D02*
X60300000Y-59812499D01*
X60300000Y-59812499D02*
X60800000Y-59812499D01*
X60800000Y-58212499D02*
X60000000Y-58212499D01*
X60800000Y-59812499D02*
X60800000Y-58212499D01*
%TO.C,C8*%
X65850000Y-38225000D02*
X66650000Y-38225000D01*
X65850000Y-39825000D02*
X65850000Y-38225000D01*
X66650000Y-38225000D02*
X66650000Y-39825000D01*
X66650000Y-39825000D02*
X65850000Y-39825000D01*
%TO.C,R9*%
X60312500Y-35175000D02*
X61137500Y-35175000D01*
X60312500Y-36775000D02*
X60312500Y-35175000D01*
X61137500Y-35175000D02*
X61137500Y-36775000D01*
X61137500Y-36775000D02*
X60312500Y-36775000D01*
%TO.C,C6*%
X67375000Y-38200000D02*
X68175000Y-38200000D01*
X67375000Y-39800000D02*
X67375000Y-38200000D01*
X68175000Y-38200000D02*
X68175000Y-39800000D01*
X68175000Y-39800000D02*
X67375000Y-39800000D01*
%TO.C,R1*%
X40200000Y-40587500D02*
X41800000Y-40587500D01*
X40200000Y-41412500D02*
X40200000Y-40587500D01*
X41800000Y-40587500D02*
X41800000Y-41412500D01*
X41800000Y-41412500D02*
X40200000Y-41412500D01*
%TO.C,C9*%
X64300000Y-38225000D02*
X65100000Y-38225000D01*
X64300000Y-39825000D02*
X64300000Y-38225000D01*
X65100000Y-38225000D02*
X65100000Y-39825000D01*
X65100000Y-39825000D02*
X64300000Y-39825000D01*
%TO.C,Y1*%
X56295711Y-52620710D02*
X56295711Y-54620710D01*
X58295711Y-52620710D02*
X56295711Y-52620710D01*
X58795711Y-53120710D02*
X58295711Y-52620710D01*
X58795711Y-53120710D02*
X58795711Y-54620710D01*
X58795711Y-54620710D02*
X56295711Y-54620710D01*
%TO.C,C19*%
X64350000Y-52000000D02*
X65150000Y-52000000D01*
X64350000Y-53600000D02*
X64350000Y-52000000D01*
X65150000Y-52000000D02*
X65150000Y-53600000D01*
X65150000Y-53600000D02*
X64350000Y-53600000D01*
D12*
%TO.C,U6*%
X67889999Y-43480000D02*
X78090001Y-43480000D01*
X67890000Y-47780000D02*
X67889999Y-43480000D01*
X68890000Y-48780000D02*
X67890000Y-47780000D01*
X78090001Y-43480000D02*
X78090001Y-48780000D01*
X78090001Y-48780000D02*
X68890000Y-48780000D01*
D14*
%TO.C,C7*%
X66175000Y-31200000D02*
X67775000Y-31200000D01*
X66175000Y-32000000D02*
X66175000Y-31200000D01*
X67775000Y-31200000D02*
X67775000Y-32000000D01*
X67775000Y-32000000D02*
X66175000Y-32000000D01*
%TO.C,U4*%
X55090000Y-43960000D02*
X56090000Y-42960000D01*
X55090000Y-49960000D02*
X55090000Y-43960000D01*
X56090000Y-42960000D02*
X62090000Y-42960000D01*
X62090000Y-42960000D02*
X62090000Y-49960000D01*
X62090000Y-49960000D02*
X55090000Y-49960000D01*
%TO.C,C28*%
X62300000Y-38425000D02*
X63100000Y-38425000D01*
X62300000Y-40025000D02*
X62300000Y-38425000D01*
X63100000Y-38425000D02*
X63100000Y-40025000D01*
X63100000Y-40025000D02*
X62300000Y-40025000D01*
%TO.C,R2*%
X40250000Y-47512500D02*
X41850000Y-47512500D01*
X40250000Y-48337500D02*
X40250000Y-47512500D01*
X41850000Y-47512500D02*
X41850000Y-48337500D01*
X41850000Y-48337500D02*
X40250000Y-48337500D01*
%TO.C,J4*%
X37110000Y-69430000D02*
X47270000Y-69430000D01*
X37110000Y-71335000D02*
X37110000Y-69430000D01*
X37745000Y-71970000D02*
X37110000Y-71335000D01*
X47270000Y-69430000D02*
X47270000Y-71970000D01*
X47270000Y-71970000D02*
X37745000Y-71970000D01*
%TO.C,RN3*%
X53450000Y-59300001D02*
X55450000Y-59300001D01*
X53450000Y-60300001D02*
X53450000Y-59300001D01*
X55450000Y-59300001D02*
X55450000Y-60300001D01*
X55450000Y-60300001D02*
X53450000Y-60300001D01*
%TO.C,C11*%
X75100000Y-38975000D02*
X75900000Y-38975000D01*
X75100000Y-40575000D02*
X75100000Y-38975000D01*
X75900000Y-38975000D02*
X75900000Y-40575000D01*
X75900000Y-40575000D02*
X75100000Y-40575000D01*
%TO.C,J1*%
X37450000Y-50330000D02*
X30100000Y-50330000D01*
X30100000Y-41390000D01*
X37450000Y-41390000D01*
X37450000Y-50330000D01*
%TO.C,R12*%
X56587500Y-61375000D02*
X57412500Y-61375000D01*
X56587500Y-62975000D02*
X56587500Y-61375000D01*
X57412500Y-61375000D02*
X57412500Y-62975000D01*
X57412500Y-62975000D02*
X56587500Y-62975000D01*
%TO.C,C23*%
X64475000Y-41600000D02*
X66075000Y-41600000D01*
X64475000Y-42400000D02*
X64475000Y-41600000D01*
X66075000Y-41600000D02*
X66075000Y-42400000D01*
X66075000Y-42400000D02*
X64475000Y-42400000D01*
%TO.C,D3*%
X58300000Y-58212499D02*
X58300000Y-59512499D01*
X58300000Y-59512499D02*
X58600000Y-59812499D01*
X58600000Y-59812499D02*
X59100000Y-59812499D01*
X59100000Y-58212499D02*
X58300000Y-58212499D01*
X59100000Y-59812499D02*
X59100000Y-58212499D01*
%TO.C,F1*%
X37062500Y-36375000D02*
X41562500Y-36375000D01*
X37062500Y-39575000D02*
X37062500Y-36375000D01*
X41562500Y-36375000D02*
X41562500Y-39575000D01*
X41562500Y-39575000D02*
X37062500Y-39575000D01*
%TO.C,C13*%
X70525000Y-38200000D02*
X71325000Y-38200000D01*
X70525000Y-39800000D02*
X70525000Y-38200000D01*
X71325000Y-38200000D02*
X71325000Y-39800000D01*
X71325000Y-39800000D02*
X70525000Y-39800000D01*
%TO.C,RN1*%
X47750000Y-59300001D02*
X49750000Y-59300001D01*
X47750000Y-60300001D02*
X47750000Y-59300001D01*
X49750000Y-59300001D02*
X49750000Y-60300001D01*
X49750000Y-60300001D02*
X47750000Y-60300001D01*
%TO.C,C10*%
X73575000Y-38200000D02*
X74375000Y-38200000D01*
X73575000Y-39800000D02*
X73575000Y-38200000D01*
X74375000Y-38200000D02*
X74375000Y-39800000D01*
X74375000Y-39800000D02*
X73575000Y-39800000D01*
%TO.C,U1*%
X35992500Y-29515001D02*
X42692500Y-29515001D01*
X35992500Y-32215001D02*
X35992500Y-29515001D01*
X36992501Y-33215001D02*
X35992500Y-32215001D01*
X36992501Y-33215001D02*
X42692500Y-33215001D01*
X42692500Y-33215001D02*
X42692500Y-29515001D01*
%TO.C,J7*%
X30630000Y-56650000D02*
X33170000Y-56650000D01*
X30630000Y-66810000D02*
X30630000Y-56650000D01*
X32535000Y-66810000D02*
X30630000Y-66810000D01*
X33170000Y-56650000D02*
X33170000Y-66175000D01*
X33170000Y-66175000D02*
X32535000Y-66810000D01*
%TO.C,R7*%
X68887500Y-38200000D02*
X69712500Y-38200000D01*
X68887500Y-39800000D02*
X68887500Y-38200000D01*
X69712500Y-38200000D02*
X69712500Y-39800000D01*
X69712500Y-39800000D02*
X68887500Y-39800000D01*
%TO.C,R11*%
X68837500Y-55625000D02*
X69662500Y-55625000D01*
X68837500Y-57225000D02*
X68837500Y-55625000D01*
X69662500Y-55625000D02*
X69662500Y-57225000D01*
X69662500Y-57225000D02*
X68837500Y-57225000D01*
%TO.C,D1*%
X56600000Y-58200000D02*
X56600000Y-59500000D01*
X56600000Y-59500000D02*
X56900000Y-59800000D01*
X56900000Y-59800000D02*
X57400000Y-59800000D01*
X57400000Y-58200000D02*
X56600000Y-58200000D01*
X57400000Y-59800000D02*
X57400000Y-58200000D01*
%TD*%
M02*
